<?xml version="1.0" encoding="UTF-8"?><svg id="Layer_4" xmlns="http://www.w3.org/2000/svg" xmlns:xlink="http://www.w3.org/1999/xlink" viewBox="0 0 500 500"><defs><style>.cls-1,.cls-2{fill:none;}.cls-3{fill:#161615;}.cls-2{clip-path:url(#clippath);}</style><clipPath id="clippath"><rect class="cls-1" x="73.43" y="73.43" width="353.15" height="353.15" transform="translate(-62.17 415.98) rotate(-73)"/></clipPath></defs><g class="cls-2"><g id="Group_6"><path id="Path_49" class="cls-3" d="m198.38,418.86c-93.11-28.47-145.7-127.37-117.23-220.48,28.47-93.11,127.37-145.7,220.48-117.23,16.31,4.97,31.81,12.28,46.03,21.69,1.33.82,1.74,2.56.92,3.89-.82,1.33-2.56,1.74-3.89.92-.05-.03-.1-.07-.15-.1-13.76-9.11-28.77-16.19-44.56-21-90.13-27.56-185.88,23.35-213.43,113.49-27.56,90.13,23.35,185.88,113.48,213.44,90.13,27.56,185.88-23.35,213.44-113.49,10.09-32.77,10.02-67.83-.18-100.57-.48-1.48.33-3.08,1.81-3.56,1.48-.48,3.08.33,3.56,1.81,0,.02.01.05.02.07,10.53,33.82,10.59,70.04.18,103.9-28.47,93.11-127.37,145.7-220.48,117.23"/><path id="Path_50" class="cls-3" d="m405.4,202.19c-2.52-.76-4.8-2.17-6.61-4.09-2.21-2.38-2.77-6.38-3.2-9.59-.04-.24-.07-.5-.11-.77-7.15,4.78-15.04,7.87-24.24,1.17-6.33-4.74-9.21-12.8-7.33-20.48-7.57,1.89-15.98-.84-20.19-6.95-5.34-7.74-3.39-16.62,5.77-26.41-.67-.43-1.76-.99-2.62-1.42-3.48-1.76-8.23-4.16-10.02-9.06-2.58-7.11.21-15.99,6.64-21.13,1.22-.97,3-.77,3.97.44.97,1.22.77,3-.44,3.97-4.52,3.61-6.61,9.97-4.85,14.79,1.02,2.8,4.33,4.47,7.26,5.95,2.94,1.49,5.48,2.77,6.02,5.42.28,1.58-.21,3.2-1.32,4.36-10.15,10.62-8.14,16.43-5.75,19.89,3.25,4.71,10.58,6.47,16.34,3.93,1.49-.66,3.22-.36,4.4.76,1.22,1.18,1.61,2.99.97,4.57-2.43,6.21-.59,13.12,4.48,16.8,5.79,4.22,10.52,3.74,18.67-1.9,1.45-1.59,2.96-2.17,4.48-1.73l.06.02c2.57.78,2.96,3.67,3.42,7.01.3,2.17.75,5.45,1.75,6.52,2.95,3.02,7.5,3.83,11.31,2,1.41-.66,3.09-.05,3.75,1.37.63,1.35.11,2.95-1.19,3.67-3.54,1.76-7.63,2.08-11.4.9"/><path id="Path_51" class="cls-3" d="m160.79,235.19c-4.85-5.15-9.68-6.47-16.73-8.18-1.76-.56-2.6-2.55-5.2-3.43-4.77-1.6-10.58-3.04-14.96.26-1.08.9-2.08,1.88-3.01,2.94-1.4.83-2.68,1.85-3.8,3.02-2.14,2.62-2.84,6.07-4.51,8.98-2.7,4.61-3.21,11.64,1.71,14.94,2.48,1.74,5.67,1.93,8.23,3.5,1.69,1.02,6.54,4.83,9.58,6.73,3.43,2.37,7.37,3.89,11.5,4.44,2.99.72,6.11,1.72,9.18.81,5.75-1.52,9.32-6.67,11.43-11.93,3.47-7.19,2.35-16.4-3.42-22.09m.46,18.75c-1.09,2.48-1.22,3.12-2.46,4.78-.29.37-.61.71-.95,1.03-.07.05-.12.1-.17.14-3.87,2.9-6.3,2.75-11.56,1.36-2.63-.44-5.28-.82-7.7-2.03-5.34-2.63-6.11-3.59-11-6.48-2.62-1.75-5.6-2.89-8.72-3.34-3.82-.83-5.45-3.16-5.51-6.07.1-.92.89-2.77,2.01-5.58,1.04-2.57,1.47-4.74,2.19-5.74.05-.07.1-.13.15-.2.22-.4.48-.77.78-1.12.1-.12.2-.23.3-.34.05-.06.09-.11.15-.15h.01s0-.02,0-.01l.03-.03c.26-.22.5-.44.77-.64.25-.19.47-.4.72-.59.16-.13.35-.24.53-.35,1.93-1.48,4.13-2.57,6.48-3.21.56-.03,1.12,0,1.67.11,3.15.73,6.16,1.96,8.92,3.66.79.65,1.49,1.41,2.07,2.25.84.9,1.85,1.62,2.98,2.12,11.32,3.5,18.62,11.61,18.76,18.33-.01.17-.02.31-.02.42-.03.25-.07.51-.12.76-.09.32-.2.63-.31.94"/><path id="Path_52" class="cls-3" d="m312.83,128.17c.32-2.14.15-4.33-.5-6.39-.86-1.93-1.97-3.73-3.3-5.37-2.25-2.79-4.75-5.48-7.86-7.32-3.47-1.85-7.37-2.76-11.3-2.63-2.59.52-5.04,1.57-7.21,3.08-1.72,1.5-3.28,3.18-4.64,5.01-2.21,1.65-4.06,4.08-5.83,7.63-1.3,2.33-2.15,3.87-3.04,5.51-.97,1.84-1.7,3.92-1.4,6.02.42,2.52,2.97,3.76,4.86,5.11,1.45.95,2.76,2.09,3.91,3.39.16.18.45.59.58.77,4.99,8.08,2.73,11.81,14.54,10.54,3.29-.29,6.77-.56,9.56-2.53,7.12-5.26,10.26-14.39,11.64-22.83m-11.42,15.23c-2.3,1.81-4.44,1.9-8.35,2.43-4.21.27-4.74.77-7.26.04-2.1-.77-2.55-4.3-5.93-8.28-2.56-3.14-9.09-5.27-9.53-6.61-.03-.54-.12-.14.3-1.3.85-1.9,1.73-3.79,2.62-5.68.35-.85.67-1.58,1.05-2.4.09-.18.16-.37.27-.55.06-.1.13-.24.07-.1.04-.07.08-.16.11-.23.05-.09-.09.11.05-.1.06-.09.13-.18.19-.28h0s.02-.07.02-.07c.12-.24.25-.49.38-.72,1.18-1.73,3.05-3.35,4.85-4.94.13-.08.26-.14.39-.22.1-.08.19-.16.3-.24-.05.03.17-.13.23-.17.08-.07.17-.13.26-.19.08-.04.09-.04.08-.03l.04-.03.15-.09c.24-.17.47-.34.71-.49.08-.06.17-.11.26-.15.12-.05.12-.05.01.02.05-.04.11-.08.17-.09.06-.03.1-.04.14-.06.19-.11.39-.22.57-.31.62-.37,1.28-.64,1.98-.8-.05,0-.1,0-.15.01.11-.03.22-.06.34-.08.49-.13.98-.22,1.49-.27.15-.04.31-.06.46-.06.31-.04.57-.07.72-.08.08-.01.15-.02.22-.03.4-.04.8.03,1.16.19.02,0,.03.02.04.02.17.05.35.11.52.17,2.68.65,5.25,1.71,7.61,3.14,3.59,2.55,8.6,8.65,10.26,13.44.2,1.87-1.93,11.79-6.82,15.2"/><path id="Path_54" class="cls-3" d="m327.38,224.89c-2.54-3.06-5.37-5.88-8.43-8.42-4.91-4.76-10.86-8.32-17.37-10.41-2.82-.74-5.72-1.1-8.63-1.05-1.36-.22-2.74-.35-4.12-.39-.96-.03-1.91.13-2.86.2-.73-.05-1.46.04-2.15.26-1.13.42-2.33.72-3.47,1.15-6.99.82-11.13,7.95-14.16,13.69-3.14,6.94-7.3,12.74-1.7,19.77,2.74,4.66,7.76,6.87,11.93,9.99,2.13,1.53,3.95,3.46,6.09,4.97,2.66,1.7,5.53,3.06,8.53,4.03,8.05,2.58,15.78,1.19,22.69-3.59,4.74-2.78,9.1-6.33,11.99-11.07,1.64-2.45,3.61-4.77,4.42-7.65,1.34-4.06.06-8.36-2.75-11.48m-5.52,15.89c-.47.58-.98,1.13-1.51,1.65-.2.19-.41.38-.61.57.33-.29.44-.3-.16.16l-.03.03-.05.04.04-.04c-3.5,2.79-7.31,5.19-11.34,7.14-1.66.64-3.38,1.08-5.14,1.32-1.98.25-3.98.22-5.95-.1-4.05-.66-7.94-2.07-11.48-4.15-2.03-1.39-3.79-3.14-5.8-4.54-3.42-2.49-6.17-3.75-8.68-5.66-1.86-1.6-3.49-3.46-4.84-5.52-.4-.54-.68-1.16-.83-1.82-.01-.08-.02-.16-.03-.24h0s0-.01,0-.01c.3-.92.93-2.71,2.11-5.59.93-2.54,2.11-4.97,3.53-7.26-.03.09-.06.18-.08.28.04-.13.08-.25.13-.37.45-.71.96-1.47,1.59-2.37.03-.04.06-.08.09-.13.31-.33.62-.66.93-.99.63-.65,1.31-1.32,1.98-1.96,1.15-.87,2.44-1.53,3.83-1.93.57-.16,1.15-.27,1.74-.33.49-.1,1-.15,1.5-.15.41,0,.8-.04,1.2-.05.51.01,1.02.06,1.52.14.53.06,1.06.15,1.59.2.29.03.57.07.86.14,3.3.3,6.59.59,9.89.87,1.07.38,2.11.84,3.11,1.39,5.53,2.74,11.22,7.89,16.06,13.29,3.54,3.85,6.93,7.2,8.46,10.75-1.18,1.77-2.38,3.52-3.62,5.25"/><path id="Path_55" class="cls-3" d="m296.29,235.19l.2-.18c-.06.05-.13.11-.2.19h0Z"/><path id="Path_56" class="cls-3" d="m312.6,350.62c.66-8.43-4.07-13.44-11.63-16.22-3.87-1.66-8.09-2.21-12.24-2.69-2.43-.32-5.1-.81-7.31.31-.19,0-.38.01-.57.04-.3.1-.59.23-.88.36-.18.06-.36.12-.54.18-.54.15-1.07.32-1.6.5-1.82.8-3.47,1.92-4.88,3.32-1.31.72-2.51,1.64-3.55,2.73-2.63,2.9-4.61,6.85-4.43,10.84.3,2.58,1.9,4.75,3.31,6.85,1.93,2.56,4.02,5.09,6.83,6.71,2.98,1.82,6.43,2.67,9.53,4.26,2.76,1.55,5.41,3.37,8.43,4.39,5.57,1.84,12.4,1.51,15.46-4.24,2.9-5.25,3.51-11.47,4.06-17.35m-9.23,14.06c-4.01.73-6,.47-10.27-1-2.67-.95-5.08-2.5-7.79-3.35-2.97-.8-8.84-2.38-10.12-3.44-3.13-2.14-6.56-5.35-8-8.52.02-.47.09-.94.23-1.4,1.2-3.33,3.04-5.58,5.46-8.07.17-.17.33-.33.48-.49.67-.32,1.31-.69,1.94-1.09.08-.07.16-.14.25-.2.63-.48,1.29-.9,1.99-1.25.76-.37,1.55-.69,2.34-.98h.03s.05-.02.07-.03c.08-.01.15,0,.22-.02.17-.03.33-.11.5-.15.18-.05.37-.09.56-.11.06,0,.12,0,.19,0,.6-.17,1.22-.21,1.83-.1,4.07,1.03,8.07,2.33,11.98,3.88,6.07,2.49,12.26,7.46,12.66,11.55.41,1.82-.04,4.88-1.11,10.18-.99,3.42-.23,3.37-3.43,4.59"/><path id="Path_57" class="cls-3" d="m396.74,290.06c.09-3.75.31-7.76-2.17-10.88-2.61-3.69-7.14-6.42-11.73-6.29-5.23.22-9.61,3.7-13.72,6.6-.38.35-.73.73-1.07,1.12-1.11.84-2.17,1.75-3.22,2.66-5.51,4.65-3.24,12.17-.9,17.9,1.2,2.49,1.97,5.17,3.28,7.6,1.49,2.36,3.42,4.41,5.68,6.06,6.8,5.67,15.4-1.86,19.07-7.78,2.94-5.17,4.9-10.98,4.79-16.98m-11.11,16.25c-1.96,1.58-2.82,2.5-5.51,3.15-3.48.66-6.17-1.58-9.39-4.49-1.98-1.99-2.27-3.61-4.05-6.44-1.15-1.88-2.09-3.87-2.82-5.95-.61-1.72-1.15-3.61-.45-5.16.44-1.03,1.07-1.97,1.85-2.76-.02.03-.03.06-.05.09.09-.09.17-.18.26-.28.28-.3.58-.64.88-.94.33-.32.69-.61,1.07-.85.22-.14-.09.1.1-.05.1-.07.21-.14.32-.19,2.2-1.95,4.95-2.77,7.36-3.79,3.53-1.27,5.91-1.54,9.27-.2,2.68,1.17,6.24,4.5,7.25,7.06.76,1.78.54,1.14.77,2.29,0,.04,0,.06,0,.09,0,.26,0,.51,0,.77-.17,2.97-.44,6.77-.49,6.65-.05.37-.13.74-.2,1.11-1.61,4.24-1.7,5.86-6.2,9.89"/></g></g></svg>