<?xml version="1.0" encoding="UTF-8"?><svg id="Layer_4" xmlns="http://www.w3.org/2000/svg" viewBox="0 0 300 300"><defs><style>.cls-1{letter-spacing:0em;}.cls-2{letter-spacing:0em;}.cls-3{letter-spacing:0em;}.cls-4,.cls-5{fill:#1d1d1b;}.cls-4,.cls-6{font-family:AlwynNewRounded-Light, 'Alwyn New Rounded';font-size:10.88px;font-weight:300;}.cls-5{font-family:AlwynNewRounded-Medium, 'Alwyn New Rounded';font-size:20.02px;font-weight:500;}.cls-7{letter-spacing:-.01em;}.cls-8,.cls-9,.cls-10{stroke-miterlimit:10;}.cls-8,.cls-10{stroke:#fff;stroke-width:.33px;}.cls-9{fill:none;stroke:#1d1d1b;stroke-width:1.18px;}.cls-11{letter-spacing:0em;}.cls-10{fill:#046878;}</style></defs><path class="cls-9" d="m264.81,130.13s-.06.12-.08.22c-3.26,3.54-8.48,3.84-11.56,1.22-2.37-2.01-3.26-5.56-2.17-8.88,1.11-1.61.46-3.63-.82-4.22-1.05-.48-2.57-.02-3.39,1.26-3.91,3.81-10.21,3.88-14.19.15-3.99-3.74-4.33-10.05-.75-14.2,1.31-.65,1.67-2.27.98-3.27-.68-.99-2.3-1.23-3.38-.26-5.73,1.59-11.31-.94-13.07-4.88-2.18-4.87,1.18-12.51,8.75-14.38,1.19-.25,1.97-1.4,1.79-2.55-.19-1.22-1.4-2.09-2.67-1.85-.34-.07-5.97-1.4-7.58-6.09-1.53-4.49,1.21-10.39,7.02-12.81-5.93-4.82-12.43-9.12-19.46-12.81-57-29.88-127.44-7.89-157.31,49.12-29.88,57-7.89,127.44,49.12,157.31,57,29.88,127.44,7.89,157.31-49.12,8.36-15.94,11.31-32.42,11.31-32.42,3.64-20.89.61-41.56.15-41.55Z"/><path class="cls-8" d="m132.18,155.35c.3.49.15,1.13-.34,1.43-.49.3-1.13.15-1.43-.34-1.13-1.84-2.03-3.86-2.63-6-.58-2.07-.9-4.25-.9-6.5s.31-4.43.9-6.5c.6-2.14,1.5-4.15,2.63-6,.3-.49.94-.64,1.43-.34s.64.94.34,1.43c-1.04,1.69-1.86,3.53-2.4,5.47-.53,1.88-.82,3.87-.82,5.94s.28,4.05.82,5.94c.55,1.94,1.36,3.78,2.4,5.47h0Zm3.76-19.48c.27-.5.9-.69,1.41-.41.5.27.69.9.41,1.41-.58,1.06-1.03,2.21-1.34,3.42-.3,1.17-.46,2.39-.46,3.66s.16,2.49.46,3.66c.31,1.21.76,2.36,1.34,3.42.27.5.09,1.13-.41,1.41-.5.27-1.13.09-1.41-.41-.67-1.22-1.19-2.53-1.54-3.9-.34-1.33-.52-2.73-.52-4.17s.18-2.84.52-4.17c.35-1.37.87-2.68,1.54-3.9h0Zm31.8,20.57c-.3.49-.94.64-1.43.34-.49-.3-.64-.94-.34-1.43,1.04-1.69,1.86-3.53,2.4-5.47.53-1.88.82-3.87.82-5.94s-.28-4.05-.82-5.94c-.55-1.94-1.36-3.78-2.4-5.47-.3-.49-.15-1.13.34-1.43.49-.3,1.13-.15,1.43.34,1.13,1.84,2.03,3.86,2.63,6,.58,2.07.9,4.25.9,6.5s-.31,4.43-.9,6.5c-.6,2.14-1.5,4.15-2.63,6h0Zm-7.36-19.57c-.27-.5-.09-1.13.41-1.41.5-.27,1.13-.09,1.41.41.67,1.22,1.19,2.53,1.54,3.9.34,1.33.52,2.73.52,4.17s-.18,2.84-.52,4.17c-.35,1.37-.87,2.68-1.54,3.9-.27.5-.9.69-1.41.41-.5-.27-.69-.9-.41-1.41.58-1.06,1.03-2.21,1.34-3.42.3-1.17.46-2.39.46-3.66s-.16-2.49-.46-3.66c-.31-1.21-.76-2.36-1.34-3.42h0Z"/><path class="cls-10" d="m148.77,136.32l5.71,4.23c.47.35.84.78,1.08,1.27.25.5.38,1.05.38,1.63s-.13,1.13-.38,1.63c-.25.49-.61.92-1.08,1.27l-5.71,4.23c-.56.42-1.19.65-1.84.71-.65.06-1.31-.07-1.93-.38-.62-.31-1.11-.77-1.46-1.33-.35-.56-.53-1.21-.53-1.9v-8.45c0-.69.19-1.34.53-1.9.34-.56.84-1.01,1.46-1.33.62-.31,1.28-.44,1.93-.38.65.06,1.28.29,1.84.71h0Zm4.47,5.89l-5.71-4.23c-.24-.18-.51-.28-.78-.3-.27-.02-.56.03-.82.17-.27.14-.49.33-.63.56-.14.23-.22.5-.22.81v8.45c0,.31.08.58.22.81.14.23.35.42.63.56.27.13.55.19.82.17.27-.02.54-.12.78-.3l5.71-4.23c.21-.15.36-.34.47-.54.1-.2.15-.43.15-.69s-.05-.49-.15-.69c-.1-.21-.26-.39-.47-.54h0Z"/><text class="cls-5" transform="translate(87.79 103.22)"><tspan x="0" y="0">Zajęcia 100% </tspan><tspan x="25.34" y="18.28">na ży</tspan><tspan class="cls-2" x="71.34" y="18.28">w</tspan><tspan x="86.27" y="18.28">o</tspan></text><text class="cls-4" transform="translate(64.65 177.09)"><tspan class="cls-3" x="0" y="0">Ro</tspan><tspan x="12.06" y="0">zwijaj się w tempie r</tspan><tspan class="cls-3" x="107.14" y="0">z</tspan><tspan x="112.2" y="0">eczywistym </tspan><tspan x="10.94" y="13.05">dzięki </tspan><tspan class="cls-1" x="41.07" y="13.05">z</tspan><tspan x="46.17" y="13.05">ajęciom 100% na ży</tspan><tspan class="cls-11" x="140.38" y="13.05">w</tspan><tspan x="148.11" y="13.05">o, </tspan><tspan x="13.14" y="26.11">gdzie </tspan><tspan class="cls-3" x="41.35" y="26.11">z</tspan><tspan x="46.41" y="26.11">dobędziesz praktyczne </tspan><tspan x="3.18" y="39.16">umiejętności popr</tspan><tspan class="cls-3" x="88.04" y="39.16">z</tspan><tspan class="cls-1" x="93.1" y="39.16">e</tspan><tspan x="98.74" y="39.16">z b</tspan><tspan class="cls-11" x="112.63" y="39.16">e</tspan><tspan x="118.26" y="39.16">zpośredni </tspan><tspan class="cls-7" x="36.14" y="52.22">k</tspan><tspan x="41.33" y="52.22">ontakt z trenerami.</tspan></text><text class="cls-6" transform="translate(64.65 177.09)"><tspan class="cls-3" x="0" y="0">Ro</tspan><tspan x="12.06" y="0">zwijaj się w tempie r</tspan><tspan class="cls-3" x="107.14" y="0">z</tspan><tspan x="112.2" y="0">eczywistym </tspan><tspan x="10.94" y="13.05">dzięki </tspan><tspan class="cls-1" x="41.07" y="13.05">z</tspan><tspan x="46.17" y="13.05">ajęciom 100% na ży</tspan><tspan class="cls-11" x="140.38" y="13.05">w</tspan><tspan x="148.11" y="13.05">o, </tspan><tspan x="13.14" y="26.11">gdzie </tspan><tspan class="cls-3" x="41.35" y="26.11">z</tspan><tspan x="46.41" y="26.11">dobędziesz praktyczne </tspan><tspan x="3.18" y="39.16">umiejętności popr</tspan><tspan class="cls-3" x="88.04" y="39.16">z</tspan><tspan class="cls-1" x="93.1" y="39.16">e</tspan><tspan x="98.74" y="39.16">z b</tspan><tspan class="cls-11" x="112.63" y="39.16">e</tspan><tspan x="118.26" y="39.16">zpośredni </tspan><tspan class="cls-7" x="36.14" y="52.22">k</tspan><tspan x="41.33" y="52.22">ontakt z trenerami.</tspan></text></svg>