<?xml version="1.0" encoding="UTF-8"?><svg id="Layer_4" xmlns="http://www.w3.org/2000/svg" viewBox="0 0 300 300"><defs><style>.cls-1{letter-spacing:0em;}.cls-2,.cls-3{fill-rule:evenodd;}.cls-2,.cls-3,.cls-4,.cls-5{stroke-miterlimit:10;}.cls-2,.cls-5{fill:#046878;stroke:#046878;stroke-width:.22px;}.cls-3{fill:#010101;stroke:#000;stroke-width:.44px;}.cls-6{letter-spacing:0em;}.cls-7{letter-spacing:-.06em;}.cls-8,.cls-9{font-family:AlwynNewRounded-Light, 'Alwyn New Rounded';font-size:10.88px;font-weight:300;}.cls-8,.cls-10{fill:#1d1d1b;}.cls-11{letter-spacing:0em;}.cls-12{letter-spacing:-.01em;}.cls-4{fill:none;stroke:#1d1d1b;stroke-width:1.18px;}.cls-13{letter-spacing:0em;}.cls-10{font-family:AlwynNewRounded-Medium, 'Alwyn New Rounded';font-size:21.76px;font-weight:500;}.cls-14{letter-spacing:0em;}</style></defs><path class="cls-4" d="m264.81,130.13s-.06.12-.08.22c-3.26,3.54-8.48,3.84-11.56,1.22-2.37-2.01-3.26-5.56-2.17-8.88,1.11-1.61.46-3.63-.82-4.22-1.05-.48-2.57-.02-3.39,1.26-3.91,3.81-10.21,3.88-14.19.15-3.99-3.74-4.33-10.05-.75-14.2,1.31-.65,1.67-2.27.98-3.27-.68-.99-2.3-1.23-3.38-.26-5.73,1.59-11.31-.94-13.07-4.88-2.18-4.87,1.18-12.51,8.75-14.38,1.19-.25,1.97-1.4,1.79-2.55-.19-1.22-1.4-2.09-2.67-1.85-.34-.07-5.97-1.4-7.58-6.09-1.53-4.49,1.21-10.39,7.02-12.81-5.93-4.82-12.43-9.12-19.46-12.81-57-29.88-127.44-7.89-157.31,49.12-29.88,57-7.89,127.44,49.12,157.31,57,29.88,127.44,7.89,157.31-49.12,8.36-15.94,11.31-32.42,11.31-32.42,3.64-20.89.61-41.56.15-41.55Z"/><path class="cls-3" d="m138.73,136c-2.85-.77-5.85.48-7.32,3.05-1.48,2.57-1.05,5.8,1.03,7.9.97.97,1.48,2.04,1.72,3.19.21.98.2,2.09.2,3.26h6.59v-2.06l2.6-2.11v-3.18l1.24-1.16-1.24-2.43v-.13c0-2.96-1.98-5.55-4.83-6.32Zm.29-1.08c3.34.9,5.66,3.94,5.66,7.4l1.51,2.8-1.51,1.41v3.23l-2.6,2.11v2.65h-8.79v-.56c0-1.43,0-2.61-.21-3.6-.21-.99-.6-1.8-1.42-2.63-2.44-2.45-2.94-6.25-1.21-9.25,1.72-3,5.25-4.47,8.58-3.57Z"/><path class="cls-3" d="m159.43,136c2.85-.77,5.85.48,7.32,3.05,1.48,2.57,1.05,5.8-1.04,7.9-.97.97-1.48,2.04-1.72,3.19-.21.98-.2,2.09-.2,3.26h-6.59v-2.06l-2.6-2.11v-3.18l-1.24-1.16,1.24-2.43v-.13c0-2.96,1.98-5.55,4.83-6.32Zm-.29-1.08c-3.33.9-5.65,3.94-5.65,7.4l-1.51,2.8,1.51,1.41v3.23l2.6,2.11v2.65h8.79v-.56c0-1.43,0-2.61.21-3.6.21-.99.59-1.8,1.42-2.63,2.44-2.45,2.94-6.25,1.21-9.25-1.73-3-5.25-4.47-8.59-3.57Z"/><path class="cls-2" d="m146.58,132.3h5.05v1.64l-1.22,1.06-.05.16c-.15.53-.67.87-1.21.9-.54.03-1.05-.18-1.31-.93l-.05-.14-1.21-1.04v-1.64h0Zm2.52-12.94c2.44,0,4.64,1.48,5.58,3.75.93,2.27.42,4.89-1.31,6.63l-1.44,1.44h-2.27v-3.95c.24-.05.47-.14.7-.26.78-.44,1.27-1.26,1.27-2.16h-1.13c0,.48-.26.94-.69,1.18-.44.25-.98.25-1.41,0-.44-.24-.7-.7-.7-1.18h-1.12c0,.89.49,1.71,1.26,2.16.22.12.46.21.7.26v3.95h-2.27l-1.44-1.44c-1.73-1.74-2.25-4.36-1.31-6.63.93-2.27,3.13-3.75,5.57-3.75Zm0-1.12c-2.9,0-5.5,1.76-6.61,4.44-1.11,2.69-.49,5.78,1.55,7.84l1.42,1.43v2.5l1.39,1.2c.45,1.06,1.44,1.57,2.36,1.52.91-.05,1.8-.61,2.15-1.52l1.39-1.2v-2.5l1.42-1.43c2.04-2.06,2.66-5.15,1.55-7.84-1.1-2.69-3.72-4.44-6.61-4.44Z"/><rect class="cls-5" x="148.22" y="111.94" width="1.12" height="4.12"/><polygon class="cls-5" points="157.68 115.39 154.76 118.3 155.55 119.09 158.47 116.18 157.68 115.39"/><rect class="cls-5" x="140.38" y="115.18" width="1.12" height="4.12" transform="translate(-41.59 134.29) rotate(-45.09)"/><rect class="cls-5" x="135.64" y="124.52" width="4.12" height="1.12"/><rect class="cls-5" x="157.81" y="124.52" width="4.12" height="1.12"/><text class="cls-10" transform="translate(99 104.81)"><tspan x="0" y="0">Mentoring</tspan></text><text class="cls-8" transform="translate(76.06 173.76)"><tspan x="0" y="0">Odkryj siłę mentora w naszych </tspan><tspan x="-.51" y="13.05">kursach I</tspan><tspan class="cls-7" x="41.9" y="13.05">T</tspan><tspan x="47.21" y="13.05">, gdzie doświadc</tspan><tspan class="cls-6" x="124.5" y="13.05">z</tspan><tspan x="129.56" y="13.05">eni </tspan><tspan x="5" y="26.11">eksperci pr</tspan><tspan class="cls-1" x="56.82" y="26.11">o</tspan><tspan class="cls-13" x="62.7" y="26.11">w</tspan><tspan x="70.38" y="26.11">ad</tspan><tspan class="cls-14" x="81.97" y="26.11">z</tspan><tspan x="87.08" y="26.11">ą Cię pr</tspan><tspan class="cls-11" x="122.57" y="26.11">z</tspan><tspan class="cls-14" x="127.63" y="26.11">e</tspan><tspan x="133.26" y="26.11">z </tspan><tspan x="5.12" y="39.16">ści</tspan><tspan class="cls-1" x="17.61" y="39.16">e</tspan><tspan x="23.25" y="39.16">ż</tspan><tspan class="cls-12" x="28.4" y="39.16">k</tspan><tspan x="33.59" y="39.16">ę r</tspan><tspan class="cls-6" x="45.95" y="39.16">o</tspan><tspan x="51.78" y="39.16">z</tspan><tspan class="cls-1" x="56.94" y="39.16">w</tspan><tspan x="64.67" y="39.16">oju z osobistym </tspan><tspan x="43.65" y="52.22">podejściem.</tspan></text><text class="cls-9" transform="translate(76.06 173.76)"><tspan x="0" y="0">Odkryj siłę mentora w naszych </tspan><tspan x="-.51" y="13.05">kursach I</tspan><tspan class="cls-7" x="41.9" y="13.05">T</tspan><tspan x="47.21" y="13.05">, gdzie doświadc</tspan><tspan class="cls-6" x="124.5" y="13.05">z</tspan><tspan x="129.56" y="13.05">eni </tspan><tspan x="5" y="26.11">eksperci pr</tspan><tspan class="cls-1" x="56.82" y="26.11">o</tspan><tspan class="cls-13" x="62.7" y="26.11">w</tspan><tspan x="70.38" y="26.11">ad</tspan><tspan class="cls-14" x="81.97" y="26.11">z</tspan><tspan x="87.08" y="26.11">ą Cię pr</tspan><tspan class="cls-11" x="122.57" y="26.11">z</tspan><tspan class="cls-14" x="127.63" y="26.11">e</tspan><tspan x="133.26" y="26.11">z </tspan><tspan x="5.12" y="39.16">ści</tspan><tspan class="cls-1" x="17.61" y="39.16">e</tspan><tspan x="23.25" y="39.16">ż</tspan><tspan class="cls-12" x="28.4" y="39.16">k</tspan><tspan x="33.59" y="39.16">ę r</tspan><tspan class="cls-6" x="45.95" y="39.16">o</tspan><tspan x="51.78" y="39.16">z</tspan><tspan class="cls-1" x="56.94" y="39.16">w</tspan><tspan x="64.67" y="39.16">oju z osobistym </tspan><tspan x="43.65" y="52.22">podejściem.</tspan></text></svg>