<?xml version="1.0" encoding="UTF-8"?><svg id="Layer_4" xmlns="http://www.w3.org/2000/svg" viewBox="0 0 300 300"><defs><style>.cls-1{letter-spacing:0em;}.cls-2{fill:#010101;}.cls-3{fill:#046878;}.cls-4{letter-spacing:0em;}.cls-5{letter-spacing:-.06em;}.cls-6,.cls-7{font-family:AlwynNewRounded-Light, 'Alwyn New Rounded';font-size:10.88px;font-weight:300;}.cls-6,.cls-8{fill:#1d1d1b;}.cls-9{letter-spacing:0em;}.cls-10{fill:none;stroke:#1d1d1b;stroke-miterlimit:10;stroke-width:1.18px;}.cls-11{letter-spacing:0em;}.cls-8{font-family:AlwynNewRounded-Medium, 'Alwyn New Rounded';font-size:21.76px;font-weight:500;}.cls-12{letter-spacing:0em;}.cls-13{letter-spacing:-.07em;}</style></defs><path class="cls-10" d="m264.81,130.13s-.06.12-.08.22c-3.26,3.54-8.48,3.84-11.56,1.22-2.37-2.01-3.26-5.56-2.17-8.88,1.11-1.61.46-3.63-.82-4.22-1.05-.48-2.57-.02-3.39,1.26-3.91,3.81-10.21,3.88-14.19.15-3.99-3.74-4.33-10.05-.75-14.2,1.31-.65,1.67-2.27.98-3.27-.68-.99-2.3-1.23-3.38-.26-5.73,1.59-11.31-.94-13.07-4.88-2.18-4.87,1.18-12.51,8.75-14.38,1.19-.25,1.97-1.4,1.79-2.55-.19-1.22-1.4-2.09-2.67-1.85-.34-.07-5.97-1.4-7.58-6.09-1.53-4.49,1.21-10.39,7.02-12.81-5.93-4.82-12.43-9.12-19.46-12.81-57-29.88-127.44-7.89-157.31,49.12-29.88,57-7.89,127.44,49.12,157.31,57,29.88,127.44,7.89,157.31-49.12,8.36-15.94,11.31-32.42,11.31-32.42,3.64-20.89.61-41.56.15-41.55Z"/><path class="cls-2" d="m167.19,135.8c0,.15,0,.3-.02.45,0,.06,0,.12-.01.17.01-.13-.02.15-.02.14-.05.28-.12.56-.22.83-.02.05-.04.11-.06.16.04-.1-.03.06-.04.08-.05.12-.11.23-.17.34-.14.25-.27.46-.4.61-.15.19-.32.37-.49.53-.03.04-.07.07-.11.1-.18.16.06-.04-.05.05-.11.08-.22.17-.33.24-.45.3-.74.42-1.27.55-.42.11-.83.12-1.35.08-.25-.02.07.02-.07,0-.06-.01-.13-.02-.19-.04-.12-.03-.25-.06-.37-.09-.25-.07-.45-.15-.6-.23-.2-.1-.39-.22-.58-.35-.05-.04-.1-.07-.15-.11-.02-.02-.15-.12-.05-.04-.1-.09-.21-.18-.31-.28-.38-.38-.59-.67-.83-1.16-.02-.05-.05-.1-.07-.15,0,.01-.1-.24-.05-.12-.05-.12-.09-.24-.12-.36-.07-.25-.15-.58-.18-.78-.02-.18-.04-.51-.03-.75,0-.12.01-.24.02-.36,0-.03.01-.16,0,0,0-.07.02-.14.03-.21.04-.22.09-.44.16-.65.03-.1.06-.2.1-.29.07-.22-.06.14.03-.07.03-.06.05-.13.08-.19.09-.18.19-.36.3-.54.03-.05.06-.09.09-.14.02-.03.11-.15.02-.03.07-.09.14-.18.21-.26.14-.17.3-.33.46-.47.03-.03.06-.06.1-.09-.11.09,0,0,.03-.02.1-.07.19-.14.3-.21.17-.11.34-.2.51-.29.19-.1-.14.05.06-.03.04-.02.08-.03.12-.05.11-.04.23-.08.34-.12.2-.06.41-.11.62-.14-.14.02-.02,0,0,0,.07,0,.14-.01.2-.02.11,0,.23-.01.34,0,.11,0,.23,0,.34.02.04,0,.09.01.13.02-.15-.02,0,0,.04,0,.23.04.46.1.68.17.1.04.21.08.31.12.2.08-.08-.04.03.02.07.03.14.07.21.11.21.12.41.25.61.39.03.03.07.05.1.08-.13-.1.04.04.05.05.1.09.19.18.29.28.07.08.15.16.22.25.03.04.07.09.1.13.02.03.04.05.06.08q-.05-.07,0,0c.13.2.26.4.36.61.05.11.11.23.16.34-.06-.14,0,0,.01.04.02.07.04.13.07.2.08.25.14.5.18.75,0,.06.02.12.02.18-.02-.17,0,.06,0,.08.01.14.02.28.02.43,0,.41.34.81.74.79s.74-.35.74-.79c-.01-2.25-1.24-4.4-3.17-5.35-2.01-.99-4.37-.65-6.05.9-1.68,1.54-2.33,4.19-1.57,6.41.84,2.47,3.15,4.16,5.63,3.95,1.34-.12,2.62-.73,3.57-1.75,1.02-1.11,1.58-2.61,1.59-4.16,0-.41-.34-.81-.74-.79-.41.02-.74.35-.74.79Z"/><path class="cls-2" d="m169.36,147.61c0,.56-.02,1.13,0,1.69v.08s-.03-.04.01-.06c0,.01,0,.02,0,.03-.01.06,0,.05.02-.03,0,.02-.02.04-.03.06q.06-.07,0,0c.1-.11.03,0-.02.01,0,0-.02.01-.03.02.08-.04.08-.04,0-.02,0-.03.09-.02.06-.02h-10.51c-.68,0-1.38.03-2.06,0v1.58c.83-.09,1.45-.71,1.47-1.63,0-.26,0-.51,0-.77v-2.13c0-.9-.14-1.81-.41-2.66-.02.2-.05.4-.07.61.04-.06.08-.13.12-.19.03-.04.05-.08.08-.13,0,0,.07-.1.03-.04-.02.03.08-.1.1-.13.05-.07.11-.14.17-.2.21-.25.44-.47.67-.68.11-.1.04-.04.02-.02.03-.02.06-.05.09-.07.06-.05.12-.09.18-.13.14-.1.28-.19.43-.28.13-.07.26-.15.38-.22.07-.04.15-.08.23-.11-.1.05.09-.04.13-.05.3-.12.61-.21.92-.28.07-.02.15-.03.22-.04.01,0,.17-.03.09-.02-.07.01.05,0,.05,0,.16-.02.33-.03.49-.04.33-.01.66,0,1,0s.67-.01,1,.01c.08,0,.16.01.24.02.03,0,.21.02.14.02-.07-.01.1.02.14.02.08.02.15.03.23.05.29.06.58.15.86.26.06.03.12.05.18.07.08.03-.01,0-.02-.01.03.02.06.03.09.04.14.07.28.14.41.22.25.14.48.3.71.48.02.02.05.04.08.06,0,0-.09-.07-.02-.02.06.05.12.1.17.15.11.09.21.2.31.3.1.11.2.21.29.32.04.05.08.11.13.16.02.03.17.23.08.11.19.27.36.55.51.84.08.15.15.31.22.47,0,.01.04.12.01.03-.03-.08.02.05.02.07.03.08.05.15.08.23.11.34.19.68.25,1.03,0,.04,0,.07.01.11,0,.02.02.16,0,.07,0-.09,0,.03,0,.04,0,.05,0,.09.01.15,0,.19,0,.38,0,.58,0,.41.34.81.74.79s.74-.35.74-.79c0-2.04-.8-4.05-2.21-5.44-1.32-1.31-3.05-2.02-4.85-2.02-.5,0-1.01-.01-1.51,0-1.08.02-2.15.32-3.12.85-.93.51-1.72,1.25-2.35,2.13-.22.32-.46.61-.36,1.05.07.3.18.6.24.9.09.46.12.86.12,1.36v2.89s0,.05,0,.07c0-.09,0-.09-.01,0,0-.02.01-.04.02-.06-.04.07-.04.08,0,0l-.04.05s.03-.03.05-.04c-.07.04-.07.05,0,.01-.08.02-.08.03,0,.01-.38.04-.76.33-.74.79.02.44.32.77.74.79.59.02,1.18,0,1.77,0h10.81c.81-.03,1.43-.69,1.46-1.56.02-.59,0-1.19,0-1.78,0-.41-.34-.81-.74-.79-.4.02-.74.35-.74.79Z"/><path class="cls-3" d="m154.17,132.76c0,.15,0,.29-.01.44,0,.08-.01.17-.02.25,0,.09,0-.02,0-.03,0,.05-.01.09-.02.14-.05.3-.11.6-.2.9-.04.13-.09.26-.13.39,0,.03-.06.14,0,0-.01.03-.02.06-.04.09-.03.07-.06.15-.1.22-.13.27-.27.53-.43.77-.04.06-.07.11-.11.17.07-.11-.01.02-.04.06-.09.13-.2.24-.3.36-.09.1-.18.19-.28.29-.05.05-.1.09-.15.14-.03.03-.22.18-.1.09-.22.18-.46.35-.7.49-.11.07-.23.13-.35.19-.04.02-.18.08-.06.03-.08.04-.16.07-.25.1-.27.11-.55.19-.83.25-.06.02-.13.03-.2.04-.05.01-.2.03-.07.01-.16.02-.32.03-.48.04-.3.01-.6,0-.89-.04.13.02-.02,0-.07-.01-.06-.01-.13-.03-.2-.04-.14-.03-.28-.07-.42-.11-.14-.04-.28-.09-.41-.14-.06-.03-.12-.05-.18-.07,0,0-.11-.05-.03-.02.07.04-.05-.03-.06-.03-.26-.13-.5-.27-.74-.44-.12-.08-.23-.17-.34-.26.1.08-.02-.02-.05-.05-.06-.05-.11-.11-.17-.16-.21-.2-.4-.42-.58-.64-.02-.03-.15-.2-.06-.08-.04-.05-.08-.11-.11-.17-.08-.12-.16-.25-.23-.38-.07-.13-.14-.26-.21-.39-.03-.06-.06-.13-.08-.19-.01-.03-.02-.06-.04-.09-.05-.11.04.11,0,0-.11-.28-.2-.57-.26-.87-.03-.15-.06-.3-.09-.46,0-.05-.02-.22,0-.08,0-.08-.01-.17-.02-.25-.02-.32-.02-.64,0-.96,0-.07.01-.15.02-.22,0-.09,0,.02,0,.03,0-.04,0-.07.01-.11.02-.16.05-.33.09-.49.07-.3.16-.59.26-.87.03-.08,0,.02,0,.03.01-.03.02-.06.04-.09.03-.06.05-.13.08-.19.07-.15.14-.29.22-.43.07-.12.14-.24.21-.35.04-.07.09-.13.13-.19-.08.12.04-.05.06-.08.18-.23.37-.44.58-.64.05-.05.1-.09.15-.14.02-.02.15-.14.1-.09-.05.04.08-.06.11-.08.07-.05.14-.11.21-.16.24-.16.48-.3.74-.44.03-.02.06-.03.09-.04,0,0-.1.05-.02.01.06-.03.12-.05.18-.07.14-.06.29-.11.44-.15.13-.04.26-.07.39-.1.06-.02.13-.03.2-.04.03,0,.07-.01.1-.02.14-.03-.05,0,.04,0,.3-.03.6-.05.9-.03.14,0,.27.02.41.03.09.01-.01,0-.03,0,.03,0,.07.01.1.02.08.01.15.03.23.04.28.06.56.14.83.25.07.03.14.06.22.09.08.03-.01,0-.02-.01.03.02.06.03.09.04.13.06.26.13.38.2.25.15.48.31.7.49-.11-.09.04.04.08.07.05.04.1.09.15.14.1.1.21.2.3.31.1.11.19.22.28.33.02.03.13.16.08.11-.05-.07.01.02.02.03.02.04.05.07.07.11.16.25.31.5.43.77.03.06.06.13.08.19.02.04.03.08.05.13,0-.01-.04-.11,0-.03.05.14.1.28.15.43.09.29.16.59.2.9,0,.05.02.22,0,.08,0,.08.01.17.02.25,0,.17.01.33.01.49,0,.41.34.81.74.79s.74-.35.74-.79c-.01-2.94-1.76-5.57-4.33-6.59-2.54-1.01-5.56-.14-7.28,2.09-.88,1.15-1.4,2.51-1.52,3.99-.11,1.42.23,2.9.92,4.12,1.44,2.55,4.26,3.84,6.99,3.26,2.59-.55,4.74-2.91,5.13-5.71.05-.38.09-.77.09-1.16,0-.41-.34-.81-.74-.79-.4.02-.74.35-.74.79Z"/><path class="cls-2" d="m139.11,135.8c0,.15,0,.3-.02.45,0,.06,0,.12-.01.17.01-.13-.02.15-.02.14-.05.28-.12.56-.22.83-.02.05-.04.11-.06.16.04-.1-.03.06-.04.08-.05.12-.11.23-.17.34-.14.25-.27.46-.4.61-.15.19-.32.37-.49.53-.03.04-.07.07-.11.1-.18.16.06-.04-.05.05-.11.08-.22.17-.33.24-.45.3-.74.42-1.27.55-.42.11-.83.12-1.35.08-.25-.02.07.02-.07,0-.06-.01-.13-.02-.19-.04-.12-.03-.25-.06-.37-.09-.25-.07-.45-.15-.6-.23-.2-.1-.39-.22-.58-.35-.05-.04-.1-.07-.15-.11-.02-.02-.15-.12-.05-.04-.1-.09-.21-.18-.31-.28-.38-.38-.59-.67-.83-1.16-.21-.42-.36-.94-.43-1.41-.02-.18-.04-.51-.03-.75,0-.12.01-.24.02-.36,0-.03.01-.16,0,0,0-.07.02-.14.03-.21.04-.22.09-.44.16-.65.03-.1.06-.2.1-.29.07-.22-.06.14.03-.07.03-.06.05-.13.08-.19.09-.18.19-.36.3-.54.03-.05.06-.09.09-.14.02-.03.11-.15.02-.03.07-.09.14-.18.21-.26.14-.17.3-.33.46-.47.03-.03.06-.06.1-.09-.11.09,0,0,.03-.02.1-.07.19-.14.3-.21.17-.11.34-.2.51-.29.19-.1-.14.05.06-.03.04-.02.08-.03.12-.05.11-.04.23-.08.34-.12.2-.06.41-.11.62-.14-.14.02-.02,0,0,0,.07,0,.14-.01.2-.02.11,0,.23-.01.34,0,.11,0,.23,0,.34.02.04,0,.09.01.13.02-.15-.02,0,0,.04,0,.23.04.46.1.68.17.1.04.21.08.31.12.2.08-.08-.04.03.02.07.03.14.07.21.11.21.12.41.25.61.39.03.03.07.05.1.08-.13-.1.04.04.05.05.1.09.19.18.29.28.07.08.15.16.22.25.03.04.07.09.1.13.02.03.04.05.06.08q-.05-.07,0,0c.13.2.26.4.36.61.05.11.11.23.16.34-.06-.14,0,0,.01.04.02.07.04.13.07.2.08.25.14.5.18.75,0,.06.02.12.02.18-.02-.17,0,.06,0,.08.02.14.02.28.02.43,0,.41.34.81.74.79s.74-.35.74-.79c-.01-2.25-1.24-4.4-3.17-5.35-2.01-.99-4.37-.65-6.05.9-1.68,1.54-2.33,4.19-1.57,6.41.84,2.47,3.15,4.16,5.63,3.95,1.34-.12,2.62-.73,3.57-1.75,1.02-1.11,1.58-2.61,1.59-4.16,0-.41-.34-.81-.74-.79-.41.02-.74.35-.74.79Z"/><path class="cls-2" d="m141.35,149.37c-1.27.05-2.55,0-3.82,0h-8.48c-.07,0-.14,0-.21,0-.11.01-.02-.03,0,.02,0,0-.02,0-.03,0-.05-.02-.04,0,.03.03,0,0-.15-.1,0,.02-.03-.03-.06-.06-.09-.09.11.15.02,0,.01,0,0,.02.02.04.03.06,0-.02,0-.04-.01-.07.07.02,0,.1.01.07v-.06c.01-.25,0-.5,0-.74,0-.5-.02-1.01.02-1.52,0-.05.03-.35.01-.19.01-.09.03-.19.04-.28.03-.21.08-.42.14-.62.05-.19.11-.38.18-.57,0-.02.06-.16.02-.07s.02-.05.03-.07c.04-.11.09-.21.14-.32.08-.17.18-.35.28-.51.04-.08.09-.15.14-.23.02-.04.05-.07.07-.11,0-.01.14-.19.04-.06.23-.32.49-.61.77-.87.06-.06.13-.12.2-.18.01-.02.12-.11.05-.05-.08.07.08-.07.08-.06.16-.12.32-.24.49-.34.15-.09.3-.18.46-.26.04-.02.08-.04.12-.06,0,0,.19-.09.09-.04-.08.04.04-.02.06-.03.05-.02.1-.04.15-.06.38-.14.76-.24,1.16-.32.03,0,.14-.02,0,0,.04,0,.09-.01.13-.02.09-.01.18-.02.27-.02.13,0,.25-.01.38-.01h1.36c.09,0,.18,0,.27,0,.1,0,.2.01.31.02.06,0,.13.01.19.02.13.01,0,0,.06.01.43.07.85.18,1.25.35.04.02.09.04.14.06-.11-.05,0,0,.02.01.09.04.18.08.26.13.19.11.38.22.57.34.09.06.18.13.27.19.04.03.08.06.12.09.11.08-.13-.12.05.04.16.15.32.3.48.46.13.14.27.29.38.45.03.04.06.08.09.12-.07-.09,0,0,.01.02.07.11.14.21.21.32-.02-.2-.05-.4-.07-.61-.34,1.07-.41,2.17-.41,3.29,0,.75,0,1.49,0,2.23,0,.93.63,1.57,1.47,1.67.38.04.75-.39.74-.79-.02-.47-.32-.74-.74-.79.02,0,.04,0,.06,0q-.08-.03,0,0s-.04-.02-.05-.04c.05.05.06.05.02.02l-.02-.03c.04.07.05.07,0,0,0,.02.01.04.02.06-.02-.08-.02-.09-.02-.03,0,.09,0-.03,0-.06v-2.77c0-.35.01-.76.05-1.04.04-.33.11-.65.2-.97.05-.18.13-.37.13-.57,0-.26-.13-.45-.27-.65-.64-.94-1.45-1.73-2.41-2.27-1.01-.57-2.15-.87-3.29-.88h-1.45c-1.94,0-3.84.87-5.16,2.41-.68.8-1.21,1.75-1.52,2.78-.25.81-.33,1.66-.33,2.52v1.05c0,.3-.02.6.05.9.18.75.84,1.14,1.53,1.14h12.46c.38-.02.76-.35.74-.79-.02-.4-.33-.79-.74-.78Z"/><path class="cls-3" d="m156.8,146.4v1.92c0,.31,0,.62,0,.94v.06s-.01.13,0,.04c.01-.1-.01.03-.02.03,0-.02.01-.04.02-.06,0,.02-.02.04-.03.06-.03-.01.11-.06,0-.03-.07.02.02.02.02-.02,0,0-.1.08-.03.02.08-.05-.03.03-.03,0,0,0,.11,0,0,0-.67-.03-1.35,0-2.02,0h-12.72c-.2,0-.4,0-.6,0h-.05c.08,0,.03-.01.03,0,0,0-.02,0-.03-.01.02.01.04.02.05.03,0,0-.12-.05-.03-.02.09.04-.09-.03,0,0,.07.02-.03.02-.01-.03,0,.03.05.1,0,.03-.04-.06,0,.13,0-.04v-.06c0-.31,0-.62,0-.94,0-.64,0-1.28,0-1.92,0-.78.11-1.47.36-2.23.02-.07.04-.14.07-.21.01-.05.03-.09.05-.14,0,.02-.04.1,0,.02.06-.15.12-.29.19-.43.13-.27.28-.53.44-.78.04-.06.08-.12.12-.18.02-.03.15-.21.07-.1.09-.12.19-.24.29-.36.19-.23.39-.44.61-.64.05-.05.1-.09.16-.14.03-.03.16-.13.06-.06.13-.1.26-.2.39-.29.24-.17.49-.32.74-.45.06-.03.12-.06.19-.09.03-.02.06-.03.09-.05-.01,0-.1.04-.01.01.15-.06.3-.13.46-.18.28-.09.56-.17.85-.23.07-.02.14-.03.21-.04.14-.03-.05,0,.09-.01.16-.02.31-.03.47-.04.13,0,.27-.01.4-.01h2.9c.13,0,.26,0,.39.01.14,0,.29.02.43.04.03,0,.07.01.11.02-.01,0-.11-.02-.02,0,.09.02.19.03.28.05.29.06.57.14.85.24.13.05.26.1.39.15.13.05-.04-.03.08.04.07.04.15.07.22.11.27.14.53.29.77.47.11.08.23.16.33.25.07.05,0,0-.01-.01.02.02.05.05.08.07.06.05.12.11.18.16.22.2.43.43.63.66.09.11.18.22.27.33-.07-.1.03.04.05.07.05.07.09.14.14.21.17.26.32.54.45.81.06.13.12.26.18.4.03.08,0,0,0-.02.01.04.02.07.04.11.03.08.06.16.08.24.25.76.36,1.44.36,2.23,0,.41.34.81.74.79s.74-.35.74-.79c-.02-3-1.59-5.85-4.09-7.24-1.11-.63-2.35-.95-3.61-.95h-2.01c-.79,0-1.57-.01-2.36.13-1.3.23-2.52.86-3.53,1.74-1.02.88-1.78,2.04-2.26,3.33-.42,1.1-.53,2.27-.53,3.45v2.35c0,.99.66,1.73,1.59,1.74.88,0,1.75,0,2.63,0h12.54c.9,0,1.61-.67,1.63-1.65.02-.74,0-1.49,0-2.23v-.67c0-.41-.34-.81-.74-.79-.4.01-.74.34-.74.78Z"/><text class="cls-8" transform="translate(90.44 104.81)"><tspan x="0" y="0">Społeczność</tspan></text><text class="cls-6" transform="translate(84.8 173.76)"><tspan x="0" y="0">Zanurz się w świecie nas</tspan><tspan class="cls-4" x="114.94" y="0">z</tspan><tspan x="120" y="0">ej </tspan><tspan x="-.63" y="13.05">społeczności I</tspan><tspan class="cls-5" x="64.73" y="13.05">T</tspan><tspan x="70.04" y="13.05">, eksplorując </tspan><tspan class="cls-11" x="-11.59" y="26.11">w</tspan><tspan x="-3.91" y="26.11">artości</tspan><tspan class="cls-1" x="27.83" y="26.11">ow</tspan><tspan x="41.44" y="26.11">e kursy dostos</tspan><tspan class="cls-1" x="109.03" y="26.11">o</tspan><tspan class="cls-11" x="114.9" y="26.11">w</tspan><tspan x="122.58" y="26.11">ane </tspan><tspan x="19.68" y="39.16">do </tspan><tspan class="cls-13" x="34.34" y="39.16">T</tspan><tspan class="cls-12" x="39.54" y="39.16">w</tspan><tspan x="47.28" y="39.16">oich potr</tspan><tspan class="cls-9" x="89.51" y="39.16">z</tspan><tspan x="94.56" y="39.16">eb.</tspan></text><text class="cls-7" transform="translate(84.8 173.76)"><tspan x="0" y="0">Zanurz się w świecie nas</tspan><tspan class="cls-4" x="114.94" y="0">z</tspan><tspan x="120" y="0">ej </tspan><tspan x="-.63" y="13.05">społeczności I</tspan><tspan class="cls-5" x="64.73" y="13.05">T</tspan><tspan x="70.04" y="13.05">, eksplorując </tspan><tspan class="cls-11" x="-11.59" y="26.11">w</tspan><tspan x="-3.91" y="26.11">artości</tspan><tspan class="cls-1" x="27.83" y="26.11">ow</tspan><tspan x="41.44" y="26.11">e kursy dostos</tspan><tspan class="cls-1" x="109.03" y="26.11">o</tspan><tspan class="cls-11" x="114.9" y="26.11">w</tspan><tspan x="122.58" y="26.11">ane </tspan><tspan x="19.68" y="39.16">do </tspan><tspan class="cls-13" x="34.34" y="39.16">T</tspan><tspan class="cls-12" x="39.54" y="39.16">w</tspan><tspan x="47.28" y="39.16">oich potr</tspan><tspan class="cls-9" x="89.51" y="39.16">z</tspan><tspan x="94.56" y="39.16">eb.</tspan></text></svg>