<?xml version="1.0" encoding="UTF-8"?><svg id="Layer_4" xmlns="http://www.w3.org/2000/svg" xmlns:xlink="http://www.w3.org/1999/xlink" viewBox="0 0 1000 1000"><defs><style>.cls-1,.cls-2,.cls-3,.cls-4,.cls-5,.cls-6,.cls-7{fill:none;}.cls-2{stroke:#cecccb;stroke-width:3px;}.cls-2,.cls-4,.cls-5,.cls-6{stroke-miterlimit:10;}.cls-3{clip-path:url(#clippath-1);}.cls-8{fill:#1d1d1b;}.cls-4{stroke:#006776;stroke-width:4.69px;}.cls-5{stroke:#1d1d1b;}.cls-5,.cls-6{stroke-width:4.69px;}.cls-6{stroke:#000;}.cls-7{clip-path:url(#clippath);}</style><clipPath id="clippath"><ellipse class="cls-1" cx="521.25" cy="503.75" rx="257.9" ry="259.23"/></clipPath><clipPath id="clippath-1"><ellipse class="cls-1" cx="521.25" cy="503.75" rx="257.9" ry="259.23"/></clipPath></defs><path class="cls-8" d="m407.4,725.3c-.3-1.6-.79-3.21-1.78-4.52-1-1.25-2.29-2.22-3.58-3.16-2.25-1.53-4.66-2.92-7.31-3.56-2.9-.58-5.98-.36-8.77.6-1.96,1.05-3.07,2.12-4.54,3.83-.96,1.44-1.61,3.05-2.25,4.66-1.24,1.68-2.04,3.85-2.54,6.82-.42,1.97-.7,3.29-.98,4.67-.29,1.55-.36,3.21.32,4.67.86,1.73,2.98,2.07,4.65,2.62,1.24.43,2.5.84,3.59,1.59.15.09.46.33.59.43,5.4,4.75,4.59,7.95,12.88,4.42,2.32-.94,4.78-1.91,6.37-3.95,3.99-5.39,4.25-12.7,3.38-19.12Zm-4.9,13.57c-1.26,1.82-2.79,2.36-5.52,3.61-2.99,1.12-3.26,1.61-5.25,1.64-1.69-.09-2.8-2.55-6.13-4.68-2.55-1.71-7.76-1.81-8.37-2.68-.14-.38-.12-.08-.07-1.01.2-1.57.42-3.13.64-4.7.07-.69.14-1.29.23-1.97.02-.15.04-.31.07-.46.02-.09.05-.2.03-.09.01-.06.02-.13.03-.19.01-.08-.04.1.01-.09.02-.08.06-.16.08-.24,0,0,0,0,0-.01,0-.01,0-.03,0-.04.04-.2.07-.41.12-.61.47-1.52,1.47-3.1,2.42-4.66.08-.08.16-.16.24-.24.05-.08.1-.16.17-.24-.02.03.1-.13.13-.17.05-.06.09-.14.15-.19.04-.05.06-.05.05-.04,0-.01.02-.02.02-.03.03-.03.06-.07.09-.1.13-.18.27-.35.41-.51.05-.05.1-.12.15-.16.08-.07.08-.06.01.01.03-.04.06-.08.11-.11.04-.03.06-.05.08-.07.12-.12.24-.24.35-.35.39-.42.83-.79,1.26-1.02-.03.02-.07.03-.1.04.09-.06.18-.11.23-.13.15-.11.59-.33,1.02-.52.1-.06.21-.12.32-.15.22-.1.4-.18.51-.22.05-.02.1-.05.15-.07.3-.15.56-.11.88-.12.01,0,.02,0,.04,0,.14,0,.28,0,.41,0,2.08-.15,4.2.11,6.21.59,3.17,1.05,8.14,4.36,10.42,7.47.56,1.32,1.21,8.97-1.58,12.53Z"/><path class="cls-4" d="m816.43,390.99s-.08.15-.1.28c-4.11,4.46-10.69,4.84-14.58,1.54-2.99-2.54-4.11-7.01-2.74-11.19,1.39-2.03.58-4.58-1.03-5.32-1.32-.61-3.24-.03-4.27,1.58-4.93,4.81-12.87,4.89-17.88.19-5.03-4.71-5.45-12.67-.95-17.9,1.65-.82,2.1-2.87,1.24-4.12-.86-1.24-2.9-1.55-4.26-.33-7.22,2-14.25-1.18-16.47-6.15-2.74-6.13,1.49-15.77,11.03-18.12,1.5-.32,2.49-1.76,2.26-3.21-.24-1.54-1.77-2.63-3.36-2.34-.42-.09-7.53-1.76-9.55-7.68-1.93-5.67,1.52-13.09,8.85-16.14-7.48-6.07-15.67-11.5-24.53-16.14-71.86-37.66-160.64-9.94-198.3,61.91-37.66,71.86-9.94,160.64,61.91,198.3,71.86,37.66,160.64,9.94,198.3-61.91,10.53-20.09,14.26-40.87,14.26-40.87,4.58-26.33.76-52.38.18-52.38Z"/><path class="cls-6" d="m817.71,499.65c0,92.04-41.41,174.42-106.62,229.5"/><path class="cls-6" d="m221.6,551.69c-2.95-16.9-4.49-34.29-4.49-52.04,0-165.85,134.45-300.3,300.3-300.3,53.37,0,103.49,13.92,146.92,38.33"/><path class="cls-6" d="m711.09,729.15c-52.29,44.17-119.88,70.8-193.69,70.8-39.77,0-77.73-7.73-112.47-21.77"/><path class="cls-8" d="m260.41,599.5c-2.51-1.69-5.21-3.04-7.98-4.24-4.62-2.28-9.72-3.71-14.9-3.69-2.21,0-4.37.56-6.49,1.15-1.03.16-2.06.33-3.07.63-.7.19-1.35.52-2.03.78-.53.14-1.05.34-1.5.67-.72.56-1.53,1.04-2.26,1.6-4.88,2.15-6.3,8.23-7.23,13.06-.73,5.72-2.47,10.85,3.15,14.71,3.02,2.77,7.14,3.26,10.86,4.59,1.88.64,3.62,1.63,5.51,2.25,2.29.69,4.69.94,7.08,1.03,6.41.09,11.7-2.63,15.65-7.63,2.82-3.07,5.19-6.6,6.24-10.68.65-2.13,1.56-4.25,1.51-6.52.07-3.24-1.81-6.07-4.54-7.71Zm-.48,12.74c-.19.44-.54,1.24-.73,1.53-.11.18-.21.37-.32.55.18-.28.25-.31-.08.15,0,0-.01.02-.02.03,0,.01-.02.03-.03.04,0-.01.01-.03.02-.04-1.92,2.78-4.15,5.4-6.64,7.69-1.06.82-2.21,1.54-3.43,2.1-2.18.86-2.5.93-4.33,1.24-3.06.45-6.23.23-9.24-.47-1.78-.56-3.44-1.43-5.21-2.01-3.03-1.04-5.3-1.35-7.54-2.18-1.72-.71-3.28-1.77-4.73-2.93-.76-.68-.9-.93-1.01-1.14-.03-.05-.05-.11-.07-.17,0,0,0,0,0,0,0,0,0,0,0,0,.01-.73.07-2.17.29-4.52.24-2.73.42-4.1.95-6.05,0,.07,0,.14,0,.22,0-.1,0-.2.01-.3.17-.61.37-1.28.62-2.07.01-.04.03-.07.04-.11.15-.31.3-.62.45-.92.32-.61.66-1.25,1-1.86.64-.86,1.42-1.67,2.34-2.25.38-.25.78-.45,1.19-.63.34-.19.71-.34,1.06-.44.29-.08.57-.2.86-.3.36-.12.76-.16,1.13-.23.4-.07.8-.12,1.19-.2.22-.04.43-.07.65-.09,2.46-.51,4.91-1.03,7.36-1.56.86.04,1.71.14,2.56.32,4.62.76,9.88,3.23,14.58,6.07,3.42,2.01,6.62,3.68,8.51,5.92-.46,1.54-.95,3.08-1.46,4.6Z"/><path class="cls-8" d="m258.79,614.5c.03-.06.07-.12.1-.18-.03.05-.07.11-.11.18h0Z"/><path class="cls-8" d="m295.95,748.23c-1.39-6.26-5.93-8.84-12.02-9.18-3.17-.35-6.35.19-9.46.76-1.83.3-3.87.54-5.22,1.84-.14.04-.28.09-.4.15-.2.14-.38.3-.56.46-.12.08-.24.16-.35.25-.36.23-.71.47-1.05.72-1.14.96-2.08,2.17-2.8,3.49-.78.81-1.46,1.72-1.97,2.76-1.26,2.69-1.82,5.99-.81,8.84.79,1.8,2.43,3.02,3.92,4.23,1.97,1.43,4.04,2.8,6.44,3.35,2.57.66,5.25.51,7.85.98,2.35.51,4.67,1.24,7.08,1.32,4.44.1,9.32-1.66,10.27-6.5.94-4.45,0-9.09-.9-13.47Zm-3.58,12.23c-2.74,1.42-4.24,1.67-7.66,1.55-2.14-.09-4.24-.69-6.38-.7-2.33.08-6.94.23-8.1-.25-2.74-.86-5.94-2.43-7.69-4.4-.1-.39-.14-.72-.15-1.07.13-2.68.97-4.72,2.17-7.06.08-.16.16-.31.24-.46.42-.38.8-.8,1.16-1.22.05-.07.09-.14.13-.2.36-.48.73-.94,1.17-1.35.47-.44.97-.84,1.47-1.23,0,0,.01,0,.02,0,0,0,.02-.01.05-.03.05-.03.1-.04.15-.06.11-.06.22-.15.33-.22.12-.07.25-.15.38-.21.04-.02.09-.03.13-.04.39-.25.82-.42,1.31-.48,3.17-.19,6.37-.06,9.54.16,4.95.46,10.54,2.69,11.74,5.57.7,1.23,1.05,3.54,1.45,7.63.04,2.7.58,2.49-1.47,4.08Z"/><path class="cls-8" d="m308.57,665.94c-.77-2.74-1.49-5.7-3.98-7.4-2.71-2.1-6.59-3.07-9.9-1.96-3.74,1.32-6.14,4.81-8.48,7.82-.2.34-.37.69-.53,1.05-.61.86-1.18,1.75-1.74,2.64-2.96,4.59.35,9.54,3.31,13.17,1.42,1.54,2.57,3.31,4.06,4.78,1.57,1.41,3.48,2.41,5.46,3.13,6.18,2.6,10.75-4.76,12.09-9.87.98-4.4,1.12-9.04-.29-13.37Zm-4.45,14.24c-1.07,1.58-1.49,2.44-3.3,3.51-2.38,1.25-4.83.22-7.8-1.17-1.87-1.01-2.44-2.12-4.36-3.77-1.25-1.1-2.37-2.35-3.36-3.69-.82-1.11-1.64-2.36-1.47-3.64.06-.85.36-1.65.73-2.41,0,.02-.01.05-.02.07.04-.09.08-.17.13-.26.14-.28.28-.59.43-.88.16-.29.38-.61.59-.86.13-.15-.04.09.06-.06.06-.08.13-.14.19-.21,1.16-1.9,2.97-3.11,4.5-4.38,2.28-1.7,3.94-2.43,6.68-2.2,2.2.25,5.52,1.88,6.82,3.51.95,1.12.64.71,1.07,1.49.01.03.02.04.03.06.06.18.12.37.17.56.54,2.19,1.18,5.01,1.12,4.93.05.28.07.57.1.85-.23,3.43.07,4.63-2.3,8.54Z"/><path class="cls-5" d="m220.99,553.28c-6.79,7.26-12.94,15.33-18.31,24.16-11.78,19.39-16.82,39.88-16.82,39.88-6.24,25.99-4.08,52.23-3.5,52.26.04,0,.09-.14.12-.28,4.39-4.19,10.97-4.15,14.64-.61,2.82,2.72,3.65,7.26,2.03,11.34-1.52,1.93-.87,4.54.7,5.38,1.28.69,3.23.23,4.36-1.31,5.22-4.49,13.15-4.06,17.86.94,4.72,5.02,4.64,12.99-.19,17.92-1.7.72-2.28,2.73-1.49,4.03.78,1.29,2.8,1.73,4.23.6,7.33-1.54,14.15,2.08,16.05,7.18,2.35,6.29-2.49,15.64-12.15,17.39-1.52.22-2.59,1.6-2.46,3.06.14,1.55,1.59,2.74,3.21,2.55.42.12,7.4,2.24,9.04,8.27,1.57,5.78-2.35,12.97-9.85,15.55,7.08,6.53,14.91,12.47,23.46,17.66,69.33,42.14,159.68,20.1,201.82-49.23,42.14-69.33,20.1-159.68-49.23-201.82-60.49-36.77-137-24.67-183.51,25.07"/><g class="cls-7"><g class="cls-3"><ellipse class="cls-2" cx="521.25" cy="503.75" rx="257.9" ry="259.23"/></g><image width="5000" height="3348" transform="translate(120.11 247.55) scale(.17)" xlink:href="../../../../../../../../../../../../Users/mary/Desktop/12021.png"/><ellipse class="cls-2" cx="521.25" cy="503.75" rx="257.9" ry="259.23"/></g></svg>