<?xml version="1.0" encoding="UTF-8"?><svg id="Layer_4" xmlns="http://www.w3.org/2000/svg" viewBox="0 0 300 300"><defs><style>.cls-1{fill:#046878;stroke-width:.22px;}.cls-1,.cls-2,.cls-3{stroke-miterlimit:10;}.cls-1,.cls-3{fill-rule:evenodd;stroke:#fff;}.cls-4,.cls-3{fill:#010101;}.cls-5{letter-spacing:0em;}.cls-6{letter-spacing:-.06em;}.cls-7,.cls-8{fill:#1d1d1b;}.cls-7,.cls-9{font-family:AlwynNewRounded-Light, 'Alwyn New Rounded';font-size:10.88px;font-weight:300;}.cls-8{font-family:AlwynNewRounded-Medium, 'Alwyn New Rounded';font-size:20.02px;font-weight:500;}.cls-2{fill:none;stroke:#1d1d1b;stroke-width:1.18px;}.cls-3{stroke-width:.33px;}.cls-10{letter-spacing:0em;}.cls-11{letter-spacing:0em;}.cls-12{letter-spacing:-.01em;}</style></defs><path class="cls-2" d="m264.81,130.13s-.06.12-.08.22c-3.26,3.54-8.48,3.84-11.56,1.22-2.37-2.01-3.26-5.56-2.17-8.88,1.11-1.61.46-3.63-.82-4.22-1.05-.48-2.57-.02-3.39,1.26-3.91,3.81-10.21,3.88-14.19.15-3.99-3.74-4.33-10.05-.75-14.2,1.31-.65,1.67-2.27.98-3.27-.68-.99-2.3-1.23-3.38-.26-5.73,1.59-11.31-.94-13.07-4.88-2.18-4.87,1.18-12.51,8.75-14.38,1.19-.25,1.97-1.4,1.79-2.55-.19-1.22-1.4-2.09-2.67-1.85-.34-.07-5.97-1.4-7.58-6.09-1.53-4.49,1.21-10.39,7.02-12.81-5.93-4.82-12.43-9.12-19.46-12.81-57-29.88-127.44-7.89-157.31,49.12-29.88,57-7.89,127.44,49.12,157.31,57,29.88,127.44,7.89,157.31-49.12,8.36-15.94,11.31-32.42,11.31-32.42,3.64-20.89.61-41.56.15-41.55Z"/><path class="cls-1" d="m158.55,135.94l-4.67,3.55c-.77-.54-1.82-.54-2.6.07-.16.13-.3.27-.42.43l-5.1-1.71c.02-1.11-.82-2.08-1.95-2.2-1.2-.13-2.27.74-2.4,1.94-.03.29,0,.56.07.82l-4.52,3c-.72-.57-1.76-.65-2.57-.11-1,.67-1.28,2.02-.61,3.03.67,1,2.02,1.28,3.03.61.81-.54,1.15-1.53.9-2.41l4.52-3c.31.25.7.42,1.13.46.8.08,1.54-.27,1.99-.88l5.1,1.71c0,.48.14.96.46,1.37.74.95,2.11,1.12,3.06.38.76-.59,1.02-1.59.72-2.45l4.67-3.55c.78.54,1.84.53,2.62-.09.94-.75,1.09-2.13.34-3.07-.75-.94-2.13-1.09-3.07-.34-.74.6-.99,1.58-.69,2.43Zm-23.42,6.9c.39-.26.92-.15,1.17.24.26.39.15.92-.24,1.18-.39.26-.92.15-1.18-.24-.26-.39-.15-.92.24-1.17Zm18.16-2.09c.29.37.22.9-.15,1.19-.37.29-.9.22-1.19-.15s-.22-.9.15-1.19c.37-.29.9-.22,1.19.15Zm-9.62-3.35c.47.05.8.47.75.93-.05.47-.47.8-.93.75-.47-.05-.8-.47-.75-.93.05-.47.47-.8.93-.75Zm17.59-2.72c.29.37.23.9-.13,1.19-.37.29-.9.23-1.19-.13-.29-.36-.23-.9.13-1.19.36-.29.9-.23,1.19.13Z"/><circle class="cls-4" cx="134.09" cy="152.4" r=".67"/><path class="cls-3" d="m165.46,149.06v-20.03c0-1.11-.9-2-2-2h-1.34c-.37,0-.67.3-.67.67s.3.67.67.67h1.34c.37,0,.67.3.67.67v20.03h-32.04v-20.03c0-.37.3-.67.67-.67h9.01c.05.06.1.12.15.18.31.31.74.49,1.18.49.18,0,.33.15.33.33,0,.92.75,1.67,1.67,1.67h6.01c.92,0,1.67-.75,1.67-1.67,0-.18.15-.33.33-.33.44,0,.87-.18,1.18-.49.06-.06.11-.12.15-.18h5.67c.37,0,.67-.3.67-.67s-.3-.67-.67-.67h-5.34v-1c0-.44-.18-.87-.49-1.18-.31-.31-.74-.49-1.18-.49h-10.01c-.44,0-.87.18-1.18.49s-.49.74-.49,1.18v1h-8.68c-1.11,0-2,.9-2,2v20.03c-1.11,0-2,.9-2,2s.9,2,2,2h1.34c.37,0,.67-.3.67-.67s-.3-.67-.67-.67h-1.34c-.37,0-.67-.3-.67-.67s.3-.67.67-.67h34.71c.37,0,.67.3.67.67s-.3.67-.67.67h-29.37c-.37,0-.67.3-.67.67s.3.67.67.67h4.47l-2.45,9.17c-.05.2-.01.41.12.58.13.16.32.26.53.26h2.67c.3,0,.57-.2.64-.5l.76-2.84h10.54l.76,2.84c.08.29.34.5.64.5h2.67c.21,0,.4-.1.53-.26.13-.16.17-.38.12-.58l-2.45-9.17h9.81c1.11,0,2-.9,2-2s-.9-2-2-2Zm-11.19,4.01h-1.29l2.31,8.68h1.29l-2.31-8.68Zm-11.04,0h-1.29l-2.31,8.68h1.29l2.31-8.68Zm9.79,5.34l-.36-1.34h-9.12l-.36,1.34h9.83Zm-.71-2.67l-.71-2.67h-6.99l-.71,2.67h8.41Zm.8-28.04c-.92,0-1.67.75-1.67,1.67,0,.18-.15.33-.33.33h-6.01c-.18,0-.33-.15-.33-.33,0-.92-.75-1.67-1.67-1.67-.09,0-.17-.04-.24-.1-.06-.06-.1-.15-.1-.24v-1.34c0-.09.04-.17.1-.24.06-.06.15-.1.24-.1h10.01c.09,0,.17.04.24.1.06.06.1.15.1.24v1.34c0,.09-.04.17-.1.24-.06.06-.15.1-.24.1Z"/><text class="cls-8" transform="translate(72.05 97.47)"><tspan x="0" y="0">Prakty</tspan><tspan class="cls-12" x="57.22" y="0">k</tspan><tspan x="66.99" y="0">a oparta </tspan><tspan x="12.31" y="18.28">na projektach</tspan></text><text class="cls-7" transform="translate(66.81 177.87)"><tspan x="0" y="0">Doświadcz autentycznych wyz</tspan><tspan class="cls-11" x="143.74" y="0">w</tspan><tspan x="151.42" y="0">ań </tspan><tspan x="-5.86" y="13.05">dzięki praktyce opartej na projektach </tspan><tspan x=".95" y="26.11">w naszych kursach I</tspan><tspan class="cls-6" x="94.83" y="26.11">T</tspan><tspan x="100.15" y="26.11">, gdzie nau</tspan><tspan class="cls-10" x="151.3" y="26.11">k</tspan><tspan x="156.52" y="26.11">a </tspan><tspan x="14.68" y="39.16">idzie w par</tspan><tspan class="cls-5" x="65.56" y="39.16">z</tspan><tspan x="70.62" y="39.16">e z praktycznym </tspan><tspan x="54.72" y="52.22">działaniem.</tspan></text><text class="cls-9" transform="translate(66.81 177.87)"><tspan x="0" y="0">Doświadcz autentycznych wyz</tspan><tspan class="cls-11" x="143.74" y="0">w</tspan><tspan x="151.42" y="0">ań </tspan><tspan x="-5.86" y="13.05">dzięki praktyce opartej na projektach </tspan><tspan x=".95" y="26.11">w naszych kursach I</tspan><tspan class="cls-6" x="94.83" y="26.11">T</tspan><tspan x="100.15" y="26.11">, gdzie nau</tspan><tspan class="cls-10" x="151.3" y="26.11">k</tspan><tspan x="156.52" y="26.11">a </tspan><tspan x="14.68" y="39.16">idzie w par</tspan><tspan class="cls-5" x="65.56" y="39.16">z</tspan><tspan x="70.62" y="39.16">e z praktycznym </tspan><tspan x="54.72" y="52.22">działaniem.</tspan></text></svg>