<?xml version="1.0" encoding="UTF-8"?><svg id="Layer_5" xmlns="http://www.w3.org/2000/svg" xmlns:xlink="http://www.w3.org/1999/xlink" viewBox="0 0 800 1000"><defs><style>.cls-1,.cls-2,.cls-3,.cls-4,.cls-5,.cls-6,.cls-7{fill:none;}.cls-2{stroke-width:3px;}.cls-2,.cls-4,.cls-5{stroke:#006878;}.cls-2,.cls-4,.cls-5,.cls-6{stroke-miterlimit:10;}.cls-8,.cls-9{fill:#286878;}.cls-8,.cls-9,.cls-3,.cls-10{isolation:isolate;}.cls-8,.cls-9,.cls-10{font-family:AlwynNewRounded-Regular, 'Alwyn New Rounded';}.cls-8,.cls-10{font-size:50px;}.cls-9{font-size:70px;}.cls-11{fill:#006878;}.cls-12{letter-spacing:-.07em;}.cls-4{stroke-width:.75px;}.cls-13{letter-spacing:0em;}.cls-6{stroke:#000;}.cls-14{letter-spacing:0em;}.cls-7{clip-path:url(#clippath);}</style><clipPath id="clippath"><rect class="cls-1" x="205" y="384.36" width="390.01" height="319.04"/></clipPath></defs><g id="Doświadczenie_na_Twojej_tacy_" class="cls-3"><text class="cls-9" transform="translate(164.73 207.89)"><tspan x="0" y="0">Doświadc</tspan><tspan class="cls-13" x="291.41" y="0">z</tspan><tspan x="324.17" y="0">enie </tspan></text><text class="cls-10" transform="translate(164.73 270.89)"><tspan x="0" y="0">na </tspan><tspan class="cls-12" x="65.35" y="0">T</tspan><tspan class="cls-14" x="88.9" y="0">w</tspan><tspan x="125.3" y="0">ojej tacy!</tspan></text></g><g id="Konsultacja_CV" class="cls-3"><text class="cls-8" transform="translate(237.43 840.89)"><tspan x="0" y="0">Konsultacja CV</tspan></text></g><g id="Group_136"><g class="cls-7"><g id="Group_135"><path id="Path_434" class="cls-11" d="m367.03,630.19c-2.68-1.53-4.85-1.46-8.01-1.27-.8,0-1.41-.73-2.6-.77-2.19-.06-4.79.08-6.2,2.01-.33.51-.63,1.05-.88,1.61-.48.52-.88,1.11-1.2,1.74-.55,1.37-.41,2.89-.73,4.31-.54,2.26.14,5.26,2.62,6,1.26.41,2.61.08,3.88.41.83.21,3.34,1.18,4.85,1.58,1.73.55,3.56.68,5.35.38,1.36.08,2.71-.21,3.93-.83,2.2-1.36,3.03-3.96,3.24-6.42.56-3.52-1.13-7.02-4.24-8.76m2.58,7.75c-.03.78-.17,1.56-.42,2.31-.07.19-.16.37-.26.55-.02.03-.04.06-.05.08-1.24,1.7-2.27,1.95-4.64,2.04-1.14.22-2.31.26-3.47.13-1.82-.34-3.63-.77-5.41-1.3-1.31-.4-2.7-.49-4.06-.28-1.34.27-2.67-.52-3.07-1.83-.03-.86.01-1.73.13-2.58,0-.89.06-1.78.18-2.67.01-.03.02-.07.04-.1.04-.19.1-.38.18-.57.03-.06.06-.12.08-.18.01-.03.03-.06.04-.08h0s0,0,0,0v-.02c.09-.12.16-.25.25-.37s.15-.23.22-.34c.05-.07.11-.14.18-.21.61-.86,1.39-1.6,2.29-2.16.23-.08.47-.14.71-.17,1.4-.1,2.82.03,4.18.39.41.17.8.4,1.15.67.46.27.98.44,1.51.5,5.16.01,9.23,2.46,10.15,5.25.02.07.03.13.04.18.02.11.04.22.05.33,0,.14,0,.29,0,.43"/><path id="Path_435" class="cls-5" d="m367.03,630.19c-2.68-1.53-4.85-1.46-8.01-1.27-.8,0-1.41-.73-2.6-.77-2.19-.06-4.79.08-6.2,2.01-.33.51-.63,1.05-.88,1.61-.48.52-.88,1.11-1.2,1.74-.55,1.37-.41,2.89-.73,4.31-.54,2.26.14,5.26,2.62,6,1.26.41,2.61.08,3.88.41.83.21,3.34,1.18,4.85,1.58,1.73.55,3.56.68,5.35.38,1.36.08,2.71-.21,3.93-.83,2.2-1.36,3.03-3.96,3.24-6.42.56-3.52-1.13-7.01-4.24-8.76Zm2.58,7.75c-.03.78-.17,1.56-.42,2.31-.07.19-.16.37-.26.55-.02.03-.04.06-.05.08-1.24,1.7-2.27,1.95-4.64,2.04-1.14.22-2.31.26-3.47.13-1.82-.34-3.63-.77-5.41-1.3-1.31-.4-2.7-.49-4.06-.28-1.34.27-2.67-.52-3.07-1.83-.03-.86.01-1.73.13-2.58,0-.89.06-1.78.18-2.67.01-.03.02-.07.04-.1.04-.19.1-.38.18-.57.03-.06.06-.12.08-.18.01-.03.03-.06.04-.08h0s0,0,0,0v-.02c.09-.12.16-.25.25-.37s.15-.23.22-.34c.05-.07.11-.14.18-.21.61-.86,1.39-1.6,2.29-2.16.23-.08.47-.14.71-.17,1.4-.1,2.82.03,4.18.39.41.17.8.4,1.15.67.46.27.98.44,1.51.5,5.16.01,9.23,2.46,10.15,5.25.02.07.03.13.04.18.02.11.04.22.05.33,0,.15,0,.29,0,.43h0Z"/><path id="Path_436" class="cls-11" d="m403.05,670.88c-.14-.93-.49-1.82-1.02-2.6-.6-.69-1.29-1.3-2.06-1.82-1.27-.93-2.69-1.62-4.2-2.05-1.68-.33-3.42-.21-5.04.35-1.01.55-1.9,1.29-2.61,2.2-.53.84-.96,1.74-1.3,2.68-.79,1.17-1.29,2.52-1.46,3.92-.24,1.13-.4,1.89-.57,2.68-.22.89-.16,1.83.18,2.68.49,1,1.71,1.19,2.67,1.51.72.21,1.42.52,2.06.91.09.05.26.19.34.25,3.11,2.73,2.64,4.57,7.4,2.54,1.4-.42,2.66-1.2,3.66-2.27,2.29-3.1,2.44-7.3,1.94-10.99m-2.82,7.8c-.73,1.05-1.61,1.36-3.17,2.08-1.72.65-1.88.92-3.02.94-.97-.05-1.61-1.46-3.52-2.69-1.47-.98-4.46-1.04-4.81-1.54-.08-.22-.07-.04-.04-.58.11-.9.24-1.8.37-2.7.04-.4.08-.74.13-1.13.01-.09.02-.18.04-.26.01-.05.03-.11.01-.05,0-.04.01-.08.02-.11s-.02.06,0-.05c.01-.05.03-.09.05-.14h0v-.03c.02-.12.04-.23.07-.35.36-.94.83-1.84,1.39-2.68.04-.05.09-.09.14-.14.03-.04.06-.09.1-.14-.01.02.05-.08.07-.1.03-.04.05-.08.08-.11.03-.03.03-.03.03-.02v-.02s.06-.06.06-.06c.08-.1.15-.2.24-.29.03-.03.06-.07.09-.09.04-.04.05-.04,0,0,.01-.02.04-.05.06-.06.02-.02.03-.03.05-.04.07-.07.13-.14.2-.2.21-.23.45-.43.72-.59-.02,0-.04.02-.06.02.04-.03.09-.05.13-.08.19-.12.38-.22.58-.3.06-.04.12-.07.18-.08l.29-.13.09-.04c.16-.07.33-.09.51-.07h.26c1.2-.07,2.4.04,3.57.34,2.33.9,4.39,2.37,5.99,4.29.32.76.7,5.15-.91,7.2"/><path id="Path_437" class="cls-5" d="m403.05,670.88c-.14-.93-.49-1.82-1.02-2.6-.6-.69-1.29-1.3-2.06-1.82-1.27-.93-2.69-1.62-4.2-2.05-1.68-.33-3.42-.21-5.04.35-1.01.55-1.9,1.29-2.61,2.2-.53.84-.96,1.74-1.3,2.68-.79,1.17-1.29,2.52-1.46,3.92-.24,1.13-.4,1.89-.57,2.68-.22.89-.16,1.83.18,2.68.49,1,1.71,1.19,2.67,1.51.72.21,1.42.52,2.06.91.09.05.26.19.34.25,3.11,2.73,2.64,4.57,7.4,2.54,1.4-.42,2.66-1.2,3.66-2.27,2.29-3.1,2.44-7.3,1.94-10.99Zm-2.82,7.8c-.73,1.05-1.61,1.36-3.17,2.08-1.72.65-1.88.92-3.02.94-.97-.05-1.61-1.46-3.52-2.69-1.47-.98-4.46-1.04-4.81-1.54-.08-.22-.07-.04-.04-.58.11-.9.24-1.8.37-2.7.04-.4.08-.74.13-1.13.01-.09.02-.18.04-.26.01-.05.03-.11.01-.05,0-.04.01-.08.02-.11s-.02.06,0-.05c.01-.05.03-.09.05-.14h0v-.03c.02-.12.04-.23.07-.35.36-.94.83-1.84,1.39-2.68.04-.05.09-.09.14-.14.03-.04.06-.09.1-.14-.01.02.05-.08.07-.1.03-.04.05-.08.08-.11.03-.03.03-.03.03-.02v-.02s.06-.06.06-.06c.08-.1.15-.2.24-.29.03-.03.06-.07.09-.09.04-.04.05-.04,0,0,.01-.02.04-.05.06-.06.02-.02.03-.03.05-.04.07-.07.13-.14.2-.2.21-.23.45-.43.72-.59-.02,0-.04.02-.06.02.04-.03.09-.05.13-.08.19-.12.38-.22.58-.3.06-.04.12-.07.18-.08l.29-.13.09-.04c.16-.07.33-.09.51-.07h.26c1.2-.07,2.4.04,3.57.34,2.33.9,4.39,2.37,5.99,4.29.32.76.7,5.16-.91,7.2h0Z"/><path id="Path_438" class="cls-11" d="m389.45,569.09c-3.39-1.1-6.93.32-10.02,1.72-.45.22-.86.5-1.22.85-.71.43-1.38.93-1.99,1.5l-.14.13c-.41.29-.78.65-1.08,1.05-.12.12-.24.25-.36.38-.86.67-1.47,1.6-1.75,2.66-.67,2.32-1.07,4.95,0,7.2.46.93,1.15,1.96,2.29,1.99,2.89-.12,5.37-1.93,7.85-3.24,2.34-1.1,5.01-1.8,6.81-3.78,1.1-1.54,1.69-3.39,1.68-5.29.21-1.89.1-4.49-2.06-5.18m.46,4.37c0,.06-.01.12-.02.18,0,.18,0,.37-.03.55,0,.02,0,.04,0,.05,0,.03,0,.06-.02.08.01-.04.01-.04.01,0,0,.08-.02.16-.04.23-.03.15-.08.3-.14.45-.02.05-.04.1-.06.15.03-.09-.02.05-.03.07-.03.04-.03.04,0,.01,0,.02-.02.04-.03.06-.01.02-.03.05-.04.07-.03.08-.06.15-.1.22-.29.78-1.08,1.67-2.92,2.71-1.22.63-2.53,1.1-3.74,1.75-2.18,1.29-4.16,2.91-6.53,3.86-.54.28-1.17.32-1.75.12-.87-.69-1.39-1.73-1.41-2.84-.07-1.43.15-2.86.63-4.2.27-.46.58-.89.94-1.28.02-.03.04-.07.06-.1.17-.21.34-.4.54-.58.18-.18.41-.32.61-.49.23-.2.47-.38.73-.53.43-.29.89-.55,1.36-.77.19-.07.39-.13.59-.2.63-.36,1.33-.6,2.05-.7,1.26-.33,2.55-.57,3.85-.69.09-.01.18-.02.27-.02.13-.03.25-.06.38-.09.68-.12,1.37-.17,2.05-.15.64.02,1.26.17,1.84.43.26.11.48.29.65.51.03.04.05.08.07.12,0,0,.02.02.02.03.04.03.07.07.07.12.01.02.02.04.02.07h0v.02s.02.02.03.03c0,.01,0,.02,0,.03.01.03.03.06.03.09.02.1,0-.07.01.04,0,.04,0,.08,0,.11,0,.15.01.31,0,.47"/><path id="Path_439" class="cls-5" d="m389.45,569.09c-3.39-1.1-6.93.32-10.02,1.72-.45.22-.86.5-1.22.85-.71.43-1.38.93-1.99,1.5l-.14.13c-.41.29-.78.65-1.08,1.05-.12.12-.24.25-.36.38-.86.67-1.47,1.6-1.75,2.66-.67,2.32-1.07,4.95,0,7.2.46.93,1.15,1.96,2.29,1.99,2.89-.12,5.37-1.93,7.85-3.24,2.34-1.1,5.01-1.8,6.81-3.78,1.1-1.54,1.69-3.39,1.68-5.29.21-1.89.1-4.49-2.06-5.18Zm.46,4.37c0,.06-.01.12-.02.18,0,.18,0,.37-.03.55,0,.02,0,.04,0,.05,0,.03,0,.06-.02.08.01-.04.01-.04.01,0,0,.08-.02.16-.04.23-.03.15-.08.3-.14.45-.02.05-.04.1-.06.15.03-.09-.02.05-.03.07-.03.04-.03.04,0,.01,0,.02-.02.04-.03.06-.01.02-.03.05-.04.07-.03.08-.06.15-.1.22-.29.78-1.08,1.67-2.92,2.71-1.22.63-2.53,1.1-3.74,1.75-2.18,1.29-4.16,2.91-6.53,3.86-.54.28-1.17.32-1.75.12-.87-.69-1.39-1.73-1.41-2.84-.07-1.43.15-2.86.63-4.2.27-.46.58-.89.94-1.28.02-.03.04-.07.06-.1.17-.21.34-.4.54-.58.18-.18.41-.32.61-.49.23-.2.47-.38.73-.53.43-.29.89-.55,1.36-.77.19-.07.39-.13.59-.2.63-.36,1.33-.6,2.05-.7,1.26-.33,2.55-.57,3.85-.69.09-.01.18-.02.27-.02.13-.03.25-.06.38-.09.68-.12,1.37-.17,2.05-.15.64.02,1.26.17,1.84.43.26.11.48.29.65.51.03.04.05.08.07.12,0,0,.02.02.02.03.04.03.07.07.07.12.01.02.02.04.02.07h0v.02s.02.02.03.03c0,.01,0,.02,0,.03.01.03.03.06.03.09.02.1,0-.07.01.04,0,.04,0,.08,0,.11,0,.16.01.32,0,.47h0Z"/><path id="Path_440" class="cls-11" d="m424.4,604.32c-1.45-.95-2.98-1.77-4.58-2.43-2.65-1.36-5.58-2.08-8.56-2.12-1.27.05-2.52.27-3.73.66-.6.08-1.18.2-1.76.36-.4.11-.78.3-1.17.45-.31.07-.6.2-.86.38-.42.32-.88.6-1.3.92-2.81,1.23-3.62,4.73-4.15,7.5-.42,3.29-1.42,6.24,1.81,8.45,1.73,1.59,4.1,1.87,6.24,2.64,1.08.37,2.08.94,3.17,1.29,1.32.37,2.69.57,4.07.59,3.53.08,6.88-1.55,8.99-4.39,1.68-1.72,2.91-3.83,3.58-6.14.48-1.2.78-2.46.87-3.75,0-1.84-1-3.53-2.61-4.43m-.27,7.32c-.12.3-.26.59-.42.88l-.18.31c.1-.16.14-.18-.05.09v.02s-.03.02-.03.02v-.02c-1.09,1.61-2.37,3.09-3.8,4.42-.61.47-1.27.88-1.97,1.2-.79.36-1.63.6-2.49.71-1.77.24-3.57.15-5.31-.27-1.02-.32-1.98-.82-3-1.15-1.74-.6-3.04-.78-4.34-1.25-.98-.43-1.9-1-2.72-1.68-.24-.18-.43-.4-.58-.65-.01-.03-.03-.06-.04-.1h0c0-.43.04-1.25.17-2.61.06-1.17.25-2.34.55-3.48v.12c0-.06,0-.11,0-.17.1-.35.21-.74.36-1.19,0-.02.02-.04.02-.06.09-.18.18-.35.26-.53.18-.35.38-.72.58-1.07.37-.51.82-.95,1.35-1.29.22-.14.44-.26.68-.36.19-.11.4-.19.61-.25.17-.05.33-.12.49-.17.21-.06.43-.11.65-.13.23-.04.46-.07.69-.12.12-.03.25-.04.37-.05,1.41-.29,2.82-.59,4.23-.9.49.02.99.08,1.47.18,2.98.65,5.82,1.83,8.38,3.49,1.96,1.15,3.8,2.11,4.89,3.4-.27.89-.54,1.77-.84,2.65"/><path id="Path_441" class="cls-5" d="m424.4,604.32c-1.45-.95-2.98-1.77-4.58-2.43-2.65-1.36-5.58-2.08-8.56-2.12-1.27.05-2.52.27-3.73.66-.6.08-1.18.2-1.76.36-.4.11-.78.3-1.17.45-.31.07-.6.2-.86.38-.42.32-.88.6-1.3.92-2.81,1.23-3.62,4.73-4.15,7.5-.42,3.29-1.42,6.24,1.81,8.45,1.73,1.59,4.1,1.87,6.24,2.64,1.08.37,2.08.94,3.17,1.29,1.32.37,2.69.57,4.07.59,3.53.08,6.88-1.55,8.99-4.39,1.68-1.72,2.91-3.83,3.58-6.14.48-1.2.78-2.46.87-3.75,0-1.84-1-3.53-2.61-4.43Zm-.27,7.32c-.12.3-.26.59-.42.88l-.18.31c.1-.16.14-.18-.05.09v.02s-.03.02-.03.02v-.02c-1.09,1.61-2.37,3.09-3.8,4.42-.61.47-1.27.88-1.97,1.2-.79.36-1.63.6-2.49.71-1.77.24-3.57.15-5.31-.27-1.02-.32-1.98-.82-3-1.15-1.74-.6-3.04-.78-4.34-1.25-.98-.43-1.9-1-2.72-1.68-.24-.18-.43-.4-.58-.65-.01-.03-.03-.06-.04-.1h0c0-.43.04-1.25.17-2.61.06-1.17.25-2.34.55-3.48v.12c0-.06,0-.11,0-.17.1-.35.21-.74.36-1.19,0-.02.02-.04.02-.06.09-.18.18-.35.26-.53.18-.35.38-.72.58-1.07.37-.51.82-.95,1.35-1.29.22-.14.44-.26.68-.36.19-.11.4-.19.61-.25.17-.05.33-.12.49-.17.21-.06.43-.11.65-.13.23-.04.46-.07.69-.12.12-.03.25-.04.37-.05,1.41-.29,2.82-.59,4.23-.9.49.02.99.08,1.47.18,2.98.65,5.82,1.83,8.38,3.49,1.96,1.15,3.8,2.11,4.89,3.4-.26.9-.54,1.79-.83,2.66h0Z"/><path id="Path_442" class="cls-11" d="m423.47,612.94l.06-.1s-.04.06-.06.1h0Z"/><path id="Path_443" class="cls-5" d="m423.47,612.94l.06-.1s-.04.06-.06.1h0Z"/><path id="Path_444" class="cls-11" d="m440.39,645.14c-.8-3.6-3.4-5.08-6.91-5.27-1.82-.12-3.66.03-5.44.44-1.08.05-2.13.42-3,1.06-.08.02-.16.05-.23.09-.11.08-.22.17-.32.26-.07.05-.14.1-.2.14-.21.13-.41.27-.6.41-.65.56-1.2,1.24-1.61,2-.46.47-.84,1-1.13,1.59-.8,1.57-.97,3.39-.47,5.08.55.98,1.32,1.81,2.25,2.43,1.09.88,2.35,1.54,3.7,1.92,1.48.38,3.02.29,4.51.56,1.33.38,2.69.63,4.07.76,2.55.06,5.35-.95,5.9-3.73.54-2.56,0-5.22-.52-7.74m-2.06,7.03c-1.34.75-2.88,1.06-4.4.89-1.23-.05-2.43-.39-3.67-.4-1.55.13-3.11.08-4.65-.14-1.66-.47-3.18-1.33-4.42-2.53-.05-.2-.08-.41-.08-.61.1-1.43.53-2.82,1.25-4.06.05-.09.09-.18.14-.26.24-.22.46-.45.67-.7.03-.04.05-.08.08-.12.2-.28.43-.54.67-.77.27-.25.56-.48.85-.71h.01s.02-.02.03-.02c.03-.01.06-.02.09-.04.07-.03.12-.09.19-.12.07-.04.14-.08.22-.12.02,0,.05-.02.08-.02.23-.15.48-.24.75-.27,1.83-.09,3.66-.06,5.48.09,2.85.27,6.06,1.55,6.75,3.2.4.7.6,2.04.83,4.38.02,1.55.33,1.43-.84,2.35"/><path id="Path_445" class="cls-5" d="m440.39,645.14c-.8-3.6-3.4-5.08-6.91-5.27-1.82-.12-3.66.03-5.44.44-1.08.05-2.13.42-3,1.06-.08.02-.16.05-.23.09-.11.08-.22.17-.32.26-.07.05-.14.1-.2.14-.21.13-.41.27-.6.41-.65.56-1.2,1.24-1.61,2-.46.47-.84,1-1.13,1.59-.8,1.57-.97,3.39-.47,5.08.55.98,1.32,1.81,2.25,2.43,1.09.88,2.35,1.54,3.7,1.92,1.48.38,3.02.29,4.51.56,1.33.38,2.69.63,4.07.76,2.55.06,5.35-.95,5.9-3.73.53-2.55,0-5.22-.52-7.74Zm-2.06,7.03c-1.34.75-2.88,1.06-4.4.89-1.23-.05-2.43-.39-3.67-.4-1.55.13-3.11.08-4.65-.14-1.66-.47-3.18-1.33-4.42-2.53-.05-.2-.08-.41-.08-.61.1-1.43.53-2.82,1.25-4.06.05-.09.09-.18.14-.26.24-.22.46-.45.67-.7.03-.04.05-.08.08-.12.2-.28.43-.54.67-.77.27-.25.56-.48.85-.71h.01s.02-.02.03-.02c.03-.01.06-.02.09-.04.07-.03.12-.09.19-.12.07-.04.14-.08.22-.12.02,0,.05-.02.08-.02.23-.15.48-.24.75-.27,1.83-.09,3.66-.06,5.48.09,2.85.27,6.06,1.55,6.75,3.2.4.7.6,2.04.83,4.38.02,1.55.33,1.43-.85,2.34Z"/><path id="Path_446" class="cls-11" d="m474.24,610.39c-.44-1.57-.86-3.27-2.29-4.26-1.6-1.27-3.72-1.69-5.69-1.13-2.15.76-3.53,2.76-4.87,4.5-.11.19-.21.39-.3.6-.35.49-.68,1.01-1,1.52-1.7,2.64.2,5.48,1.9,7.57.82.88,1.48,1.9,2.33,2.75.92.79,1.99,1.4,3.14,1.8,3.55,1.49,6.18-2.74,6.95-5.67.63-2.53.57-5.18-.17-7.68m-2.56,8.18c-.44.83-1.09,1.53-1.9,2.01-1.37.72-2.77.13-4.48-.67-.92-.62-1.76-1.35-2.51-2.16-.72-.64-1.37-1.35-1.93-2.12-.53-.57-.83-1.31-.85-2.09.05-.48.19-.96.42-1.39,0,.01,0,.03,0,.04l.07-.15c.08-.16.16-.34.25-.5.1-.17.21-.34.34-.49.07-.09-.02.05.04-.04.03-.04.07-.08.11-.12.71-.98,1.59-1.83,2.58-2.52,1.05-.94,2.44-1.4,3.84-1.26,1.49.23,2.86.94,3.92,2.02.26.24.47.53.61.86,0,.02,0,.02.02.04.04.11.07.21.1.32.31,1.26.68,2.88.64,2.83.03.16.04.32.06.49-.13,1.97.04,2.66-1.32,4.91"/><path id="Path_447" class="cls-4" d="m474.24,610.39c-.44-1.57-.86-3.27-2.29-4.26-1.6-1.27-3.72-1.69-5.69-1.13-2.15.76-3.53,2.76-4.87,4.5-.11.19-.21.39-.3.6-.35.49-.68,1.01-1,1.52-1.7,2.64.2,5.48,1.9,7.57.82.88,1.48,1.9,2.33,2.75.92.79,1.99,1.4,3.14,1.8,3.55,1.49,6.18-2.74,6.95-5.67.63-2.53.57-5.19-.17-7.69Zm-2.56,8.18c-.44.83-1.09,1.53-1.9,2.01-1.37.72-2.77.13-4.48-.67-.92-.62-1.76-1.35-2.51-2.16-.72-.64-1.37-1.35-1.93-2.12-.53-.57-.83-1.31-.85-2.09.05-.48.19-.96.42-1.39,0,.01,0,.03,0,.04l.07-.15c.08-.16.16-.34.25-.5.1-.17.21-.34.34-.49.07-.09-.02.05.04-.04.03-.04.07-.08.11-.12.71-.98,1.59-1.83,2.58-2.52,1.05-.94,2.44-1.4,3.84-1.26,1.49.23,2.86.94,3.92,2.02.26.24.47.53.61.86,0,.02,0,.02.02.04.04.11.07.21.1.32.31,1.26.68,2.88.64,2.83.03.16.04.32.06.49-.13,1.97.04,2.66-1.32,4.91Z"/><path id="Path_448" d="m331.72,506.25c-2.68-1.53-4.86-1.46-8.01-1.28-.8-.01-1.41-.73-2.6-.77-2.19-.06-4.79.08-6.2,2.01-.33.51-.63,1.05-.88,1.61-.48.52-.88,1.11-1.2,1.74-.56,1.36-.41,2.89-.73,4.31-.54,2.26.14,5.26,2.62,6,1.26.41,2.61.08,3.88.41.83.21,3.34,1.18,4.85,1.59,1.73.55,3.56.68,5.36.38,1.36.08,2.71-.21,3.93-.83,2.2-1.37,3.03-3.96,3.24-6.42.56-3.52-1.13-7.02-4.24-8.76m2.58,7.75c-.03.78-.17,1.56-.42,2.31-.07.19-.16.37-.26.55l-.05.08c-1.24,1.7-2.28,1.95-4.64,2.04-1.14.22-2.31.26-3.47.13-1.82-.34-3.63-.77-5.41-1.3-1.31-.4-2.7-.49-4.06-.28-1.34.27-2.67-.52-3.07-1.83-.03-.86.01-1.73.13-2.58,0-.89.06-1.78.18-2.67.01-.03.02-.07.04-.1.04-.19.1-.38.18-.57.03-.06.06-.12.08-.18.01-.03.03-.06.04-.08h0s0,0,0,0v-.02c.09-.12.16-.25.25-.36s.15-.23.22-.34c.05-.07.11-.14.17-.21.62-.86,1.39-1.6,2.29-2.16.23-.08.47-.14.71-.17,1.4-.1,2.82.03,4.18.39.41.17.8.4,1.15.67.46.27.98.44,1.51.5,5.16.01,9.23,2.46,10.15,5.25.02.07.03.13.04.18.02.11.04.22.05.33,0,.14,0,.29,0,.43"/><path id="Path_449" class="cls-6" d="m331.72,506.25c-2.68-1.53-4.86-1.46-8.01-1.28-.8-.01-1.41-.73-2.6-.77-2.19-.06-4.79.08-6.2,2.01-.33.51-.63,1.05-.88,1.61-.48.52-.88,1.11-1.2,1.74-.56,1.36-.41,2.89-.73,4.31-.54,2.26.14,5.26,2.62,6,1.26.41,2.61.08,3.88.41.83.21,3.34,1.18,4.85,1.59,1.73.55,3.56.68,5.36.38,1.36.08,2.71-.21,3.93-.83,2.2-1.37,3.03-3.96,3.24-6.42.56-3.52-1.13-7.01-4.24-8.76Zm2.58,7.75c-.03.78-.17,1.56-.42,2.31-.07.19-.16.37-.26.55l-.05.08c-1.24,1.7-2.28,1.95-4.64,2.04-1.14.22-2.31.26-3.47.13-1.82-.34-3.63-.77-5.41-1.3-1.31-.4-2.7-.49-4.06-.28-1.34.27-2.67-.52-3.07-1.83-.03-.86.01-1.73.13-2.58,0-.89.06-1.78.18-2.67.01-.03.02-.07.04-.1.04-.19.1-.38.18-.57.03-.06.06-.12.08-.18.01-.03.03-.06.04-.08h0s0,0,0,0v-.02c.09-.12.16-.25.25-.36s.15-.23.22-.34c.05-.07.11-.14.17-.21.62-.86,1.39-1.6,2.29-2.16.23-.08.47-.14.71-.17,1.4-.1,2.82.03,4.18.39.41.17.8.4,1.15.67.46.27.98.44,1.51.5,5.16.01,9.23,2.46,10.15,5.25.02.07.03.13.04.18.02.11.04.22.05.33,0,.15,0,.29,0,.43h0Z"/><path id="Path_450" d="m305.79,453.73c-.14-.93-.49-1.82-1.02-2.6-.6-.69-1.29-1.3-2.06-1.82-1.27-.93-2.69-1.62-4.2-2.05-1.68-.33-3.42-.21-5.04.35-1.01.55-1.9,1.29-2.61,2.2-.53.84-.96,1.74-1.3,2.68-.79,1.17-1.29,2.52-1.46,3.92-.24,1.13-.4,1.89-.57,2.68-.22.89-.16,1.83.18,2.68.49,1,1.71,1.19,2.67,1.51.72.21,1.42.52,2.06.91.09.05.26.19.34.25,3.11,2.73,2.64,4.57,7.4,2.54,1.4-.42,2.66-1.2,3.66-2.27,2.29-3.1,2.44-7.3,1.94-10.99m-2.82,7.8c-.72,1.05-1.61,1.36-3.17,2.07-1.72.65-1.88.93-3.02.94-.97-.05-1.61-1.46-3.52-2.69-1.47-.98-4.46-1.04-4.81-1.54-.08-.22-.07-.04-.04-.58.11-.9.24-1.8.37-2.7.04-.4.08-.74.13-1.13.01-.09.02-.18.04-.26.01-.05.03-.11.01-.05,0-.04.01-.07.02-.11s-.02.06,0-.05c.01-.05.03-.09.05-.14h0v-.03c.02-.12.04-.24.07-.35.36-.94.83-1.84,1.39-2.68.04-.05.09-.09.14-.14.03-.04.06-.09.1-.14-.01.02.05-.07.07-.1.03-.04.05-.08.08-.11.03-.03.03-.03.03-.03v-.02s.06-.06.06-.06c.08-.1.15-.2.24-.29.03-.03.06-.07.09-.09.04-.04.05-.04,0,0,.01-.02.04-.05.06-.06.02-.02.03-.03.05-.04.07-.07.14-.14.2-.2.21-.23.45-.43.72-.59-.02,0-.04.02-.06.03.04-.03.09-.05.13-.08.19-.12.38-.22.58-.3.06-.04.12-.07.18-.08l.29-.13.09-.04c.16-.07.33-.09.51-.07h.26c1.2-.07,2.4.04,3.57.34,2.33.9,4.39,2.37,5.99,4.29.32.76.7,5.15-.91,7.2"/><path id="Path_451" class="cls-6" d="m305.79,453.73c-.14-.93-.49-1.82-1.02-2.6-.6-.69-1.29-1.3-2.06-1.82-1.27-.93-2.69-1.62-4.2-2.05-1.68-.33-3.42-.21-5.04.35-1.01.55-1.9,1.29-2.61,2.2-.53.84-.96,1.74-1.3,2.68-.79,1.17-1.29,2.52-1.46,3.92-.24,1.13-.4,1.89-.57,2.68-.22.89-.16,1.83.18,2.68.49,1,1.71,1.19,2.67,1.51.72.21,1.42.52,2.06.91.09.05.26.19.34.25,3.11,2.73,2.64,4.57,7.4,2.54,1.4-.42,2.66-1.2,3.66-2.27,2.29-3.1,2.44-7.3,1.94-10.99Zm-2.82,7.8c-.72,1.05-1.61,1.36-3.17,2.07-1.72.65-1.88.93-3.02.94-.97-.05-1.61-1.46-3.52-2.69-1.47-.98-4.46-1.04-4.81-1.54-.08-.22-.07-.04-.04-.58.11-.9.24-1.8.37-2.7.04-.4.08-.74.13-1.13.01-.09.02-.18.04-.26.01-.05.03-.11.01-.05,0-.04.01-.07.02-.11s-.02.06,0-.05c.01-.05.03-.09.05-.14h0v-.03c.02-.12.04-.24.07-.35.36-.94.83-1.84,1.39-2.68.04-.05.09-.09.14-.14.03-.04.06-.09.1-.14-.01.02.05-.07.07-.1.03-.04.05-.08.08-.11.03-.03.03-.03.03-.03v-.02s.06-.06.06-.06c.08-.1.15-.2.24-.29.03-.03.06-.07.09-.09.04-.04.05-.04,0,0,.01-.02.04-.05.06-.06.02-.02.03-.03.05-.04.07-.07.14-.14.2-.2.21-.23.45-.43.72-.59-.02,0-.04.02-.06.03.04-.03.09-.05.13-.08.19-.12.38-.22.58-.3.06-.04.12-.07.18-.08l.29-.13.09-.04c.16-.07.33-.09.51-.07h.26c1.2-.07,2.4.04,3.57.34,2.33.9,4.39,2.37,5.99,4.29.32.76.7,5.16-.91,7.2h0Z"/><path id="Path_452" d="m518.97,458.07c-3.39-1.1-6.93.32-10.02,1.72-.45.22-.86.5-1.22.85-.71.43-1.38.93-1.99,1.5l-.14.13c-.41.29-.78.65-1.08,1.05-.12.12-.24.25-.36.38-.86.67-1.47,1.6-1.75,2.66-.67,2.32-1.07,4.95,0,7.2.46.93,1.15,1.96,2.29,1.99,2.89-.12,5.37-1.93,7.85-3.24,2.34-1.1,5.01-1.8,6.81-3.78,1.1-1.54,1.69-3.39,1.68-5.29.21-1.89.1-4.5-2.06-5.18m.46,4.37c0,.06-.02.12-.02.18,0,.18,0,.37-.03.55,0,.02,0,.04,0,.06,0,.03,0,.06-.02.08.01-.04.02-.04.01,0,0,.08-.02.16-.04.23-.03.15-.08.3-.14.44-.02.05-.04.1-.06.15.03-.09-.02.05-.03.07-.03.04-.03.04-.01.01,0,.02-.02.04-.03.06-.01.02-.02.05-.04.07-.03.08-.06.15-.1.22-.29.78-1.08,1.67-2.92,2.71-1.22.63-2.53,1.1-3.74,1.75-2.18,1.29-4.16,2.91-6.53,3.86-.54.28-1.17.32-1.75.12-.87-.69-1.39-1.73-1.41-2.84-.07-1.43.15-2.86.63-4.2.27-.46.58-.89.94-1.28.02-.03.04-.07.06-.1.17-.21.34-.4.54-.58.18-.18.41-.32.61-.49.23-.2.47-.38.73-.53.43-.29.89-.55,1.36-.77.19-.07.39-.14.59-.2.63-.36,1.33-.6,2.05-.7,1.26-.33,2.55-.57,3.86-.69.09-.01.18-.02.27-.02.13-.03.25-.06.38-.09.68-.12,1.36-.17,2.05-.15.64.02,1.26.17,1.84.43.26.11.48.29.65.51.03.04.05.08.07.12,0,0,.02.02.02.03.04.03.07.07.07.12.01.02.02.04.02.07h0v.02s.02.02.03.03c0,.01,0,.02,0,.03.01.03.03.06.03.09.02.1,0-.07.01.04,0,.04,0,.08,0,.11,0,.15.01.31,0,.47"/><path id="Path_453" class="cls-6" d="m518.97,458.07c-3.39-1.1-6.93.32-10.02,1.72-.45.22-.86.5-1.22.85-.71.43-1.38.93-1.99,1.5l-.14.13c-.41.29-.78.65-1.08,1.05-.12.12-.24.25-.36.38-.86.67-1.47,1.6-1.75,2.66-.67,2.32-1.07,4.95,0,7.2.46.93,1.15,1.96,2.29,1.99,2.89-.12,5.37-1.93,7.85-3.24,2.34-1.1,5.01-1.8,6.81-3.78,1.1-1.54,1.69-3.39,1.68-5.29.21-1.89.1-4.49-2.06-5.18Zm.46,4.37c0,.06-.02.12-.02.18,0,.18,0,.37-.03.55,0,.02,0,.04,0,.06,0,.03,0,.06-.02.08.01-.04.02-.04.01,0,0,.08-.02.16-.04.23-.03.15-.08.3-.14.44-.02.05-.04.1-.06.15.03-.09-.02.05-.03.07-.03.04-.03.04-.01.01,0,.02-.02.04-.03.06-.01.02-.02.05-.04.07-.03.08-.06.15-.1.22-.29.78-1.08,1.67-2.92,2.71-1.22.63-2.53,1.1-3.74,1.75-2.18,1.29-4.16,2.91-6.53,3.86-.54.28-1.17.32-1.75.12-.87-.69-1.39-1.73-1.41-2.84-.07-1.43.15-2.86.63-4.2.27-.46.58-.89.94-1.28.02-.03.04-.07.06-.1.17-.21.34-.4.54-.58.18-.18.41-.32.61-.49.23-.2.47-.38.73-.53.43-.29.89-.55,1.36-.77.19-.07.39-.14.59-.2.63-.36,1.33-.6,2.05-.7,1.26-.33,2.55-.57,3.86-.69.09-.01.18-.02.27-.02.13-.03.25-.06.38-.09.68-.12,1.36-.17,2.05-.15.64.02,1.26.17,1.84.43.26.11.48.29.65.51.03.04.05.08.07.12,0,0,.02.02.02.03.04.03.07.07.07.12.01.02.02.04.02.07h0v.02s.02.02.03.03c0,.01,0,.02,0,.03.01.03.03.06.03.09.02.1,0-.07.01.04,0,.04,0,.08,0,.11,0,.16.02.32,0,.47Z"/><path id="Path_454" d="m474.91,486.94c-1.45-.95-2.98-1.77-4.58-2.43-2.65-1.36-5.58-2.08-8.56-2.12-1.84.29-3.67.63-5.49,1.02-.4.11-.78.3-1.17.45-.31.07-.6.2-.86.38-.42.32-.88.6-1.3.92-2.81,1.23-3.62,4.73-4.15,7.5-.42,3.29-1.42,6.24,1.81,8.45,1.73,1.59,4.1,1.87,6.24,2.64,1.08.37,2.08.94,3.17,1.29,1.32.37,2.69.57,4.07.59,3.53.08,6.88-1.55,8.99-4.39,1.68-1.72,2.91-3.83,3.58-6.14.48-1.2.78-2.46.87-3.75,0-1.84-1-3.53-2.61-4.43m-.27,7.32c-.12.3-.26.59-.42.88l-.18.31c.1-.16.14-.18-.05.09v.02s-.03.03-.03.03v-.02c-1.09,1.61-2.37,3.09-3.8,4.42-.61.48-1.27.88-1.97,1.21-.79.36-1.63.6-2.49.71-1.77.24-3.57.15-5.31-.27-1.02-.32-1.98-.82-3-1.15-1.74-.6-3.04-.78-4.34-1.25-.98-.43-1.9-1-2.72-1.68-.24-.18-.43-.4-.58-.65-.01-.03-.03-.06-.04-.1h0c0-.43.04-1.25.17-2.61.06-1.17.25-2.34.55-3.48v.12c0-.06,0-.11,0-.17.1-.35.21-.74.36-1.19,0-.02.02-.04.02-.06.09-.18.18-.36.26-.53.18-.35.38-.72.58-1.07.37-.51.82-.95,1.35-1.29.22-.14.44-.26.68-.36.19-.11.4-.19.61-.25.17-.05.33-.12.49-.17.21-.06.43-.11.65-.13.23-.04.46-.07.69-.12.12-.03.25-.04.37-.05,1.41-.29,2.82-.59,4.23-.9.49.02.99.08,1.47.18,2.98.65,5.82,1.83,8.38,3.49,1.96,1.15,3.8,2.11,4.89,3.4-.27.89-.54,1.77-.84,2.65"/><path id="Path_455" class="cls-6" d="m474.91,486.94c-1.45-.95-2.98-1.77-4.58-2.43-2.65-1.36-5.58-2.08-8.56-2.12-1.84.29-3.67.63-5.49,1.02-.4.11-.78.3-1.17.45-.31.07-.6.2-.86.38-.42.32-.88.6-1.3.92-2.81,1.23-3.62,4.73-4.15,7.5-.42,3.29-1.42,6.24,1.81,8.45,1.73,1.59,4.1,1.87,6.24,2.64,1.08.37,2.08.94,3.17,1.29,1.32.37,2.69.57,4.07.59,3.53.08,6.88-1.55,8.99-4.39,1.68-1.72,2.91-3.83,3.58-6.14.48-1.2.78-2.46.87-3.75,0-1.84-1-3.53-2.61-4.42Zm-.27,7.32c-.12.3-.26.59-.42.88l-.18.31c.1-.16.14-.18-.05.09v.02s-.03.03-.03.03v-.02c-1.09,1.61-2.37,3.09-3.8,4.42-.61.48-1.27.88-1.97,1.21-.79.36-1.63.6-2.49.71-1.77.24-3.57.15-5.31-.27-1.02-.32-1.98-.82-3-1.15-1.74-.6-3.04-.78-4.34-1.25-.98-.43-1.9-1-2.72-1.68-.24-.18-.43-.4-.58-.65-.01-.03-.03-.06-.04-.1h0c0-.43.04-1.25.17-2.61.06-1.17.25-2.34.55-3.48v.12c0-.06,0-.11,0-.17.1-.35.21-.74.36-1.19,0-.02.02-.04.02-.06.09-.18.18-.36.26-.53.18-.35.38-.72.58-1.07.37-.51.82-.95,1.35-1.29.22-.14.44-.26.68-.36.19-.11.4-.19.61-.25.17-.05.33-.12.49-.17.21-.06.43-.11.65-.13.23-.04.46-.07.69-.12.12-.03.25-.04.37-.05,1.41-.29,2.82-.59,4.23-.9.49.02.99.08,1.47.18,2.98.65,5.82,1.83,8.38,3.49,1.96,1.15,3.8,2.11,4.89,3.4-.26.9-.54,1.78-.83,2.66h0Z"/><path id="Path_456" d="m473.98,495.55l.06-.1s-.04.06-.06.1h0"/><path id="Path_457" class="cls-6" d="m473.98,495.55l.06-.1s-.04.06-.06.1h0Z"/><path id="Path_458" d="m473.09,421.27c-.8-3.6-3.41-5.08-6.91-5.27-1.82-.12-3.66.03-5.44.44-1.08.05-2.13.42-3,1.06-.08.02-.16.05-.23.09-.11.08-.22.17-.32.26-.07.05-.14.1-.2.15-.21.13-.41.27-.6.41-.65.56-1.2,1.24-1.61,2-.46.47-.84,1-1.13,1.59-.8,1.57-.97,3.39-.47,5.08.55.98,1.32,1.81,2.25,2.43,1.09.88,2.35,1.54,3.7,1.92,1.47.38,3.02.29,4.51.56,1.33.38,2.69.63,4.07.76,2.55.06,5.36-.95,5.9-3.73.54-2.56,0-5.22-.52-7.74m-2.06,7.03c-1.34.75-2.88,1.06-4.41.89-1.23-.05-2.43-.4-3.67-.4-1.55.13-3.11.08-4.65-.14-1.66-.47-3.18-1.33-4.42-2.53-.05-.2-.08-.41-.08-.61.1-1.43.53-2.82,1.25-4.06.05-.09.09-.18.14-.26.24-.22.46-.45.67-.7.03-.04.05-.08.08-.12.2-.28.43-.54.67-.78.27-.25.56-.48.85-.71h.01s.02-.02.03-.03c.03-.01.06-.02.09-.04.07-.03.12-.09.19-.12.07-.04.14-.08.22-.12.02,0,.05-.02.08-.02.23-.15.48-.24.75-.27,1.83-.09,3.66-.06,5.48.09,2.85.26,6.06,1.55,6.75,3.2.4.7.6,2.04.83,4.38.02,1.55.33,1.43-.84,2.35"/><path id="Path_459" class="cls-6" d="m473.09,421.27c-.8-3.6-3.41-5.08-6.91-5.27-1.82-.12-3.66.03-5.44.44-1.08.05-2.13.42-3,1.06-.08.02-.16.05-.23.09-.11.08-.22.17-.32.26-.07.05-.14.1-.2.15-.21.13-.41.27-.6.41-.65.56-1.2,1.24-1.61,2-.46.47-.84,1-1.13,1.59-.8,1.57-.97,3.39-.47,5.08.55.98,1.32,1.81,2.25,2.43,1.09.88,2.35,1.54,3.7,1.92,1.47.38,3.02.29,4.51.56,1.33.38,2.69.63,4.07.76,2.55.06,5.36-.95,5.9-3.73.53-2.55,0-5.22-.52-7.74Zm-2.06,7.03c-1.34.75-2.88,1.06-4.41.89-1.23-.05-2.43-.4-3.67-.4-1.55.13-3.11.08-4.65-.14-1.66-.47-3.18-1.33-4.42-2.53-.05-.2-.08-.41-.08-.61.1-1.43.53-2.82,1.25-4.06.05-.09.09-.18.14-.26.24-.22.46-.45.67-.7.03-.04.05-.08.08-.12.2-.28.43-.54.67-.78.27-.25.56-.48.85-.71h.01s.02-.02.03-.03c.03-.01.06-.02.09-.04.07-.03.12-.09.19-.12.07-.04.14-.08.22-.12.02,0,.05-.02.08-.02.23-.15.48-.24.75-.27,1.83-.09,3.66-.06,5.48.09,2.85.26,6.06,1.55,6.75,3.2.4.7.6,2.04.83,4.38.02,1.55.33,1.43-.84,2.34Z"/><path id="Path_460" d="m279.96,504.32c-.44-1.57-.86-3.27-2.29-4.25-1.6-1.27-3.72-1.69-5.69-1.13-2.15.76-3.53,2.76-4.87,4.5-.11.19-.21.39-.3.6-.35.49-.68,1.01-1,1.52-1.7,2.64.2,5.48,1.9,7.57.82.88,1.48,1.9,2.33,2.75.92.79,1.99,1.4,3.14,1.8,3.55,1.49,6.18-2.74,6.95-5.67.63-2.53.57-5.18-.17-7.68m-2.56,8.18c-.44.83-1.09,1.53-1.9,2.01-1.37.72-2.77.13-4.48-.67-.92-.62-1.76-1.35-2.51-2.17-.72-.64-1.37-1.35-1.93-2.12-.53-.57-.83-1.31-.85-2.09.05-.48.19-.96.42-1.39,0,.01,0,.03,0,.04l.07-.15c.08-.16.16-.34.25-.5.1-.17.21-.34.34-.49.07-.09-.02.05.04-.04.03-.04.07-.08.11-.12.71-.98,1.59-1.83,2.58-2.52,1.05-.94,2.44-1.4,3.84-1.26,1.49.23,2.86.94,3.92,2.02.26.24.47.53.61.86,0,.02,0,.02.01.04.04.11.07.21.1.32.31,1.26.68,2.88.64,2.83.03.16.04.32.06.49-.13,1.97.04,2.66-1.32,4.91"/><path id="Path_461" class="cls-6" d="m279.96,504.32c-.44-1.57-.86-3.27-2.29-4.25-1.6-1.27-3.72-1.69-5.69-1.13-2.15.76-3.53,2.76-4.87,4.5-.11.19-.21.39-.3.6-.35.49-.68,1.01-1,1.52-1.7,2.64.2,5.48,1.9,7.57.82.88,1.48,1.9,2.33,2.75.92.79,1.99,1.4,3.14,1.8,3.55,1.49,6.18-2.74,6.95-5.67.63-2.53.57-5.19-.17-7.69Zm-2.56,8.18c-.44.83-1.09,1.53-1.9,2.01-1.37.72-2.77.13-4.48-.67-.92-.62-1.76-1.35-2.51-2.17-.72-.64-1.37-1.35-1.93-2.12-.53-.57-.83-1.31-.85-2.09.05-.48.19-.96.42-1.39,0,.01,0,.03,0,.04l.07-.15c.08-.16.16-.34.25-.5.1-.17.21-.34.34-.49.07-.09-.02.05.04-.04.03-.04.07-.08.11-.12.71-.98,1.59-1.83,2.58-2.52,1.05-.94,2.44-1.4,3.84-1.26,1.49.23,2.86.94,3.92,2.02.26.24.47.53.61.86,0,.02,0,.02.01.04.04.11.07.21.1.32.31,1.26.68,2.88.64,2.83.03.16.04.32.06.49-.12,1.97.04,2.66-1.32,4.91Z"/><path id="Path_462" d="m372.05,692.23c-6.43,1.03-12.94,1.97-19.52,2.84-28.94,3.41-58.24,3.85-71.53-2.48-7.35-2.9-16.51-8.85-21.97-22.27-2.77-6.87-5.36-16.8-7.85-25.17-5.56-18.7-12.12-37.09-17.43-55.87-8.1-28.24-30.45-93.81-10.93-116.97,3.39-4.43,9.31-7.85,15.05-10.3,2.91-1.27,5.87-2.41,8.85-3.48.02-.06.03-.13.06-.19.91-2.32,1.67-4.7,2.26-7.12-3.24,1.12-6.48,2.24-9.72,3.36-11.35,4.21-24.13,8.67-30.03,20.73-8.83,19.07-2.08,51.04,2.52,71.71,4.1,17.04,9.23,33.81,14.06,50.65,3.58,12.46,7.84,24.7,11.68,37.08,2.23,7.15,4.22,14.37,6.36,21.54,1.62,5.35,3.25,10.77,5.86,15.72,4.96,10,13.91,16.47,23.5,20.42,14.56,6.32,30.18,8.73,45.57,8.98,20.39.08,40.74-1.58,60.85-4.95-2.89-.66-5.54-2.12-7.65-4.21"/><path id="Path_463" d="m592.52,523.73c-1.71-13.99-4.21-27.88-7.49-41.59-3.18-13.88-7.08-27.66-12.83-40.7-7.72-18.64-18.23-36.01-35.74-45.48-12.54-6.79-26.45-9.31-40.11-10.6-14-1.42-28.13-1.5-41.87.94-13.9,2.32-27.17,7.17-40.43,11.8-16.06,5.65-32.13,11.26-48.46,16.06-16.57,4.9-33.2,9.59-49.71,14.67.77.25,1.51.58,2.22.97.78.42,1.43,1.04,1.88,1.8h.09c1.37-.05,2.68.51,3.59,1.53,22.58-6.82,45.4-12.8,67.86-19.99,21.99-6.84,47.5-17.47,67.65-22,22.56-5.26,51.87-2.06,61.39,1.05,15.38,4.99,29.77,20.66,40.29,46.5,7.72,17.24,12.21,36.89,16.2,56.37,5.99,29.52,10.72,83.87,1.09,111.27-2.28,6.39-5.86,12.25-10.5,17.19-2.05,3.24-4.85,5.94-8.17,7.85-4.8,5.57-12.9,8.62-20.65,9.81-3.72,2.23-7.79,3.82-12.04,4.72-.89.47-1.78.93-2.7,1.35-5.69,2.62-11.61,4.53-17.48,6.61-.62.73-1.49,1.19-2.44,1.31-.21.17-.44.32-.68.44.14.03.28.06.42.08-11.03,3.62-22.16,6.98-33.2,10.55-.1.72-.36,1.4-.77,2-1.3,1.92-2.52,4.06-3.82,6.14,9.67-3.29,19.35-6.53,29.11-9.52,10.65-3.29,21.23-6.82,31.73-10.58,4.46-1.14,8.84-2.56,13.12-4.23,2.01-.81,3.95-1.78,5.81-2.9,10.82-4.42,21.33-9.76,30.14-17.81,13.86-11.87,17.52-29.82,18.49-48.39,1.19-19,.18-38.2-1.98-57.24"/><path id="Path_464" d="m375.46,474.15c-.42-3.14-1.25-6.21-2.45-9.13-2.49-5.06-6.62-9.03-10.08-13.42-2.66-3.35-5.01-6.97-8.13-9.93-5.79-5.43-12.79-9.33-19.86-12.83-11.86-5.87-24.76-10.52-38.07-11.12-6.26,0-12.45,1.3-18.17,3.83-1.57.49-3.09,1.12-4.55,1.87-3.81,2.1-6.99,5.15-10.1,8.16-1.6,1.23-3.12,2.54-4.58,3.93-4.68,4.26-8.69,9.19-11.91,14.63-2.33,4.43-4,9.17-6,13.76-6.21,14.24-11.32,30.31-7.48,45.86,1.58,6.06,5.24,11.26,7.44,17.08,2.24,4.98,3.79,10.44,7.12,14.82,2.14,2.71,5.02,4.65,7.86,6.54,2.85,1.96,5.91,3.58,9.13,4.84,3.77,1.73,7.89,2.36,11.85,3.49,10.63,3.2,19.65,8.1,30.67,5.21,6.92-1.4,13.26-5.08,20.76-9.01,6.91-3.8,13.28-8.52,18.93-14.02,5.93-5.24,11.19-11.18,15.67-17.69,6.41-9.88,10.71-20.98,12.63-32.59.99-4.21-.21-13.03-.68-14.29m-7.95,19.11c-1.54,16.14-9.73,31.57-14.12,36.44-3.47,3.93-7.33,7.5-11.53,10.65-6.57,4.19-13.45,7.86-20.59,10.99-3.52,1.29-7.21,2.1-10.95,2.4-2.55.14-5.11-.09-7.6-.69-5.36-1.23-10.3-3.76-15.64-5.05-4.22-1.13-6.86-1.32-11.19-2.86-6.76-2.27-12.92-6.04-18.03-11.01-3.01-3.24-4.4-7.56-6.27-11.49-3.04-7.11-8.01-13.37-9.71-21.05-2.04-8.53-.49-20.68,1.9-30.31,1.19-5.07,3.35-9.74,4.75-13.85,2.03-5.57,3.08-9.75,5.18-13.2,1.98-3.26,4.4-6.23,7.2-8.83.17-.32.4-.61.68-.85.13-.17.28-.33.42-.49.43-.39.87-.77,1.32-1.17.24-.22.47-.42.7-.63.59-.44.7-.54.28-.24l.36-.28-.03.02c.43-.33.44-.34.03-.02.4-.34.83-.63,1.29-.87-.91.44.32-.18.63-.39.03-.02.06-.04.09-.06,1.02-.85,2.12-1.77,3.33-2.81,6.39-3.49,13.75-4.79,20.95-3.69,7.17,1.15,15.99,4.97,23.35,8.54,7.79,3.97,15.43,8.29,22.84,12.95,5.91,3.81,10.97,8.8,14.86,14.66,3.27,4.41,7.37,8.2,10.27,12.89,3.82,6.8,5.51,12.69,5.22,20.28"/><path id="Path_465" d="m528.36,519.75c2.56-1.86,4.87-4.05,6.87-6.5,3.26-4.6,4.8-10.12,7-15.25,1.68-3.93,3.75-7.73,4.87-11.88,2.02-7.68,2.12-15.69,1.83-23.57-.48-13.22-2.53-26.78-8.34-38.78-2.97-5.51-7.06-10.33-12.01-14.15-1.18-1.14-2.45-2.19-3.81-3.11-3.66-2.35-7.86-3.7-11.98-5-1.84-.82-3.72-1.54-5.64-2.15-5.97-2.09-12.21-3.27-18.53-3.51-5.01.06-9.97.84-14.95,1.27-15.48,1.32-32.04,4.47-43.89,15.24-4.58,4.28-7.41,9.96-11.49,14.67-3.31,4.34-7.38,8.3-9.65,13.31-1.36,3.17-1.7,6.62-2.01,10.02-.37,3.44-.34,6.9.09,10.33.27,4.14,1.68,8.06,2.57,12.09,2.24,10.88,2.22,21.14,10.01,29.46,4.52,5.42,10.78,9.25,17.8,13.97,6.63,4.27,13.81,7.63,21.34,9.98,7.42,2.72,15.15,4.52,23.01,5.37,11.74.93,23.54-.56,34.67-4.4,4.18-1.13,11.36-6.38,12.24-7.4m-20.6,2.1c-14.93,6.33-32.39,6.46-38.77,4.92-5.11-1.18-10.09-2.88-14.85-5.07-6.81-3.78-13.32-8.09-19.46-12.88-2.81-2.48-5.28-5.34-7.32-8.49-1.34-2.18-2.35-4.54-3.01-7.01-1.47-5.3-1.59-10.85-3-16.16-1.01-4.25-2.1-6.66-2.81-11.2-1.21-7.02-.84-14.23,1.1-21.09,1.41-4.19,4.56-7.47,7.13-10.98,4.81-6.06,7.95-13.41,13.9-18.55,6.53-5.86,17.96-10.27,27.56-12.75,5.03-1.36,10.16-1.68,14.45-2.41,5.86-.87,10.04-1.94,14.08-1.73,3.81.19,7.58.9,11.19,2.12.36,0,.73.07,1.07.19.21.04.42.08.63.14.55.2,1.09.4,1.65.61.31.11.59.21.89.32.67.31.81.36.35.13l.42.18h-.03c.5.21.5.21.03,0,.49.19.95.43,1.38.72-.82-.59.31.2.64.37.03.02.06.04.1.06,1.23.49,2.56,1.02,4.05,1.59,6.11,3.96,10.75,9.82,13.2,16.67,2.4,6.85,3.24,16.42,3.6,24.6.21,8.75.05,17.52-.52,26.25-.54,7.01-2.52,13.84-5.82,20.04-2.32,4.98-3.7,10.38-6.45,15.16-4.17,6.59-8.55,10.88-15.35,14.24"/><path id="Path_466" class="cls-11" d="m406.08,701.9c-42.47-.04-76.87-34.51-76.82-76.98s34.51-76.87,76.98-76.82c7.37,0,14.71,1.08,21.78,3.17.65.18,1.04.86.85,1.52-.18.65-.86,1.04-1.52.85-.01,0-.02,0-.04-.01-39.41-11.74-80.88,10.7-92.62,50.11-11.74,39.41,10.7,80.88,50.11,92.62,39.41,11.74,80.88-10.7,92.62-50.11,6.38-21.44,2.79-44.61-9.78-63.11-.4-.55-.27-1.32.28-1.72s1.32-.27,1.72.28c.01.02.02.03.03.05,23.88,35.13,14.76,82.97-20.37,106.85-12.75,8.67-27.81,13.3-43.23,13.3"/><path id="Path_467" class="cls-2" d="m406.08,701.9c-42.47-.04-76.87-34.51-76.82-76.98s34.51-76.87,76.98-76.82c7.37,0,14.71,1.08,21.78,3.17.65.18,1.04.86.85,1.52-.18.65-.86,1.04-1.52.85-.01,0-.02,0-.04-.01-39.41-11.74-80.88,10.7-92.62,50.11-11.74,39.41,10.7,80.88,50.11,92.62,39.41,11.74,80.88-10.7,92.62-50.11,6.38-21.44,2.79-44.61-9.78-63.11-.4-.55-.27-1.32.28-1.72s1.32-.27,1.72.28c.01.02.02.03.03.05,23.88,35.13,14.76,82.97-20.37,106.85-12.75,8.67-27.81,13.3-43.23,13.3h0Z"/><path id="Path_468" class="cls-11" d="m464.71,585.3c-1.15,0-2.28-.29-3.27-.86-1.22-.71-1.96-2.3-2.55-3.59-.05-.1-.09-.2-.14-.3-2.37,2.9-5.26,5.19-9.95,3.57-3.24-1.17-5.47-4.16-5.66-7.6-2.88,1.79-6.55,1.66-9.29-.32-3.21-2.54-3.53-6.49-.96-11.73-.34-.1-.86-.19-1.27-.26-1.67-.29-3.96-.68-5.33-2.5-1.98-2.92-1.95-6.76.07-9.65.38-.56,1.15-.7,1.71-.32s.7,1.15.32,1.71h0c-1.42,2.02-1.48,4.7-.14,6.78.78,1.04,2.37,1.31,3.78,1.55s2.63.46,3.2,1.49c.31.62.31,1.36,0,1.98-2.87,5.72-1.3,7.88.14,9.02,2.25,1.53,5.26,1.35,7.31-.44.53-.47,1.3-.56,1.93-.24.66.33,1.05,1.03.99,1.77-.28,2.8,1.36,5.45,4.01,6.43,2.95,1.02,4.86.22,7.53-3.17.24-.72.89-1.23,1.64-1.29h.02c1.17,0,1.7,1.15,2.32,2.48.33.93.87,1.78,1.56,2.49,1.61.88,3.61.64,4.96-.61.49-.47,1.27-.46,1.74.03s.46,1.27-.03,1.74c-1.25,1.18-2.91,1.84-4.63,1.83"/><path id="Path_469" class="cls-2" d="m464.71,585.3c-1.15,0-2.28-.29-3.27-.86-1.22-.71-1.96-2.3-2.55-3.59-.05-.1-.09-.2-.14-.3-2.37,2.9-5.26,5.19-9.95,3.57-3.24-1.17-5.47-4.16-5.66-7.6-2.88,1.79-6.55,1.66-9.29-.32-3.21-2.54-3.53-6.49-.96-11.73-.34-.1-.86-.19-1.27-.26-1.67-.29-3.96-.68-5.33-2.5-1.98-2.92-1.95-6.76.07-9.65.38-.56,1.15-.7,1.71-.32s.7,1.15.32,1.71h0c-1.42,2.02-1.48,4.7-.14,6.78.78,1.04,2.37,1.31,3.78,1.55s2.63.46,3.2,1.49c.31.62.31,1.36,0,1.98-2.87,5.72-1.3,7.88.14,9.02,2.25,1.53,5.26,1.35,7.31-.44.53-.47,1.3-.56,1.93-.24.66.33,1.05,1.03.99,1.77-.28,2.8,1.36,5.45,4.01,6.43,2.95,1.02,4.86.22,7.53-3.17.24-.72.89-1.23,1.64-1.29h.02c1.17,0,1.7,1.15,2.32,2.48.33.93.87,1.78,1.56,2.49,1.61.88,3.61.64,4.96-.61.49-.47,1.27-.46,1.74.03s.46,1.27-.03,1.74c-1.25,1.18-2.91,1.84-4.64,1.83Z"/></g></g></g></svg>