<?xml version="1.0" encoding="UTF-8"?><svg id="Layer_4" xmlns="http://www.w3.org/2000/svg" xmlns:xlink="http://www.w3.org/1999/xlink" viewBox="0 0 300 300"><defs><style>.cls-1,.cls-2,.cls-3,.cls-4{fill:none;}.cls-2{clip-path:url(#clippath-2);}.cls-3{clip-path:url(#clippath-1);}.cls-5{fill:#161615;}.cls-4{clip-path:url(#clippath);}</style><clipPath id="clippath"><rect class="cls-1" x="163.67" y="94.14" width="38.03" height="41.94" transform="translate(-29.12 73.11) rotate(-21)"/></clipPath><clipPath id="clippath-1"><rect class="cls-1" x="153.31" y="175.39" width="29.38" height="36.79"/></clipPath><clipPath id="clippath-2"><rect class="cls-1" x="73.72" y="154.31" width="52.95" height="42.16"/></clipPath></defs><g id="Group_34"><g class="cls-4"><g id="Group_33"><path id="Path_87" class="cls-5" d="m199.65,127.05c.7-2.47,1.16-5.01,1.36-7.57.72-4.27.31-8.65-1.17-12.72-.73-1.68-1.72-3.23-2.93-4.61-.43-.75-.92-1.47-1.46-2.15-.41-.46-.83-.89-1.28-1.3-.28-.38-.62-.7-1.03-.93-.7-.37-1.36-.83-2.07-1.2-3.33-3.04-9.08-2.08-13.59-1.17-5.24,1.36-10.25,1.75-11.97,7.38-1.54,3.26-.75,6.6-.82,9.91,0,1.67-.36,3.34-.35,5,.11,1.98.51,3.93,1.19,5.8,1.82,4.97,5.77,8.13,11.32,9.48,3.59,1.26,7.43,1.67,11.21,1.21,2.06-.22,4.19-.23,6.17-1.03,2.72-.99,4.75-3.28,5.42-6.09m-11.32,3.92c-.44,0-1.25,0-1.56-.05l-.57-.06c.3.04.35.09-.15-.02-.01,0-.02,0-.03,0s-.03,0-.04,0h.04c-2.99-.52-5.91-1.37-8.71-2.52-1.03-.52-1.98-1.17-2.85-1.93-.94-.84-1.74-1.83-2.37-2.92-1.28-2.23-2.07-4.71-2.32-7.27-.03-1.56.24-3.13.22-4.69.02-2.68-.38-4.54-.32-6.54.16-1.59.55-3.16,1.17-4.63.15-.43.39-.82.7-1.16.04-.04.08-.07.12-.11h0s0,0,0,0c.65-.24,1.92-.67,4.05-1.3,1.82-.6,3.69-1.04,5.59-1.3-.06.02-.13.05-.19.08.09-.03.18-.06.26-.09.59-.08,1.23-.14,2-.22.04,0,.07,0,.11,0,.32,0,.63.03.94.04.63.04,1.29.08,1.92.15.94.18,1.85.54,2.66,1.05.32.21.62.44.9.7.26.19.49.42.7.66.16.2.35.37.52.56.2.25.38.52.54.8.18.28.35.57.53.85.1.15.19.31.27.47,1.17,1.72,2.36,3.44,3.55,5.15.22.68.38,1.37.48,2.08.7,3.81.09,8.7-1.01,13.28-.75,3.31-1.27,6.33-2.68,8.55-1.49.16-2.98.31-4.47.42"/><path id="Path_88" class="cls-5" d="m186.02,130.84c.06,0,.12.02.19.02-.06,0-.12-.01-.19-.02h0"/></g></g></g><g id="Group_38"><g class="cls-3"><g id="Group_37"><path id="Path_90" class="cls-5" d="m181.54,186.15c-.84-3-1.64-6.24-4.36-8.11-2.97-2.3-7.22-3.36-10.83-2.14-4.09,1.45-6.73,5.27-9.29,8.56-.21.37-.41.75-.58,1.15-.67.94-1.3,1.92-1.91,2.89-3.24,5.03.38,10.45,3.62,14.42,1.55,1.69,2.82,3.62,4.45,5.24,1.76,1.51,3.78,2.67,5.97,3.43,6.77,2.85,11.77-5.21,13.24-10.8,1.08-4.82,1.23-9.9-.32-14.64m-4.88,15.59c-1.17,1.72-1.63,2.67-3.61,3.84-2.6,1.37-5.28.24-8.54-1.28-2.05-1.1-2.68-2.32-4.77-4.13-1.37-1.21-2.6-2.56-3.68-4.04-.9-1.21-1.79-2.59-1.61-3.98.1-.92.37-1.82.8-2.64,0,.03-.01.05-.02.08.05-.09.09-.19.14-.28.15-.31.3-.65.47-.96.18-.33.4-.65.64-.94.14-.17-.05.1.07-.07.06-.08.13-.16.21-.23,1.27-2.08,3.26-3.4,4.93-4.8,2.5-1.86,4.32-2.66,7.31-2.41,2.41.28,6.04,2.06,7.47,3.84.49.46.89,1.02,1.16,1.63.01.03.02.04.03.07.07.2.13.41.19.61.59,2.4,1.29,5.48,1.23,5.4.05.31.08.62.11.93-.25,3.75.07,5.06-2.52,9.36"/></g></g></g><g id="Group_40"><g class="cls-2"><g id="Group_39"><path id="Path_91" class="cls-5" d="m121.95,162.57c-2.63-1.73-5.41-3.2-8.31-4.41-4.81-2.46-10.12-3.78-15.52-3.85-2.3.09-4.57.49-6.76,1.2-1.08.15-2.15.37-3.2.65-.73.2-1.41.54-2.12.81-.56.13-1.09.37-1.56.69-.76.58-1.6,1.08-2.36,1.67-5.08,2.24-6.57,8.57-7.53,13.61-.76,5.96-2.57,11.3,3.28,15.32,3.14,2.89,7.44,3.4,11.31,4.79,1.96.66,3.78,1.7,5.74,2.35,2.4.67,4.88,1.03,7.37,1.08,6.68.09,12.19-2.74,16.3-7.95,2.94-3.19,5.41-6.88,6.5-11.12.67-2.22,1.62-4.43,1.58-6.8-.01-3.33-1.82-6.4-4.73-8.03m-.5,13.27c-.23.54-.48,1.08-.76,1.6-.11.19-.22.38-.33.57.18-.29.26-.33-.09.15,0,.01-.01.02-.02.03s-.02.03-.03.05c0-.02.01-.03.02-.04-2,2.92-4.32,5.61-6.92,8.01-1.1.86-2.3,1.6-3.57,2.18-1.43.65-2.96,1.08-4.52,1.3-3.21.44-6.47.27-9.62-.49-1.85-.58-3.58-1.49-5.43-2.09-3.15-1.09-5.52-1.41-7.86-2.27-1.78-.78-3.44-1.81-4.93-3.05-.43-.32-.78-.72-1.05-1.18-.03-.06-.05-.12-.08-.17h0c.01-.77.08-2.27.3-4.72.11-2.13.45-4.24.99-6.3,0,.08,0,.15,0,.23,0-.1,0-.21.01-.31.18-.64.39-1.33.65-2.15.01-.04.03-.08.04-.12.15-.32.32-.64.47-.96.33-.64.68-1.3,1.04-1.93.66-.92,1.49-1.72,2.44-2.34.39-.25.8-.47,1.23-.65.35-.19.72-.35,1.1-.46.31-.09.6-.21.9-.31.39-.11.78-.19,1.18-.24.42-.08.83-.13,1.24-.21.22-.04.45-.08.68-.1,2.56-.53,5.12-1.07,7.67-1.63.9.04,1.79.15,2.67.33,4.81.79,10.29,3.37,15.19,6.33,3.56,2.09,6.89,3.83,8.87,6.17-.49,1.61-.99,3.21-1.53,4.8"/><path id="Path_92" class="cls-5" d="m120.25,178.19c.03-.06.07-.12.11-.18-.03.05-.07.12-.11.19h0Z"/></g></g></g></svg>