<?xml version="1.0" encoding="UTF-8"?><svg id="Layer_4" xmlns="http://www.w3.org/2000/svg" xmlns:xlink="http://www.w3.org/1999/xlink" viewBox="0 0 1833.99 1705.49"><defs><style>.cls-1,.cls-2,.cls-3,.cls-4,.cls-5,.cls-6{fill:none;}.cls-2{clip-path:url(#clippath-3);}.cls-3{clip-path:url(#clippath-2);}.cls-4{clip-path:url(#clippath-1);}.cls-7{stroke-width:.22px;}.cls-7,.cls-8,.cls-9,.cls-10,.cls-5,.cls-11,.cls-12,.cls-13{stroke-miterlimit:10;}.cls-7,.cls-8,.cls-9,.cls-11{fill-rule:evenodd;}.cls-7,.cls-8,.cls-14,.cls-12,.cls-13{fill:#046878;}.cls-7,.cls-10,.cls-11,.cls-13{stroke:#fff;}.cls-15{letter-spacing:0em;}.cls-16{letter-spacing:0em;}.cls-8,.cls-12{stroke:#046878;stroke-width:.22px;}.cls-17{letter-spacing:0em;}.cls-9{stroke:#000;stroke-width:.44px;}.cls-9,.cls-18,.cls-11{fill:#010101;}.cls-19{fill:#fff;}.cls-20{fill:#161615;}.cls-21{letter-spacing:0em;}.cls-22{letter-spacing:-.06em;}.cls-23,.cls-24,.cls-25,.cls-26{fill:#1d1d1b;}.cls-23,.cls-27{font-family:AlwynNewRounded-Light, 'Alwyn New Rounded';font-size:10.88px;font-weight:300;}.cls-28{letter-spacing:0em;}.cls-29{letter-spacing:0em;}.cls-24{font-size:20.02px;}.cls-24,.cls-26{font-family:AlwynNewRounded-Medium, 'Alwyn New Rounded';font-weight:500;}.cls-30{letter-spacing:0em;}.cls-31{letter-spacing:-.01em;}.cls-25{font-family:MyriadPro-Regular, 'Myriad Pro';font-size:30px;opacity:.84;}.cls-10,.cls-11,.cls-13{stroke-width:.33px;}.cls-5{stroke:#1d1d1b;stroke-width:1.18px;}.cls-32{letter-spacing:-.01em;}.cls-33{letter-spacing:0em;}.cls-34{letter-spacing:0em;}.cls-35{letter-spacing:0em;}.cls-36{letter-spacing:0em;}.cls-37{letter-spacing:0em;}.cls-38{letter-spacing:0em;}.cls-39{letter-spacing:0em;}.cls-40{letter-spacing:0em;}.cls-26{font-size:21.76px;}.cls-41{letter-spacing:0em;}.cls-42{letter-spacing:0em;}.cls-43{letter-spacing:-.07em;}.cls-6{clip-path:url(#clippath);}.cls-44{letter-spacing:-.01em;}</style><clipPath id="clippath"><rect class="cls-1" x="302.49" y="663.01" width="353.15" height="353.15" transform="translate(-463.9 1052.25) rotate(-73)"/></clipPath><clipPath id="clippath-1"><rect class="cls-1" x="890.39" y="856.22" width="38.03" height="41.94" transform="translate(-253.95 384.16) rotate(-21)"/></clipPath><clipPath id="clippath-2"><rect class="cls-1" x="880.03" y="937.46" width="29.38" height="36.79"/></clipPath><clipPath id="clippath-3"><rect class="cls-1" x="800.44" y="916.38" width="52.95" height="42.16"/></clipPath></defs><path class="cls-5" d="m632.05,252.88s-.06.12-.08.22c-3.26,3.54-8.48,3.84-11.56,1.22-2.37-2.01-3.26-5.56-2.17-8.88,1.11-1.61.46-3.63-.82-4.22-1.05-.48-2.57-.02-3.39,1.26-3.91,3.81-10.21,3.88-14.19.15-3.99-3.74-4.33-10.05-.75-14.2,1.31-.65,1.67-2.27.98-3.27-.68-.99-2.3-1.23-3.38-.26-5.73,1.59-11.31-.94-13.07-4.88-2.18-4.87,1.18-12.51,8.75-14.38,1.19-.25,1.97-1.4,1.79-2.55-.19-1.22-1.4-2.09-2.67-1.85-.34-.07-5.97-1.4-7.58-6.09-1.53-4.49,1.21-10.39,7.02-12.81-5.93-4.82-12.43-9.12-19.46-12.81-57-29.88-127.44-7.89-157.31,49.12-29.88,57-7.89,127.44,49.12,157.31,57,29.88,127.44,7.89,157.31-49.12,8.36-15.94,11.31-32.42,11.31-32.42,3.64-20.89.61-41.56.15-41.55Z"/><path class="cls-18" d="m534.44,258.56c0,.15,0,.3-.02.45,0,.06,0,.12-.01.17.01-.13-.02.15-.02.14-.05.28-.12.56-.22.83-.02.05-.04.11-.06.16.04-.1-.03.06-.04.08-.05.12-.11.23-.17.34-.14.25-.27.46-.4.61-.15.19-.32.37-.49.53-.03.04-.07.07-.11.1-.18.16.06-.04-.05.05-.11.08-.22.17-.33.24-.45.3-.74.42-1.27.55-.42.11-.83.12-1.35.08-.25-.02.07.02-.07,0-.06-.01-.13-.02-.19-.04-.12-.03-.25-.06-.37-.09-.25-.07-.45-.15-.6-.23-.2-.1-.39-.22-.58-.35-.05-.04-.1-.07-.15-.11-.02-.02-.15-.12-.05-.04-.1-.09-.21-.18-.31-.28-.38-.38-.59-.67-.83-1.16-.02-.05-.05-.1-.07-.15,0,.01-.1-.24-.05-.12-.05-.12-.09-.24-.12-.36-.07-.25-.15-.58-.18-.78-.02-.18-.04-.51-.03-.75,0-.12.01-.24.02-.36,0-.03.01-.16,0,0,0-.07.02-.14.03-.21.04-.22.09-.44.16-.65.03-.1.06-.2.1-.29.07-.22-.06.14.03-.07.03-.06.05-.13.08-.19.09-.18.19-.36.3-.54.03-.05.06-.09.09-.14.02-.03.11-.15.02-.03.07-.09.14-.18.21-.26.14-.17.3-.33.46-.47.03-.03.06-.06.1-.09-.11.09,0,0,.03-.02.1-.07.19-.14.3-.21.17-.11.34-.2.51-.29.19-.1-.14.05.06-.03.04-.02.08-.03.12-.05.11-.04.23-.08.34-.12.2-.06.41-.11.62-.14-.14.02-.02,0,0,0,.07,0,.14-.01.2-.02.11,0,.23-.01.34,0,.11,0,.23,0,.34.02.04,0,.09.01.13.02-.15-.02,0,0,.04,0,.23.04.46.1.68.17.1.04.21.08.31.12.2.08-.08-.04.03.02.07.03.14.07.21.11.21.12.41.25.61.39.03.03.07.05.1.08-.13-.1.04.04.05.05.1.09.19.18.29.28.07.08.15.16.22.25.03.04.07.09.1.13.02.03.04.05.06.08q-.05-.07,0,0c.13.2.26.4.36.61.05.11.11.23.16.34-.06-.14,0,0,.01.04.02.07.04.13.07.2.08.25.14.5.18.75,0,.06.02.12.02.18-.02-.17,0,.06,0,.08.01.14.02.28.02.43,0,.41.34.81.74.79s.74-.35.74-.79c-.01-2.25-1.24-4.4-3.17-5.35-2.01-.99-4.37-.65-6.05.9-1.68,1.54-2.33,4.19-1.57,6.41.84,2.47,3.15,4.16,5.63,3.95,1.34-.12,2.62-.73,3.57-1.75,1.02-1.11,1.58-2.61,1.59-4.16,0-.41-.34-.81-.74-.79-.41.02-.74.35-.74.79Z"/><path class="cls-18" d="m536.6,270.37c0,.56-.02,1.13,0,1.69v.08s-.03-.04.01-.06c0,.01,0,.02,0,.03-.01.06,0,.05.02-.03,0,.02-.02.04-.03.06q.06-.07,0,0c.1-.11.03,0-.02.01,0,0-.02.01-.03.02.08-.04.08-.04,0-.02,0-.03.09-.02.06-.02h-10.51c-.68,0-1.38.03-2.06,0v1.58c.83-.09,1.45-.71,1.47-1.63,0-.26,0-.51,0-.77v-2.13c0-.9-.14-1.81-.41-2.66-.02.2-.05.4-.07.61.04-.06.08-.13.12-.19.03-.04.05-.08.08-.13,0,0,.07-.1.03-.04-.02.03.08-.1.1-.13.05-.07.11-.14.17-.2.21-.25.44-.47.67-.68.11-.1.04-.04.02-.02.03-.02.06-.05.09-.07.06-.05.12-.09.18-.13.14-.1.28-.19.43-.28.13-.07.26-.15.38-.22.07-.04.15-.08.23-.11-.1.05.09-.04.13-.05.3-.12.61-.21.92-.28.07-.02.15-.03.22-.04.01,0,.17-.03.09-.02-.07.01.05,0,.05,0,.16-.02.33-.03.49-.04.33-.01.66,0,1,0s.67-.01,1,.01c.08,0,.16.01.24.02.03,0,.21.02.14.02-.07-.01.1.02.14.02.08.02.15.03.23.05.29.06.58.15.86.26.06.03.12.05.18.07.08.03-.01,0-.02-.01.03.02.06.03.09.04.14.07.28.14.41.22.25.14.48.3.71.48.02.02.05.04.08.06,0,0-.09-.07-.02-.02.06.05.12.1.17.15.11.09.21.2.31.3.1.11.2.21.29.32.04.05.08.11.13.16.02.03.17.23.08.11.19.27.36.55.51.84.08.15.15.31.22.47,0,.01.04.12.01.03-.03-.08.02.05.02.07.03.08.05.15.08.23.11.34.19.68.25,1.03,0,.04,0,.07.01.11,0,.02.02.16,0,.07,0-.09,0,.03,0,.04,0,.05,0,.09.01.15,0,.19,0,.38,0,.58,0,.41.34.81.74.79s.74-.35.74-.79c0-2.04-.8-4.05-2.21-5.44-1.32-1.31-3.05-2.02-4.85-2.02-.5,0-1.01-.01-1.51,0-1.08.02-2.15.32-3.12.85-.93.51-1.72,1.25-2.35,2.13-.22.32-.46.61-.36,1.05.07.3.18.6.24.9.09.46.12.86.12,1.36v2.89s0,.05,0,.07c0-.09,0-.09-.01,0,0-.02.01-.04.02-.06-.04.07-.04.08,0,0l-.04.05s.03-.03.05-.04c-.07.04-.07.05,0,.01-.08.02-.08.03,0,.01-.38.04-.76.33-.74.79.02.44.32.77.74.79.59.02,1.18,0,1.77,0h10.81c.81-.03,1.43-.69,1.46-1.56.02-.59,0-1.19,0-1.78,0-.41-.34-.81-.74-.79-.4.02-.74.35-.74.79Z"/><path class="cls-14" d="m521.41,255.52c0,.15,0,.29-.01.44,0,.08-.01.17-.02.25,0,.09,0-.02,0-.03,0,.05-.01.09-.02.14-.05.3-.11.6-.2.9-.04.13-.09.26-.13.39,0,.03-.06.14,0,0-.01.03-.02.06-.04.09-.03.07-.06.15-.1.22-.13.27-.27.53-.43.77-.04.06-.07.11-.11.17.07-.11-.01.02-.04.06-.09.13-.2.24-.3.36-.09.1-.18.19-.28.29-.05.05-.1.09-.15.14-.03.03-.22.18-.1.09-.22.18-.46.35-.7.49-.11.07-.23.13-.35.19-.04.02-.18.08-.06.03-.08.04-.16.07-.25.1-.27.11-.55.19-.83.25-.06.02-.13.03-.2.04-.05.01-.2.03-.07.01-.16.02-.32.03-.48.04-.3.01-.6,0-.89-.04.13.02-.02,0-.07-.01-.06-.01-.13-.03-.2-.04-.14-.03-.28-.07-.42-.11-.14-.04-.28-.09-.41-.14-.06-.03-.12-.05-.18-.07,0,0-.11-.05-.03-.02.07.04-.05-.03-.06-.03-.26-.13-.5-.27-.74-.44-.12-.08-.23-.17-.34-.26.1.08-.02-.02-.05-.05-.06-.05-.11-.11-.17-.16-.21-.2-.4-.42-.58-.64-.02-.03-.15-.2-.06-.08-.04-.05-.08-.11-.11-.17-.08-.12-.16-.25-.23-.38-.07-.13-.14-.26-.21-.39-.03-.06-.06-.13-.08-.19-.01-.03-.02-.06-.04-.09-.05-.11.04.11,0,0-.11-.28-.2-.57-.26-.87-.03-.15-.06-.3-.09-.46,0-.05-.02-.22,0-.08,0-.08-.01-.17-.02-.25-.02-.32-.02-.64,0-.96,0-.07.01-.15.02-.22,0-.09,0,.02,0,.03,0-.04,0-.07.01-.11.02-.16.05-.33.09-.49.07-.3.16-.59.26-.87.03-.08,0,.02,0,.03.01-.03.02-.06.04-.09.03-.06.05-.13.08-.19.07-.15.14-.29.22-.43.07-.12.14-.24.21-.35.04-.07.09-.13.13-.19-.08.12.04-.05.06-.08.18-.23.37-.44.58-.64.05-.05.1-.09.15-.14.02-.02.15-.14.1-.09-.05.04.08-.06.11-.08.07-.05.14-.11.21-.16.24-.16.48-.3.74-.44.03-.02.06-.03.09-.04,0,0-.1.05-.02.01.06-.03.12-.05.18-.07.14-.06.29-.11.44-.15.13-.04.26-.07.39-.1.06-.02.13-.03.2-.04.03,0,.07-.01.1-.02.14-.03-.05,0,.04,0,.3-.03.6-.05.9-.03.14,0,.27.02.41.03.09.01-.01,0-.03,0,.03,0,.07.01.1.02.08.01.15.03.23.04.28.06.56.14.83.25.07.03.14.06.22.09.08.03-.01,0-.02-.01.03.02.06.03.09.04.13.06.26.13.38.2.25.15.48.31.7.49-.11-.09.04.04.08.07.05.04.1.09.15.14.1.1.21.2.3.31.1.11.19.22.28.33.02.03.13.16.08.11-.05-.07.01.02.02.03.02.04.05.07.07.11.16.25.31.5.43.77.03.06.06.13.08.19.02.04.03.08.05.13,0-.01-.04-.11,0-.03.05.14.1.28.15.43.09.29.16.59.2.9,0,.05.02.22,0,.08,0,.08.01.17.02.25,0,.17.01.33.01.49,0,.41.34.81.74.79s.74-.35.74-.79c-.01-2.94-1.76-5.57-4.33-6.59-2.54-1.01-5.56-.14-7.28,2.09-.88,1.15-1.4,2.51-1.52,3.99-.11,1.42.23,2.9.92,4.12,1.44,2.55,4.26,3.84,6.99,3.26,2.59-.55,4.74-2.91,5.13-5.71.05-.38.09-.77.09-1.16,0-.41-.34-.81-.74-.79-.4.02-.74.35-.74.79Z"/><path class="cls-18" d="m506.35,258.56c0,.15,0,.3-.02.45,0,.06,0,.12-.01.17.01-.13-.02.15-.02.14-.05.28-.12.56-.22.83-.02.05-.04.11-.06.16.04-.1-.03.06-.04.08-.05.12-.11.23-.17.34-.14.25-.27.46-.4.61-.15.19-.32.37-.49.53-.03.04-.07.07-.11.1-.18.16.06-.04-.05.05-.11.08-.22.17-.33.24-.45.3-.74.42-1.27.55-.42.11-.83.12-1.35.08-.25-.02.07.02-.07,0-.06-.01-.13-.02-.19-.04-.12-.03-.25-.06-.37-.09-.25-.07-.45-.15-.6-.23-.2-.1-.39-.22-.58-.35-.05-.04-.1-.07-.15-.11-.02-.02-.15-.12-.05-.04-.1-.09-.21-.18-.31-.28-.38-.38-.59-.67-.83-1.16-.21-.42-.36-.94-.43-1.41-.02-.18-.04-.51-.03-.75,0-.12.01-.24.02-.36,0-.03.01-.16,0,0,0-.07.02-.14.03-.21.04-.22.09-.44.16-.65.03-.1.06-.2.1-.29.07-.22-.06.14.03-.07.03-.06.05-.13.08-.19.09-.18.19-.36.3-.54.03-.05.06-.09.09-.14.02-.03.11-.15.02-.03.07-.09.14-.18.21-.26.14-.17.3-.33.46-.47.03-.03.06-.06.1-.09-.11.09,0,0,.03-.02.1-.07.19-.14.3-.21.17-.11.34-.2.51-.29.19-.1-.14.05.06-.03.04-.02.08-.03.12-.05.11-.04.23-.08.34-.12.2-.06.41-.11.62-.14-.14.02-.02,0,0,0,.07,0,.14-.01.2-.02.11,0,.23-.01.34,0,.11,0,.23,0,.34.02.04,0,.09.01.13.02-.15-.02,0,0,.04,0,.23.04.46.1.68.17.1.04.21.08.31.12.2.08-.08-.04.03.02.07.03.14.07.21.11.21.12.41.25.61.39.03.03.07.05.1.08-.13-.1.04.04.05.05.1.09.19.18.29.28.07.08.15.16.22.25.03.04.07.09.1.13.02.03.04.05.06.08q-.05-.07,0,0c.13.2.26.4.36.61.05.11.11.23.16.34-.06-.14,0,0,.01.04.02.07.04.13.07.2.08.25.14.5.18.75,0,.06.02.12.02.18-.02-.17,0,.06,0,.08.02.14.02.28.02.43,0,.41.34.81.74.79s.74-.35.74-.79c-.01-2.25-1.24-4.4-3.17-5.35-2.01-.99-4.37-.65-6.05.9-1.68,1.54-2.33,4.19-1.57,6.41.84,2.47,3.15,4.16,5.63,3.95,1.34-.12,2.62-.73,3.57-1.75,1.02-1.11,1.58-2.61,1.59-4.16,0-.41-.34-.81-.74-.79-.41.02-.74.35-.74.79Z"/><path class="cls-18" d="m508.59,272.13c-1.27.05-2.55,0-3.82,0h-8.48c-.07,0-.14,0-.21,0-.11.01-.02-.03,0,.02,0,0-.02,0-.03,0-.05-.02-.04,0,.03.03,0,0-.15-.1,0,.02-.03-.03-.06-.06-.09-.09.11.15.02,0,.01,0,0,.02.02.04.03.06,0-.02,0-.04-.01-.07.07.02,0,.1.01.07v-.06c.01-.25,0-.5,0-.74,0-.5-.02-1.01.02-1.52,0-.05.03-.35.01-.19.01-.09.03-.19.04-.28.03-.21.08-.42.14-.62.05-.19.11-.38.18-.57,0-.02.06-.16.02-.07s.02-.05.03-.07c.04-.11.09-.21.14-.32.08-.17.18-.35.28-.51.04-.08.09-.15.14-.23.02-.04.05-.07.07-.11,0-.01.14-.19.04-.06.23-.32.49-.61.77-.87.06-.06.13-.12.2-.18.01-.02.12-.11.05-.05-.08.07.08-.07.08-.06.16-.12.32-.24.49-.34.15-.09.3-.18.46-.26.04-.02.08-.04.12-.06,0,0,.19-.09.09-.04-.08.04.04-.02.06-.03.05-.02.1-.04.15-.06.38-.14.76-.24,1.16-.32.03,0,.14-.02,0,0,.04,0,.09-.01.13-.02.09-.01.18-.02.27-.02.13,0,.25-.01.38-.01h1.36c.09,0,.18,0,.27,0,.1,0,.2.01.31.02.06,0,.13.01.19.02.13.01,0,0,.06.01.43.07.85.18,1.25.35.04.02.09.04.14.06-.11-.05,0,0,.02.01.09.04.18.08.26.13.19.11.38.22.57.34.09.06.18.13.27.19.04.03.08.06.12.09.11.08-.13-.12.05.04.16.15.32.3.48.46.13.14.27.29.38.45.03.04.06.08.09.12-.07-.09,0,0,.01.02.07.11.14.21.21.32-.02-.2-.05-.4-.07-.61-.34,1.07-.41,2.17-.41,3.29,0,.75,0,1.49,0,2.23,0,.93.63,1.57,1.47,1.67.38.04.75-.39.74-.79-.02-.47-.32-.74-.74-.79.02,0,.04,0,.06,0q-.08-.03,0,0s-.04-.02-.05-.04c.05.05.06.05.02.02l-.02-.03c.04.07.05.07,0,0,0,.02.01.04.02.06-.02-.08-.02-.09-.02-.03,0,.09,0-.03,0-.06v-2.77c0-.35.01-.76.05-1.04.04-.33.11-.65.2-.97.05-.18.13-.37.13-.57,0-.26-.13-.45-.27-.65-.64-.94-1.45-1.73-2.41-2.27-1.01-.57-2.15-.87-3.29-.88h-1.45c-1.94,0-3.84.87-5.16,2.41-.68.8-1.21,1.75-1.52,2.78-.25.81-.33,1.66-.33,2.52v1.05c0,.3-.02.6.05.9.18.75.84,1.14,1.53,1.14h12.46c.38-.02.76-.35.74-.79-.02-.4-.33-.79-.74-.78Z"/><path class="cls-14" d="m524.04,269.16v1.92c0,.31,0,.62,0,.94v.06s-.01.13,0,.04c.01-.1-.01.03-.02.03,0-.02.01-.04.02-.06,0,.02-.02.04-.03.06-.03-.01.11-.06,0-.03-.07.02.02.02.02-.02,0,0-.1.08-.03.02.08-.05-.03.03-.03,0,0,0,.11,0,0,0-.67-.03-1.35,0-2.02,0h-12.72c-.2,0-.4,0-.6,0h-.05c.08,0,.03-.01.03,0,0,0-.02,0-.03-.01.02.01.04.02.05.03,0,0-.12-.05-.03-.02.09.04-.09-.03,0,0,.07.02-.03.02-.01-.03,0,.03.05.1,0,.03-.04-.06,0,.13,0-.04v-.06c0-.31,0-.62,0-.94,0-.64,0-1.28,0-1.92,0-.78.11-1.47.36-2.23.02-.07.04-.14.07-.21.01-.05.03-.09.05-.14,0,.02-.04.1,0,.02.06-.15.12-.29.19-.43.13-.27.28-.53.44-.78.04-.06.08-.12.12-.18.02-.03.15-.21.07-.1.09-.12.19-.24.29-.36.19-.23.39-.44.61-.64.05-.05.1-.09.16-.14.03-.03.16-.13.06-.06.13-.1.26-.2.39-.29.24-.17.49-.32.74-.45.06-.03.12-.06.19-.09.03-.02.06-.03.09-.05-.01,0-.1.04-.01.01.15-.06.3-.13.46-.18.28-.09.56-.17.85-.23.07-.02.14-.03.21-.04.14-.03-.05,0,.09-.01.16-.02.31-.03.47-.04.13,0,.27-.01.4-.01h2.9c.13,0,.26,0,.39.01.14,0,.29.02.43.04.03,0,.07.01.11.02-.01,0-.11-.02-.02,0,.09.02.19.03.28.05.29.06.57.14.85.24.13.05.26.1.39.15.13.05-.04-.03.08.04.07.04.15.07.22.11.27.14.53.29.77.47.11.08.23.16.33.25.07.05,0,0-.01-.01.02.02.05.05.08.07.06.05.12.11.18.16.22.2.43.43.63.66.09.11.18.22.27.33-.07-.1.03.04.05.07.05.07.09.14.14.21.17.26.32.54.45.81.06.13.12.26.18.4.03.08,0,0,0-.02.01.04.02.07.04.11.03.08.06.16.08.24.25.76.36,1.44.36,2.23,0,.41.34.81.74.79s.74-.35.74-.79c-.02-3-1.59-5.85-4.09-7.24-1.11-.63-2.35-.95-3.61-.95h-2.01c-.79,0-1.57-.01-2.36.13-1.3.23-2.52.86-3.53,1.74-1.02.88-1.78,2.04-2.26,3.33-.42,1.1-.53,2.27-.53,3.45v2.35c0,.99.66,1.73,1.59,1.74.88,0,1.75,0,2.63,0h12.54c.9,0,1.61-.67,1.63-1.65.02-.74,0-1.49,0-2.23v-.67c0-.41-.34-.81-.74-.79-.4.01-.74.34-.74.78Z"/><text class="cls-26" transform="translate(457.68 227.57)"><tspan x="0" y="0">Społeczność</tspan></text><text class="cls-23" transform="translate(452.04 296.52)"><tspan x="0" y="0">Zanurz się w świecie nas</tspan><tspan class="cls-21" x="114.94" y="0">z</tspan><tspan x="120" y="0">ej </tspan><tspan x="-.63" y="13.05">społeczności I</tspan><tspan class="cls-22" x="64.73" y="13.05">T</tspan><tspan x="70.04" y="13.05">, eksplorując </tspan><tspan class="cls-40" x="-11.59" y="26.11">w</tspan><tspan x="-3.91" y="26.11">artości</tspan><tspan class="cls-15" x="27.83" y="26.11">ow</tspan><tspan x="41.44" y="26.11">e kursy dostos</tspan><tspan class="cls-15" x="109.03" y="26.11">o</tspan><tspan class="cls-40" x="114.9" y="26.11">w</tspan><tspan x="122.58" y="26.11">ane </tspan><tspan x="19.68" y="39.16">do </tspan><tspan class="cls-43" x="34.34" y="39.16">T</tspan><tspan class="cls-42" x="39.54" y="39.16">w</tspan><tspan x="47.28" y="39.16">oich potr</tspan><tspan class="cls-30" x="89.51" y="39.16">z</tspan><tspan x="94.56" y="39.16">eb.</tspan></text><text class="cls-27" transform="translate(452.04 296.52)"><tspan x="0" y="0">Zanurz się w świecie nas</tspan><tspan class="cls-21" x="114.94" y="0">z</tspan><tspan x="120" y="0">ej </tspan><tspan x="-.63" y="13.05">społeczności I</tspan><tspan class="cls-22" x="64.73" y="13.05">T</tspan><tspan x="70.04" y="13.05">, eksplorując </tspan><tspan class="cls-40" x="-11.59" y="26.11">w</tspan><tspan x="-3.91" y="26.11">artości</tspan><tspan class="cls-15" x="27.83" y="26.11">ow</tspan><tspan x="41.44" y="26.11">e kursy dostos</tspan><tspan class="cls-15" x="109.03" y="26.11">o</tspan><tspan class="cls-40" x="114.9" y="26.11">w</tspan><tspan x="122.58" y="26.11">ane </tspan><tspan x="19.68" y="39.16">do </tspan><tspan class="cls-43" x="34.34" y="39.16">T</tspan><tspan class="cls-42" x="39.54" y="39.16">w</tspan><tspan x="47.28" y="39.16">oich potr</tspan><tspan class="cls-30" x="89.51" y="39.16">z</tspan><tspan x="94.56" y="39.16">eb.</tspan></text><path class="cls-5" d="m1182.05,252.88s-.06.12-.08.22c-3.26,3.54-8.48,3.84-11.56,1.22-2.37-2.01-3.26-5.56-2.17-8.88,1.11-1.61.46-3.63-.82-4.22-1.05-.48-2.57-.02-3.39,1.26-3.91,3.81-10.21,3.88-14.19.15-3.99-3.74-4.33-10.05-.75-14.2,1.31-.65,1.67-2.27.98-3.27-.68-.99-2.3-1.23-3.38-.26-5.73,1.59-11.31-.94-13.07-4.88-2.18-4.87,1.18-12.51,8.75-14.38,1.19-.25,1.97-1.4,1.79-2.55-.19-1.22-1.4-2.09-2.67-1.85-.34-.07-5.97-1.4-7.58-6.09-1.53-4.49,1.21-10.39,7.02-12.81-5.93-4.82-12.43-9.12-19.46-12.81-57-29.88-127.44-7.89-157.31,49.12-29.88,57-7.89,127.44,49.12,157.31,57,29.88,127.44,7.89,157.31-49.12,8.36-15.94,11.31-32.42,11.31-32.42,3.64-20.89.61-41.56.15-41.55Z"/><path class="cls-9" d="m1055.97,258.75c-2.85-.77-5.85.48-7.32,3.05-1.48,2.57-1.05,5.8,1.03,7.9.97.97,1.48,2.04,1.72,3.19.21.98.2,2.09.2,3.26h6.59v-2.06l2.6-2.11v-3.18l1.24-1.16-1.24-2.43v-.13c0-2.96-1.98-5.55-4.83-6.32Zm.29-1.08c3.34.9,5.66,3.94,5.66,7.4l1.51,2.8-1.51,1.41v3.23l-2.6,2.11v2.65h-8.79v-.56c0-1.43,0-2.61-.21-3.6-.21-.99-.6-1.8-1.42-2.63-2.44-2.45-2.94-6.25-1.21-9.25,1.72-3,5.25-4.47,8.58-3.57Z"/><path class="cls-9" d="m1076.68,258.75c2.85-.77,5.85.48,7.32,3.05,1.48,2.57,1.05,5.8-1.04,7.9-.97.97-1.48,2.04-1.72,3.19-.21.98-.2,2.09-.2,3.26h-6.59v-2.06l-2.6-2.11v-3.18l-1.24-1.16,1.24-2.43v-.13c0-2.96,1.98-5.55,4.83-6.32Zm-.29-1.08c-3.33.9-5.65,3.94-5.65,7.4l-1.51,2.8,1.51,1.41v3.23l2.6,2.11v2.65h8.79v-.56c0-1.43,0-2.61.21-3.6.21-.99.59-1.8,1.42-2.63,2.44-2.45,2.94-6.25,1.21-9.25-1.73-3-5.25-4.47-8.59-3.57Z"/><path class="cls-8" d="m1063.82,255.06h5.05v1.64l-1.22,1.06-.05.16c-.15.53-.67.87-1.21.9-.54.03-1.05-.18-1.31-.93l-.05-.14-1.21-1.04v-1.64h0Zm2.52-12.94c2.44,0,4.64,1.48,5.58,3.75.93,2.27.42,4.89-1.31,6.63l-1.44,1.44h-2.27v-3.95c.24-.05.47-.14.7-.26.78-.44,1.27-1.26,1.27-2.16h-1.13c0,.48-.26.94-.69,1.18-.44.25-.98.25-1.41,0-.44-.24-.7-.7-.7-1.18h-1.12c0,.89.49,1.71,1.26,2.16.22.12.46.21.7.26v3.95h-2.27l-1.44-1.44c-1.73-1.74-2.25-4.36-1.31-6.63.93-2.27,3.13-3.75,5.57-3.75Zm0-1.12c-2.9,0-5.5,1.76-6.61,4.44-1.11,2.69-.49,5.78,1.55,7.84l1.42,1.43v2.5l1.39,1.2c.45,1.06,1.44,1.57,2.36,1.52.91-.05,1.8-.61,2.15-1.52l1.39-1.2v-2.5l1.42-1.43c2.04-2.06,2.66-5.15,1.55-7.84-1.1-2.69-3.72-4.44-6.61-4.44Z"/><rect class="cls-12" x="1065.46" y="234.7" width="1.12" height="4.12"/><polygon class="cls-12" points="1074.92 238.14 1072.01 241.06 1072.8 241.85 1075.71 238.94 1074.92 238.14"/><rect class="cls-12" x="1057.63" y="237.94" width="1.12" height="4.12" transform="translate(141.13 819.97) rotate(-45.09)"/><rect class="cls-12" x="1052.88" y="247.27" width="4.12" height="1.12"/><rect class="cls-12" x="1075.05" y="247.27" width="4.12" height="1.12"/><text class="cls-26" transform="translate(1016.24 227.57)"><tspan x="0" y="0">Mentoring</tspan></text><text class="cls-23" transform="translate(993.3 296.52)"><tspan x="0" y="0">Odkryj siłę mentora w naszych </tspan><tspan x="-.51" y="13.05">kursach I</tspan><tspan class="cls-22" x="41.9" y="13.05">T</tspan><tspan x="47.21" y="13.05">, gdzie doświadc</tspan><tspan class="cls-21" x="124.5" y="13.05">z</tspan><tspan x="129.56" y="13.05">eni </tspan><tspan x="5" y="26.11">eksperci pr</tspan><tspan class="cls-15" x="56.82" y="26.11">o</tspan><tspan class="cls-40" x="62.7" y="26.11">w</tspan><tspan x="70.38" y="26.11">ad</tspan><tspan class="cls-42" x="81.97" y="26.11">z</tspan><tspan x="87.08" y="26.11">ą Cię pr</tspan><tspan class="cls-30" x="122.57" y="26.11">z</tspan><tspan class="cls-42" x="127.63" y="26.11">e</tspan><tspan x="133.26" y="26.11">z </tspan><tspan x="5.12" y="39.16">ści</tspan><tspan class="cls-15" x="17.61" y="39.16">e</tspan><tspan x="23.25" y="39.16">ż</tspan><tspan class="cls-31" x="28.4" y="39.16">k</tspan><tspan x="33.59" y="39.16">ę r</tspan><tspan class="cls-21" x="45.95" y="39.16">o</tspan><tspan x="51.78" y="39.16">z</tspan><tspan class="cls-15" x="56.94" y="39.16">w</tspan><tspan x="64.67" y="39.16">oju z osobistym </tspan><tspan x="43.65" y="52.22">podejściem.</tspan></text><text class="cls-27" transform="translate(993.3 296.52)"><tspan x="0" y="0">Odkryj siłę mentora w naszych </tspan><tspan x="-.51" y="13.05">kursach I</tspan><tspan class="cls-22" x="41.9" y="13.05">T</tspan><tspan x="47.21" y="13.05">, gdzie doświadc</tspan><tspan class="cls-21" x="124.5" y="13.05">z</tspan><tspan x="129.56" y="13.05">eni </tspan><tspan x="5" y="26.11">eksperci pr</tspan><tspan class="cls-15" x="56.82" y="26.11">o</tspan><tspan class="cls-40" x="62.7" y="26.11">w</tspan><tspan x="70.38" y="26.11">ad</tspan><tspan class="cls-42" x="81.97" y="26.11">z</tspan><tspan x="87.08" y="26.11">ą Cię pr</tspan><tspan class="cls-30" x="122.57" y="26.11">z</tspan><tspan class="cls-42" x="127.63" y="26.11">e</tspan><tspan x="133.26" y="26.11">z </tspan><tspan x="5.12" y="39.16">ści</tspan><tspan class="cls-15" x="17.61" y="39.16">e</tspan><tspan x="23.25" y="39.16">ż</tspan><tspan class="cls-31" x="28.4" y="39.16">k</tspan><tspan x="33.59" y="39.16">ę r</tspan><tspan class="cls-21" x="45.95" y="39.16">o</tspan><tspan x="51.78" y="39.16">z</tspan><tspan class="cls-15" x="56.94" y="39.16">w</tspan><tspan x="64.67" y="39.16">oju z osobistym </tspan><tspan x="43.65" y="52.22">podejściem.</tspan></text><path class="cls-5" d="m907.05,252.88s-.06.12-.08.22c-3.26,3.54-8.48,3.84-11.56,1.22-2.37-2.01-3.26-5.56-2.17-8.88,1.11-1.61.46-3.63-.82-4.22-1.05-.48-2.57-.02-3.39,1.26-3.91,3.81-10.21,3.88-14.19.15-3.99-3.74-4.33-10.05-.75-14.2,1.31-.65,1.67-2.27.98-3.27-.68-.99-2.3-1.23-3.38-.26-5.73,1.59-11.31-.94-13.07-4.88-2.18-4.87,1.18-12.51,8.75-14.38,1.19-.25,1.97-1.4,1.79-2.55-.19-1.22-1.4-2.09-2.67-1.85-.34-.07-5.97-1.4-7.58-6.09-1.53-4.49,1.21-10.39,7.02-12.81-5.93-4.82-12.43-9.12-19.46-12.81-57-29.88-127.44-7.89-157.31,49.12-29.88,57-7.89,127.44,49.12,157.31,57,29.88,127.44,7.89,157.31-49.12,8.36-15.94,11.31-32.42,11.31-32.42,3.64-20.89.61-41.56.15-41.55Z"/><path class="cls-10" d="m774.43,278.1c.3.49.15,1.13-.34,1.43-.49.3-1.13.15-1.43-.34-1.13-1.84-2.03-3.86-2.63-6-.58-2.07-.9-4.25-.9-6.5s.31-4.43.9-6.5c.6-2.14,1.5-4.15,2.63-6,.3-.49.94-.64,1.43-.34s.64.94.34,1.43c-1.04,1.69-1.86,3.53-2.4,5.47-.53,1.88-.82,3.87-.82,5.94s.28,4.05.82,5.94c.55,1.94,1.36,3.78,2.4,5.47h0Zm3.76-19.48c.27-.5.9-.69,1.41-.41.5.27.69.9.41,1.41-.58,1.06-1.03,2.21-1.34,3.42-.3,1.17-.46,2.39-.46,3.66s.16,2.49.46,3.66c.31,1.21.76,2.36,1.34,3.42.27.5.09,1.13-.41,1.41-.5.27-1.13.09-1.41-.41-.67-1.22-1.19-2.53-1.54-3.9-.34-1.33-.52-2.73-.52-4.17s.18-2.84.52-4.17c.35-1.37.87-2.68,1.54-3.9h0Zm31.8,20.57c-.3.49-.94.64-1.43.34s-.64-.94-.34-1.43c1.04-1.69,1.86-3.53,2.4-5.47.53-1.88.82-3.87.82-5.94s-.28-4.05-.82-5.94c-.55-1.94-1.36-3.78-2.4-5.47-.3-.49-.15-1.13.34-1.43.49-.3,1.13-.15,1.43.34,1.13,1.84,2.03,3.86,2.63,6,.58,2.07.9,4.25.9,6.5s-.31,4.43-.9,6.5c-.6,2.14-1.5,4.15-2.63,6h0Zm-7.36-19.57c-.27-.5-.09-1.13.41-1.41.5-.27,1.13-.09,1.41.41.67,1.22,1.19,2.53,1.54,3.9.34,1.33.52,2.73.52,4.17s-.18,2.84-.52,4.17c-.35,1.37-.87,2.68-1.54,3.9-.27.5-.9.69-1.41.41-.5-.27-.69-.9-.41-1.41.58-1.06,1.03-2.21,1.34-3.42.3-1.17.46-2.39.46-3.66s-.16-2.49-.46-3.66c-.31-1.21-.76-2.36-1.34-3.42h0Z"/><path class="cls-13" d="m791.01,259.07l5.71,4.23c.47.35.84.78,1.08,1.27.25.5.38,1.05.38,1.63s-.13,1.13-.38,1.63c-.25.49-.61.92-1.08,1.27l-5.71,4.23c-.56.42-1.19.65-1.84.71-.65.06-1.31-.07-1.93-.38-.62-.31-1.11-.77-1.46-1.33-.35-.56-.53-1.21-.53-1.9v-8.45c0-.69.19-1.34.53-1.9.34-.56.84-1.01,1.46-1.33.62-.31,1.28-.44,1.93-.38.65.06,1.28.29,1.84.71h0Zm4.47,5.89l-5.71-4.23c-.24-.18-.51-.28-.78-.3-.27-.02-.56.03-.82.17-.27.14-.49.33-.63.56-.14.23-.22.5-.22.81v8.45c0,.31.08.58.22.81.14.23.35.42.63.56.27.13.55.19.82.17.27-.02.54-.12.78-.3l5.71-4.23c.21-.15.36-.34.47-.54.1-.2.15-.43.15-.69s-.05-.49-.15-.69c-.1-.21-.26-.39-.47-.54h0Z"/><text class="cls-24" transform="translate(730.04 225.98)"><tspan x="0" y="0">Zajęcia 100% </tspan><tspan x="25.34" y="18.28">na ży</tspan><tspan class="cls-16" x="71.34" y="18.28">w</tspan><tspan x="86.27" y="18.28">o</tspan></text><text class="cls-23" transform="translate(706.9 299.85)"><tspan class="cls-21" x="0" y="0">Ro</tspan><tspan x="12.06" y="0">zwijaj się w tempie r</tspan><tspan class="cls-21" x="107.14" y="0">z</tspan><tspan x="112.2" y="0">eczywistym </tspan><tspan x="10.94" y="13.05">dzięki </tspan><tspan class="cls-15" x="41.07" y="13.05">z</tspan><tspan x="46.17" y="13.05">ajęciom 100% na ży</tspan><tspan class="cls-42" x="140.38" y="13.05">w</tspan><tspan x="148.11" y="13.05">o, </tspan><tspan x="13.14" y="26.11">gdzie </tspan><tspan class="cls-21" x="41.35" y="26.11">z</tspan><tspan x="46.41" y="26.11">dobędziesz praktyczne </tspan><tspan x="3.18" y="39.16">umiejętności popr</tspan><tspan class="cls-21" x="88.04" y="39.16">z</tspan><tspan class="cls-15" x="93.1" y="39.16">e</tspan><tspan x="98.74" y="39.16">z b</tspan><tspan class="cls-42" x="112.63" y="39.16">e</tspan><tspan x="118.26" y="39.16">zpośredni </tspan><tspan class="cls-31" x="36.14" y="52.22">k</tspan><tspan x="41.33" y="52.22">ontakt z trenerami.</tspan></text><text class="cls-27" transform="translate(706.9 299.85)"><tspan class="cls-21" x="0" y="0">Ro</tspan><tspan x="12.06" y="0">zwijaj się w tempie r</tspan><tspan class="cls-21" x="107.14" y="0">z</tspan><tspan x="112.2" y="0">eczywistym </tspan><tspan x="10.94" y="13.05">dzięki </tspan><tspan class="cls-15" x="41.07" y="13.05">z</tspan><tspan x="46.17" y="13.05">ajęciom 100% na ży</tspan><tspan class="cls-42" x="140.38" y="13.05">w</tspan><tspan x="148.11" y="13.05">o, </tspan><tspan x="13.14" y="26.11">gdzie </tspan><tspan class="cls-21" x="41.35" y="26.11">z</tspan><tspan x="46.41" y="26.11">dobędziesz praktyczne </tspan><tspan x="3.18" y="39.16">umiejętności popr</tspan><tspan class="cls-21" x="88.04" y="39.16">z</tspan><tspan class="cls-15" x="93.1" y="39.16">e</tspan><tspan x="98.74" y="39.16">z b</tspan><tspan class="cls-42" x="112.63" y="39.16">e</tspan><tspan x="118.26" y="39.16">zpośredni </tspan><tspan class="cls-31" x="36.14" y="52.22">k</tspan><tspan x="41.33" y="52.22">ontakt z trenerami.</tspan></text><path class="cls-5" d="m1457.05,252.88s-.06.12-.08.22c-3.26,3.54-8.48,3.84-11.56,1.22-2.37-2.01-3.26-5.56-2.17-8.88,1.11-1.61.46-3.63-.82-4.22-1.05-.48-2.57-.02-3.39,1.26-3.91,3.81-10.21,3.88-14.19.15-3.99-3.74-4.33-10.05-.75-14.2,1.31-.65,1.67-2.27.98-3.27-.68-.99-2.3-1.23-3.38-.26-5.73,1.59-11.31-.94-13.07-4.88-2.18-4.87,1.18-12.51,8.75-14.38,1.19-.25,1.97-1.4,1.79-2.55-.19-1.22-1.4-2.09-2.67-1.85-.34-.07-5.97-1.4-7.58-6.09-1.53-4.49,1.21-10.39,7.02-12.81-5.93-4.82-12.43-9.12-19.46-12.81-57-29.88-127.44-7.89-157.31,49.12-29.88,57-7.89,127.44,49.12,157.31,57,29.88,127.44,7.89,157.31-49.12,8.36-15.94,11.31-32.42,11.31-32.42,3.64-20.89.61-41.56.15-41.55Z"/><path class="cls-7" d="m1350.79,258.7l-4.67,3.55c-.77-.54-1.82-.54-2.6.07-.16.13-.3.27-.42.43l-5.1-1.71c.02-1.11-.82-2.08-1.95-2.2-1.2-.13-2.27.74-2.4,1.94-.03.29,0,.56.07.82l-4.52,3c-.72-.57-1.76-.65-2.57-.11-1,.67-1.28,2.02-.61,3.03.67,1,2.02,1.28,3.03.61.81-.54,1.15-1.53.9-2.41l4.52-3c.31.25.7.42,1.13.46.8.08,1.54-.27,1.99-.88l5.1,1.71c0,.48.14.96.46,1.37.74.95,2.11,1.12,3.06.38.76-.59,1.02-1.59.72-2.45l4.67-3.55c.78.54,1.84.53,2.62-.09.94-.75,1.09-2.13.34-3.07-.75-.94-2.13-1.09-3.07-.34-.74.6-.99,1.58-.69,2.43Zm-23.42,6.9c.39-.26.92-.15,1.17.24.26.39.15.92-.24,1.18-.39.26-.92.15-1.18-.24-.26-.39-.15-.92.24-1.17Zm18.16-2.09c.29.37.22.9-.15,1.19-.37.29-.9.22-1.19-.15s-.22-.9.15-1.19c.37-.29.9-.22,1.19.15Zm-9.62-3.35c.47.05.8.47.75.93-.05.47-.47.8-.93.75-.47-.05-.8-.47-.75-.93.05-.47.47-.8.93-.75Zm17.59-2.72c.29.37.23.9-.13,1.19-.37.29-.9.23-1.19-.13-.29-.36-.23-.9.13-1.19.36-.29.9-.23,1.19.13Z"/><circle class="cls-18" cx="1326.33" cy="275.15" r=".67"/><path class="cls-11" d="m1357.71,271.82v-20.03c0-1.11-.9-2-2-2h-1.34c-.37,0-.67.3-.67.67s.3.67.67.67h1.34c.37,0,.67.3.67.67v20.03h-32.04v-20.03c0-.37.3-.67.67-.67h9.01c.05.06.1.12.15.18.31.31.74.49,1.18.49.18,0,.33.15.33.33,0,.92.75,1.67,1.67,1.67h6.01c.92,0,1.67-.75,1.67-1.67,0-.18.15-.33.33-.33.44,0,.87-.18,1.18-.49.06-.06.11-.12.15-.18h5.67c.37,0,.67-.3.67-.67s-.3-.67-.67-.67h-5.34v-1c0-.44-.18-.87-.49-1.18-.31-.31-.74-.49-1.18-.49h-10.01c-.44,0-.87.18-1.18.49s-.49.74-.49,1.18v1h-8.68c-1.11,0-2,.9-2,2v20.03c-1.11,0-2,.9-2,2s.9,2,2,2h1.34c.37,0,.67-.3.67-.67s-.3-.67-.67-.67h-1.34c-.37,0-.67-.3-.67-.67s.3-.67.67-.67h34.71c.37,0,.67.3.67.67s-.3.67-.67.67h-29.37c-.37,0-.67.3-.67.67s.3.67.67.67h4.47l-2.45,9.17c-.05.2-.01.41.12.58.13.16.32.26.53.26h2.67c.3,0,.57-.2.64-.5l.76-2.84h10.54l.76,2.84c.08.29.34.5.64.5h2.67c.21,0,.4-.1.53-.26.13-.16.17-.38.12-.58l-2.45-9.17h9.81c1.11,0,2-.9,2-2s-.9-2-2-2Zm-11.19,4.01h-1.29l2.31,8.68h1.29l-2.31-8.68Zm-11.04,0h-1.29l-2.31,8.68h1.29l2.31-8.68Zm9.79,5.34l-.36-1.34h-9.12l-.36,1.34h9.83Zm-.71-2.67l-.71-2.67h-6.99l-.71,2.67h8.41Zm.8-28.04c-.92,0-1.67.75-1.67,1.67,0,.18-.15.33-.33.33h-6.01c-.18,0-.33-.15-.33-.33,0-.92-.75-1.67-1.67-1.67-.09,0-.17-.04-.24-.1-.06-.06-.1-.15-.1-.24v-1.34c0-.09.04-.17.1-.24.06-.06.15-.1.24-.1h10.01c.09,0,.17.04.24.1.06.06.1.15.1.24v1.34c0,.09-.04.17-.1.24-.06.06-.15.1-.24.1Z"/><text class="cls-24" transform="translate(1264.29 220.23)"><tspan x="0" y="0">Prakty</tspan><tspan class="cls-44" x="57.22" y="0">k</tspan><tspan x="66.99" y="0">a oparta </tspan><tspan x="12.31" y="18.28">na projektach</tspan></text><text class="cls-23" transform="translate(1259.05 300.63)"><tspan x="0" y="0">Doświadcz autentycznych wyz</tspan><tspan class="cls-40" x="143.74" y="0">w</tspan><tspan x="151.42" y="0">ań </tspan><tspan x="-5.86" y="13.05">dzięki praktyce opartej na projektach </tspan><tspan x=".95" y="26.11">w naszych kursach I</tspan><tspan class="cls-22" x="94.83" y="26.11">T</tspan><tspan x="100.15" y="26.11">, gdzie nau</tspan><tspan class="cls-35" x="151.3" y="26.11">k</tspan><tspan x="156.52" y="26.11">a </tspan><tspan x="14.68" y="39.16">idzie w par</tspan><tspan class="cls-21" x="65.56" y="39.16">z</tspan><tspan x="70.62" y="39.16">e z praktycznym </tspan><tspan x="54.72" y="52.22">działaniem.</tspan></text><text class="cls-27" transform="translate(1259.05 300.63)"><tspan x="0" y="0">Doświadcz autentycznych wyz</tspan><tspan class="cls-40" x="143.74" y="0">w</tspan><tspan x="151.42" y="0">ań </tspan><tspan x="-5.86" y="13.05">dzięki praktyce opartej na projektach </tspan><tspan x=".95" y="26.11">w naszych kursach I</tspan><tspan class="cls-22" x="94.83" y="26.11">T</tspan><tspan x="100.15" y="26.11">, gdzie nau</tspan><tspan class="cls-35" x="151.3" y="26.11">k</tspan><tspan x="156.52" y="26.11">a </tspan><tspan x="14.68" y="39.16">idzie w par</tspan><tspan class="cls-21" x="65.56" y="39.16">z</tspan><tspan x="70.62" y="39.16">e z praktycznym </tspan><tspan x="54.72" y="52.22">działaniem.</tspan></text><g class="cls-6"><g id="Group_6"><path id="Path_49" class="cls-20" d="m427.44,1008.44c-93.11-28.47-145.7-127.37-117.23-220.48,28.47-93.11,127.37-145.7,220.48-117.23,16.31,4.97,31.81,12.28,46.03,21.69,1.33.82,1.74,2.56.92,3.89-.82,1.33-2.56,1.74-3.89.92-.05-.03-.1-.07-.15-.1-13.76-9.11-28.77-16.19-44.56-21-90.13-27.56-185.88,23.35-213.43,113.49-27.56,90.13,23.35,185.88,113.48,213.44,90.13,27.56,185.88-23.35,213.44-113.49,10.09-32.77,10.02-67.83-.18-100.57-.48-1.48.33-3.08,1.81-3.56,1.48-.48,3.08.33,3.56,1.81,0,.02.01.05.02.07,10.53,33.82,10.59,70.04.18,103.9-28.47,93.11-127.37,145.7-220.48,117.23"/><path id="Path_50" class="cls-20" d="m634.47,791.77c-2.52-.76-4.8-2.17-6.61-4.09-2.21-2.38-2.77-6.38-3.2-9.59-.04-.24-.07-.5-.11-.77-7.15,4.78-15.04,7.87-24.24,1.17-6.33-4.74-9.21-12.8-7.33-20.48-7.57,1.89-15.98-.84-20.19-6.95-5.34-7.74-3.39-16.62,5.77-26.41-.67-.43-1.76-.99-2.62-1.42-3.48-1.76-8.23-4.16-10.02-9.06-2.58-7.11.21-15.99,6.64-21.13,1.22-.97,3-.77,3.97.44.97,1.22.77,3-.44,3.97-4.52,3.61-6.61,9.97-4.85,14.79,1.02,2.8,4.33,4.47,7.26,5.95,2.94,1.49,5.48,2.77,6.02,5.42.28,1.58-.21,3.2-1.32,4.36-10.15,10.62-8.14,16.43-5.75,19.89,3.25,4.71,10.58,6.47,16.34,3.93,1.49-.66,3.22-.36,4.4.76,1.22,1.18,1.61,2.99.97,4.57-2.43,6.21-.59,13.12,4.48,16.8,5.79,4.22,10.52,3.74,18.67-1.9,1.45-1.59,2.96-2.17,4.48-1.73l.06.02c2.57.78,2.96,3.67,3.42,7.01.3,2.17.75,5.45,1.75,6.52,2.95,3.02,7.5,3.83,11.31,2,1.41-.66,3.09-.05,3.75,1.37.63,1.35.11,2.95-1.19,3.67-3.54,1.76-7.63,2.08-11.4.9"/><path id="Path_51" class="cls-20" d="m389.86,824.77c-4.85-5.15-9.68-6.47-16.73-8.18-1.76-.56-2.6-2.55-5.2-3.43-4.77-1.6-10.58-3.04-14.96.26-1.08.9-2.08,1.88-3.01,2.94-1.4.83-2.68,1.85-3.8,3.02-2.14,2.62-2.84,6.07-4.51,8.98-2.7,4.61-3.21,11.64,1.71,14.94,2.48,1.74,5.67,1.93,8.23,3.5,1.69,1.02,6.54,4.83,9.58,6.73,3.43,2.37,7.37,3.89,11.5,4.44,2.99.72,6.11,1.72,9.18.81,5.75-1.52,9.32-6.67,11.43-11.93,3.47-7.19,2.35-16.4-3.42-22.09m.46,18.75c-1.09,2.48-1.22,3.12-2.46,4.78-.29.37-.61.71-.95,1.03-.07.05-.12.1-.17.14-3.87,2.9-6.3,2.75-11.56,1.36-2.63-.44-5.28-.82-7.7-2.03-5.34-2.63-6.11-3.59-11-6.48-2.62-1.75-5.6-2.89-8.72-3.34-3.82-.83-5.45-3.16-5.51-6.07.1-.92.89-2.77,2.01-5.58,1.04-2.57,1.47-4.74,2.19-5.74.05-.07.1-.13.15-.2.22-.4.48-.77.78-1.12.1-.12.2-.23.3-.34.05-.06.09-.11.15-.15h.01s0-.02,0-.01l.03-.03c.26-.22.5-.44.77-.64.25-.19.47-.4.72-.59.16-.13.35-.24.53-.35,1.93-1.48,4.13-2.57,6.48-3.21.56-.03,1.12,0,1.67.11,3.15.73,6.16,1.96,8.92,3.66.79.65,1.49,1.41,2.07,2.25.84.9,1.85,1.62,2.98,2.12,11.32,3.5,18.62,11.61,18.76,18.33-.01.17-.02.31-.02.42-.03.25-.07.51-.12.76-.09.32-.2.63-.31.94"/><path id="Path_52" class="cls-20" d="m541.9,717.76c.32-2.14.15-4.33-.5-6.39-.86-1.93-1.97-3.73-3.3-5.37-2.25-2.79-4.75-5.48-7.86-7.32-3.47-1.85-7.37-2.76-11.3-2.63-2.59.52-5.04,1.57-7.21,3.08-1.72,1.5-3.28,3.18-4.64,5.01-2.21,1.65-4.06,4.08-5.83,7.63-1.3,2.33-2.15,3.87-3.04,5.51-.97,1.84-1.7,3.92-1.4,6.02.42,2.52,2.97,3.76,4.86,5.11,1.45.95,2.76,2.09,3.91,3.39.16.18.45.59.58.77,4.99,8.08,2.73,11.81,14.54,10.54,3.29-.29,6.77-.56,9.56-2.53,7.12-5.26,10.26-14.39,11.64-22.83m-11.42,15.23c-2.3,1.81-4.44,1.9-8.35,2.43-4.21.27-4.74.77-7.26.04-2.1-.77-2.55-4.3-5.93-8.28-2.56-3.14-9.09-5.27-9.53-6.61-.03-.54-.12-.14.3-1.3.85-1.9,1.73-3.79,2.62-5.68.35-.85.67-1.58,1.05-2.4.09-.18.16-.37.27-.55.06-.1.13-.24.07-.1.04-.07.08-.16.11-.23.05-.09-.09.11.05-.1.06-.09.13-.18.19-.28h0s.02-.07.02-.07c.12-.24.25-.49.38-.72,1.18-1.73,3.05-3.35,4.85-4.94.13-.08.26-.14.39-.22.1-.08.19-.16.3-.24-.05.03.17-.13.23-.17.08-.07.17-.13.26-.19.08-.04.09-.04.08-.03l.04-.03.15-.09c.24-.17.47-.34.71-.49.08-.06.17-.11.26-.15.12-.05.12-.05.01.02.05-.04.11-.08.17-.09.06-.03.1-.04.14-.06.19-.11.39-.22.57-.31.62-.37,1.28-.64,1.98-.8-.05,0-.1,0-.15.01.11-.03.22-.06.34-.08.49-.13.98-.22,1.49-.27.15-.04.31-.06.46-.06.31-.04.57-.07.72-.08.08-.01.15-.02.22-.03.4-.04.8.03,1.16.19.02,0,.03.02.04.02.17.05.35.11.52.17,2.68.65,5.25,1.71,7.61,3.14,3.59,2.55,8.6,8.65,10.26,13.44.2,1.87-1.93,11.79-6.82,15.2"/><path id="Path_54" class="cls-20" d="m556.44,814.48c-2.54-3.06-5.37-5.88-8.43-8.42-4.91-4.76-10.86-8.32-17.37-10.41-2.82-.74-5.72-1.1-8.63-1.05-1.36-.22-2.74-.35-4.12-.39-.96-.03-1.91.13-2.86.2-.73-.05-1.46.04-2.15.26-1.13.42-2.33.72-3.47,1.15-6.99.82-11.13,7.95-14.16,13.69-3.14,6.94-7.3,12.74-1.7,19.77,2.74,4.66,7.76,6.87,11.93,9.99,2.13,1.53,3.95,3.46,6.09,4.97,2.66,1.7,5.53,3.06,8.53,4.03,8.05,2.58,15.78,1.19,22.69-3.59,4.74-2.78,9.1-6.33,11.99-11.07,1.64-2.45,3.61-4.77,4.42-7.65,1.34-4.06.06-8.36-2.75-11.48m-5.52,15.89c-.47.58-.98,1.13-1.51,1.65-.2.19-.41.38-.61.57.33-.29.44-.3-.16.16l-.03.03-.05.04.04-.04c-3.5,2.79-7.31,5.19-11.34,7.14-1.66.64-3.38,1.08-5.14,1.32-1.98.25-3.98.22-5.95-.1-4.05-.66-7.94-2.07-11.48-4.15-2.03-1.39-3.79-3.14-5.8-4.54-3.42-2.49-6.17-3.75-8.68-5.66-1.86-1.6-3.49-3.46-4.84-5.52-.4-.54-.68-1.16-.83-1.82-.01-.08-.02-.16-.03-.24h0s0-.01,0-.01c.3-.92.93-2.71,2.11-5.59.93-2.54,2.11-4.97,3.53-7.26-.03.09-.06.18-.08.28.04-.13.08-.25.13-.37.45-.71.96-1.47,1.59-2.37.03-.04.06-.08.09-.13.31-.33.62-.66.93-.99.63-.65,1.31-1.32,1.98-1.96,1.15-.87,2.44-1.53,3.83-1.93.57-.16,1.15-.27,1.74-.33.49-.1,1-.15,1.5-.15.41,0,.8-.04,1.2-.05.51.01,1.02.06,1.52.14.53.06,1.06.15,1.59.2.29.03.57.07.86.14,3.3.3,6.59.59,9.89.87,1.07.38,2.11.84,3.11,1.39,5.53,2.74,11.22,7.89,16.06,13.29,3.54,3.85,6.93,7.2,8.46,10.75-1.18,1.77-2.38,3.52-3.62,5.25"/><path id="Path_55" class="cls-20" d="m525.36,824.78l.2-.18c-.06.05-.13.11-.2.19h0Z"/><path id="Path_56" class="cls-20" d="m541.67,940.21c.66-8.43-4.07-13.44-11.63-16.22-3.87-1.66-8.09-2.21-12.24-2.69-2.43-.32-5.1-.81-7.31.31-.19,0-.38.01-.57.04-.3.1-.59.23-.88.36-.18.06-.36.12-.54.18-.54.15-1.07.32-1.6.5-1.82.8-3.47,1.92-4.88,3.32-1.31.72-2.51,1.64-3.55,2.73-2.63,2.9-4.61,6.85-4.43,10.84.3,2.58,1.9,4.75,3.31,6.85,1.93,2.56,4.02,5.09,6.83,6.71,2.98,1.82,6.43,2.67,9.53,4.26,2.76,1.55,5.41,3.37,8.43,4.39,5.57,1.84,12.4,1.51,15.46-4.24,2.9-5.25,3.51-11.47,4.06-17.35m-9.23,14.06c-4.01.73-6,.47-10.27-1-2.67-.95-5.08-2.5-7.79-3.35-2.97-.8-8.84-2.38-10.12-3.44-3.13-2.14-6.56-5.35-8-8.52.02-.47.09-.94.23-1.4,1.2-3.33,3.04-5.58,5.46-8.07.17-.17.33-.33.48-.49.67-.32,1.31-.69,1.94-1.09.08-.07.16-.14.25-.2.63-.48,1.29-.9,1.99-1.25.76-.37,1.55-.69,2.34-.98h.03s.05-.02.07-.03c.08-.01.15,0,.22-.02.17-.03.33-.11.5-.15.18-.05.37-.09.56-.11.06,0,.12,0,.19,0,.6-.17,1.22-.21,1.83-.1,4.07,1.03,8.07,2.33,11.98,3.88,6.07,2.49,12.26,7.46,12.66,11.55.41,1.82-.04,4.88-1.11,10.18-.99,3.42-.23,3.37-3.43,4.59"/><path id="Path_57" class="cls-20" d="m625.81,879.64c.09-3.75.31-7.76-2.17-10.88-2.61-3.69-7.14-6.42-11.73-6.29-5.23.22-9.61,3.7-13.72,6.6-.38.35-.73.73-1.07,1.12-1.11.84-2.17,1.75-3.22,2.66-5.51,4.65-3.24,12.17-.9,17.9,1.2,2.49,1.97,5.17,3.28,7.6,1.49,2.36,3.42,4.41,5.68,6.06,6.8,5.67,15.4-1.86,19.07-7.78,2.94-5.17,4.9-10.98,4.79-16.98m-11.11,16.25c-1.96,1.58-2.82,2.5-5.51,3.15-3.48.66-6.17-1.58-9.39-4.49-1.98-1.99-2.27-3.61-4.05-6.44-1.15-1.88-2.09-3.87-2.82-5.95-.61-1.72-1.15-3.61-.45-5.16.44-1.03,1.07-1.97,1.85-2.76-.02.03-.03.06-.05.09.09-.09.17-.18.26-.28.28-.3.58-.64.88-.94.33-.32.69-.61,1.07-.85.22-.14-.09.1.1-.05.1-.07.21-.14.32-.19,2.2-1.95,4.95-2.77,7.36-3.79,3.53-1.27,5.91-1.54,9.27-.2,2.68,1.17,6.24,4.5,7.25,7.06.76,1.78.54,1.14.77,2.29,0,.04,0,.06,0,.09,0,.26,0,.51,0,.77-.17,2.97-.44,6.77-.49,6.65-.05.37-.13.74-.2,1.11-1.61,4.24-1.7,5.86-6.2,9.89"/></g></g><g id="Group_34"><g class="cls-4"><g id="Group_33"><path id="Path_87" class="cls-20" d="m926.37,889.12c.7-2.47,1.16-5.01,1.36-7.57.72-4.27.31-8.65-1.17-12.72-.73-1.68-1.72-3.23-2.93-4.61-.43-.75-.92-1.47-1.46-2.15-.41-.46-.83-.89-1.28-1.3-.28-.38-.62-.7-1.03-.93-.7-.37-1.36-.83-2.07-1.2-3.33-3.04-9.08-2.08-13.59-1.17-5.24,1.36-10.25,1.75-11.97,7.38-1.54,3.26-.75,6.6-.82,9.91,0,1.67-.36,3.34-.35,5,.11,1.98.51,3.93,1.19,5.8,1.82,4.97,5.77,8.13,11.32,9.48,3.59,1.26,7.43,1.67,11.21,1.21,2.06-.22,4.19-.23,6.17-1.03,2.72-.99,4.75-3.28,5.42-6.09m-11.32,3.92c-.44,0-1.25,0-1.56-.05l-.57-.06c.3.04.35.09-.15-.02-.01,0-.02,0-.03,0s-.03,0-.04,0h.04c-2.99-.52-5.91-1.37-8.71-2.52-1.03-.52-1.98-1.17-2.85-1.93-.94-.84-1.74-1.83-2.37-2.92-1.28-2.23-2.07-4.71-2.32-7.27-.03-1.56.24-3.13.22-4.69.02-2.68-.38-4.54-.32-6.54.16-1.59.55-3.16,1.17-4.63.15-.43.39-.82.7-1.16.04-.04.08-.07.12-.11h0s0,0,0,0c.65-.24,1.92-.67,4.05-1.3,1.82-.6,3.69-1.04,5.59-1.3-.06.02-.13.05-.19.08.09-.03.18-.06.26-.09.59-.08,1.23-.14,2-.22.04,0,.07,0,.11,0,.32,0,.63.03.94.04.63.04,1.29.08,1.92.15.94.18,1.85.54,2.66,1.05.32.21.62.44.9.7.26.19.49.42.7.66.16.2.35.37.52.56.2.25.38.52.54.8.18.28.35.57.53.85.1.15.19.31.27.47,1.17,1.72,2.36,3.44,3.55,5.15.22.68.38,1.37.48,2.08.7,3.81.09,8.7-1.01,13.28-.75,3.31-1.27,6.33-2.68,8.55-1.49.16-2.98.31-4.47.42"/><path id="Path_88" class="cls-20" d="m912.74,892.92c.06,0,.12.02.19.02-.06,0-.12-.01-.19-.02h0"/></g></g></g><g id="Group_38"><g class="cls-3"><g id="Group_37"><path id="Path_90" class="cls-20" d="m908.26,948.23c-.84-3-1.64-6.24-4.36-8.11-2.97-2.3-7.22-3.36-10.83-2.14-4.09,1.45-6.73,5.27-9.29,8.56-.21.37-.41.75-.58,1.15-.67.94-1.3,1.92-1.91,2.89-3.24,5.03.38,10.45,3.62,14.42,1.55,1.69,2.82,3.62,4.45,5.24,1.76,1.51,3.78,2.67,5.97,3.43,6.77,2.85,11.77-5.21,13.24-10.8,1.08-4.82,1.23-9.9-.32-14.64m-4.88,15.59c-1.17,1.72-1.63,2.67-3.61,3.84-2.6,1.37-5.28.24-8.54-1.28-2.05-1.1-2.68-2.32-4.77-4.13-1.37-1.21-2.6-2.56-3.68-4.04-.9-1.21-1.79-2.59-1.61-3.98.1-.92.37-1.82.8-2.64,0,.03-.01.05-.02.08.05-.09.09-.19.14-.28.15-.31.3-.65.47-.96.18-.33.4-.65.64-.94.14-.17-.05.1.07-.07.06-.08.13-.16.21-.23,1.27-2.08,3.26-3.4,4.93-4.8,2.5-1.86,4.32-2.66,7.31-2.41,2.41.28,6.04,2.06,7.47,3.84.49.46.89,1.02,1.16,1.63.01.03.02.04.03.07.07.2.13.41.19.61.59,2.4,1.29,5.48,1.23,5.4.05.31.08.62.11.93-.25,3.75.07,5.06-2.52,9.36"/></g></g></g><g id="Group_40"><g class="cls-2"><g id="Group_39"><path id="Path_91" class="cls-20" d="m848.67,924.65c-2.63-1.73-5.41-3.2-8.31-4.41-4.81-2.46-10.12-3.78-15.52-3.85-2.3.09-4.57.49-6.76,1.2-1.08.15-2.15.37-3.2.65-.73.2-1.41.54-2.12.81-.56.13-1.09.37-1.56.69-.76.58-1.6,1.08-2.36,1.67-5.08,2.24-6.57,8.57-7.53,13.61-.76,5.96-2.57,11.3,3.28,15.32,3.14,2.89,7.44,3.4,11.31,4.79,1.96.66,3.78,1.7,5.74,2.35,2.4.67,4.88,1.03,7.37,1.08,6.68.09,12.19-2.74,16.3-7.95,2.94-3.19,5.41-6.88,6.5-11.12.67-2.22,1.62-4.43,1.58-6.8-.01-3.33-1.82-6.4-4.73-8.03m-.5,13.27c-.23.54-.48,1.08-.76,1.6-.11.19-.22.38-.33.57.18-.29.26-.33-.09.15,0,.01-.01.02-.02.03s-.02.03-.03.05c0-.02.01-.03.02-.04-2,2.92-4.32,5.61-6.92,8.01-1.1.86-2.3,1.6-3.57,2.18-1.43.65-2.96,1.08-4.52,1.3-3.21.44-6.47.27-9.62-.49-1.85-.58-3.58-1.49-5.43-2.09-3.15-1.09-5.52-1.41-7.86-2.27-1.78-.78-3.44-1.81-4.93-3.05-.43-.32-.78-.72-1.05-1.18-.03-.06-.05-.12-.08-.17h0c.01-.77.08-2.27.3-4.72.11-2.13.45-4.24.99-6.3,0,.08,0,.15,0,.23,0-.1,0-.21.01-.31.18-.64.39-1.33.65-2.15.01-.04.03-.08.04-.12.15-.32.32-.64.47-.96.33-.64.68-1.3,1.04-1.93.66-.92,1.49-1.72,2.44-2.34.39-.25.8-.47,1.23-.65.35-.19.72-.35,1.1-.46.31-.09.6-.21.9-.31.39-.11.78-.19,1.18-.24.42-.08.83-.13,1.24-.21.22-.04.45-.08.68-.1,2.56-.53,5.12-1.07,7.67-1.63.9.04,1.79.15,2.67.33,4.81.79,10.29,3.37,15.19,6.33,3.56,2.09,6.89,3.83,8.87,6.17-.49,1.61-.99,3.21-1.53,4.8"/><path id="Path_92" class="cls-20" d="m846.97,940.27c.03-.06.07-.12.11-.18-.03.05-.07.12-.11.19h0Z"/></g></g></g><rect x="273.76" y="1243.5" width="615.17" height="362.45"/><path class="cls-19" d="m465.67,1425.18c0-8.55,4.79-13.35,12.99-13.35,3.66,0,6.49.62,8.81,1.19.77.21,1.18.82.98,1.7l-.31,1.39c-.21.82-.93,1.13-1.8.93-1.7-.46-4.23-.98-7.22-.98-6.29,0-8.45,3.81-8.45,9.69v9.48c0,5.93,2.16,9.74,8.45,9.74,3.3,0,5.77-.62,7.32-.98.93-.26,1.49.1,1.7.93l.31,1.34c.15.72-.1,1.49-.98,1.7-1.65.46-4.79,1.19-8.81,1.19-8.19,0-12.99-4.74-12.99-13.35v-10.62Z"/><path class="cls-19" d="m494.58,1433.01c0-7.16,4.12-11.75,11.08-11.75s11.13,4.59,11.13,11.75v4.38c0,7.22-4.17,11.75-11.13,11.75s-11.08-4.53-11.08-11.75v-4.38Zm11.08,12.01c4.69,0,6.29-3.04,6.29-8.04v-3.56c0-4.9-1.6-8.04-6.29-8.04s-6.29,3.14-6.29,8.04v3.56c0,5,1.65,8.04,6.29,8.04Z"/><path class="cls-19" d="m522.77,1432.03c0-6.8,3.66-10.77,9.64-10.77,2.52,0,4.69,1.03,7.06,2.89v-11.44c0-.98.62-1.65,1.6-1.65h1.49c.98,0,1.65.67,1.65,1.65v34.17c0,.98-.52,1.6-1.49,1.6h-.98c-.98,0-1.54-.26-1.65-1.24l-.15-1.34c-2.52,2.11-4.79,3.25-7.52,3.25-5.98,0-9.64-4.02-9.64-10.72v-6.39Zm10.36,12.99c2.32,0,4.43-1.39,6.34-2.89v-13.76c-1.96-1.6-4.02-2.99-6.34-2.99-3.92,0-5.57,2.42-5.57,7.42v4.79c0,5,1.65,7.42,5.57,7.42Z"/><path class="cls-19" d="m551.22,1432.08c0-5.67,3.86-10.82,10.62-10.82s10.72,5.41,10.72,10.82v3.14c0,.67-.52,1.13-1.13,1.13h-15.46v1.96c0,2.94,1.29,6.7,6.39,6.7,2.63,0,4.79-.52,6.24-.93,1.03-.26,1.8,0,2.06,1.03l.26.93c.21.88-.21,1.65-1.19,1.96-1.55.46-4.38,1.13-7.32,1.13-7.58,0-11.18-5.31-11.18-10.82v-6.24Zm16.59.77v-1.03c0-3.04-1.55-6.44-5.93-6.44s-5.93,3.4-5.93,6.44v1.03h11.85Z"/><path class="cls-19" d="m584.14,1415.36c0-1.03.77-1.91,1.7-2.22,1.85-.62,5.26-1.65,8.76-1.65,7.06,0,11.18,4.48,11.18,9.89,0,3.3-1.55,5.98-4.33,7.58,4.02,1.49,6.18,4.79,6.18,8.76,0,5.62-4.23,10.41-12.06,10.41h-9.79c-.98,0-1.65-.62-1.65-1.6v-31.18Zm10.36,12.01c4.38,0,6.24-2.73,6.24-5.82s-1.8-5.88-6.18-5.88c-1.96,0-3.71.36-5.51.98v10.72h5.46Zm.98,16.59c4.9,0,7.06-2.94,7.06-6.24s-1.91-6.39-7.11-6.39h-6.39v12.63h6.44Z"/><path class="cls-19" d="m613.46,1414.18c0-1.6,1.24-2.78,2.89-2.78s2.89,1.19,2.89,2.78-1.24,2.84-2.89,2.84-2.89-1.24-2.89-2.84Zm.52,9.07c0-.98.62-1.65,1.6-1.65h1.49c.98,0,1.65.67,1.65,1.65v23.29c0,.98-.67,1.6-1.65,1.6h-1.49c-.98,0-1.6-.62-1.6-1.6v-23.29Z"/><path class="cls-19" d="m627.69,1425.15l-2.68-.21c-1.13-.15-1.6-.52-1.6-1.49v-.46c0-.98.62-1.39,1.6-1.39h2.68v-6.85c0-.98.67-1.65,1.65-1.65h1.49c.98,0,1.6.67,1.6,1.65v6.85h4.74c.98,0,1.6.52,1.6,1.49v.62c0,.98-.62,1.44-1.6,1.44h-4.74v15.15c0,3.19,1.65,4.38,3.86,4.38.88,0,1.6-.1,2.11-.15.98-.21,1.6.1,1.8,1.03l.21,1.13c.15.93-.31,1.65-1.29,1.85-.77.15-1.85.26-3.04.26-5.2,0-8.4-2.94-8.4-7.94v-15.72Z"/><path class="cls-19" d="m644.54,1431.75c0-5.67,3.86-10.82,10.62-10.82s10.72,5.41,10.72,10.82v3.14c0,.67-.52,1.13-1.13,1.13h-15.46v1.96c0,2.94,1.29,6.7,6.39,6.7,2.63,0,4.79-.52,6.24-.93,1.03-.26,1.8,0,2.06,1.03l.26.93c.21.88-.21,1.65-1.19,1.96-1.55.46-4.38,1.13-7.32,1.13-7.58,0-11.18-5.31-11.18-10.82v-6.24Zm16.59.77v-1.03c0-3.04-1.55-6.44-5.93-6.44s-5.93,3.4-5.93,6.44v1.03h11.85Z"/><path class="cls-19" d="m524.84,1460.05c.47-1.73,1.65-2.97,3.41-2.97s2.95,1.27,3.39,2.97l3.82,14.52c.13.49-.13.88-.65.88h-.8c-.49,0-.85-.31-.98-.8l-1.11-4.29h-7.37l-1.08,4.26c-.13.57-.44.83-.93.83h-.83c-.52,0-.78-.39-.65-.88l3.77-14.52Zm6.56,8.24l-2.01-7.91c-.21-.8-.62-1.14-1.14-1.14s-.93.31-1.14,1.14l-2.04,7.91h6.33Z"/><path class="cls-19" d="m538.23,1467.75c0-3.49,1.86-5.94,5.51-5.94,1.37,0,2.51.23,3.33.47.52.13.8.49.65.98l-.13.49c-.13.46-.57.62-1.06.49-.7-.18-1.63-.36-2.66-.36-2.43,0-3.23,1.71-3.23,4.08v1.63c0,2.43.8,4.14,3.23,4.14,1.16,0,2.07-.21,2.72-.39.54-.16.88.05,1.01.49l.13.47c.16.49-.08.88-.62,1.03-.85.23-1.97.46-3.36.46-3.64,0-5.51-2.48-5.51-5.97v-2.07Z"/><path class="cls-19" d="m556.23,1467.8h1.99v-.93c0-1.99-.7-3-2.79-3-1.32,0-2.33.26-2.84.41-.49.13-.83-.05-.96-.54l-.13-.44c-.13-.52.13-.85.59-1.01.67-.18,1.89-.49,3.34-.49,3.49,0,5.17,1.99,5.17,4.78v8.06c0,.49-.26.8-.75.8h-.44c-.49,0-.75-.18-.83-.67l-.08-.62c-1.01,1.01-2.27,1.63-3.8,1.63-2.66,0-4.29-1.6-4.29-4.03,0-2.87,2.43-3.96,5.82-3.96Zm-1.17,5.92c1.14,0,2.3-.54,3.16-1.37v-2.74h-1.81c-2.09,0-3.59.44-3.59,2.12,0,1.22.72,1.99,2.25,1.99Z"/><path class="cls-19" d="m563.99,1467.21c0-3.41,1.83-5.4,4.83-5.4,1.27,0,2.35.52,3.54,1.45v-5.74c0-.49.31-.83.8-.83h.75c.49,0,.83.34.83.83v17.13c0,.49-.26.8-.75.8h-.49c-.49,0-.78-.13-.83-.62l-.08-.67c-1.27,1.06-2.4,1.63-3.77,1.63-3,0-4.83-2.01-4.83-5.37v-3.21Zm5.19,6.52c1.17,0,2.22-.7,3.18-1.45v-6.9c-.98-.8-2.01-1.5-3.18-1.5-1.96,0-2.79,1.21-2.79,3.72v2.4c0,2.51.83,3.72,2.79,3.72Z"/><path class="cls-19" d="m578.26,1467.23c0-2.84,1.94-5.43,5.33-5.43s5.37,2.72,5.37,5.43v1.58c0,.34-.26.57-.57.57h-7.75v.98c0,1.47.65,3.36,3.2,3.36,1.32,0,2.4-.26,3.13-.47.52-.13.91,0,1.03.52l.13.46c.1.44-.1.83-.59.98-.78.23-2.19.57-3.67.57-3.8,0-5.61-2.66-5.61-5.43v-3.13Zm8.32.39v-.52c0-1.53-.78-3.23-2.97-3.23s-2.97,1.71-2.97,3.23v.52h5.94Z"/><path class="cls-19" d="m592.35,1462.97c0-.49.28-.83.78-.83h.44c.49,0,.78.26.83.7l.08.62c.98-.88,2.25-1.65,3.67-1.65,1.81,0,3.05.7,3.7,1.86,1.11-.98,2.51-1.86,4.06-1.86,2.87,0,4.34,1.76,4.34,4.5v8.35c0,.49-.34.8-.83.8h-.75c-.49,0-.8-.31-.8-.8v-7.91c0-1.91-.57-2.87-2.38-2.87-1.11,0-2.17.67-3.1,1.5.08.31.1.65.1.98v8.3c0,.49-.31.8-.8.8h-.75c-.49,0-.83-.31-.83-.8v-7.91c0-1.91-.59-2.87-2.38-2.87-1.16,0-2.12.72-3,1.5v9.28c0,.49-.34.8-.83.8h-.75c-.49,0-.8-.31-.8-.8v-11.68Z"/><path class="cls-19" d="m613.3,1463.02c-.08-.49.23-.88.72-.88h.7c.49,0,.85.31.9.8l1.03,7.81c.21,1.47.75,2.61,2.3,2.61.78,0,1.52-.21,2.27-.57l.52-9.82c.03-.62.39-.83.88-.83h.65c.49,0,.83.23.8.83l-.73,13.41c-.13,2.64-1.52,4.26-4.52,4.26h-1.68c-.49,0-.83-.21-.88-.72l-.05-.57c-.02-.52.26-.75.75-.75h1.91c1.63,0,2.04-.93,2.17-2.35l.08-1.35c-.8.34-1.55.54-2.35.54-2.77,0-4.06-1.71-4.42-4.39l-1.06-8.04Z"/><path class="cls-19" d="m401.37,1494.09c-28.62,0-51.9-23.28-51.9-51.9s23.28-51.9,51.9-51.9c5.04,0,10.02.72,14.8,2.14.44.13.69.59.56,1.03-.13.44-.59.69-1.03.56-4.63-1.38-9.45-2.07-14.33-2.07-27.7,0-50.24,22.54-50.24,50.24s22.54,50.24,50.24,50.24,50.24-22.54,50.24-50.24c0-10.14-3.01-19.91-8.69-28.25-.26-.38-.16-.9.22-1.15.38-.26.9-.16,1.15.22,5.87,8.62,8.98,18.72,8.98,29.19,0,28.62-23.28,51.9-51.9,51.9Z"/><path class="cls-19" d="m440.95,1415.39c-.77,0-1.53-.19-2.21-.58-.83-.48-1.32-1.56-1.72-2.42-.03-.06-.06-.13-.1-.21-1.6,1.96-3.55,3.5-6.71,2.41-2.18-.75-3.66-2.79-3.82-5.13-1.97,1.18-4.56,1.14-6.27-.22-2.17-1.72-2.38-4.38-.65-7.92-.23-.06-.58-.13-.86-.17-1.13-.19-2.67-.46-3.6-1.69-1.34-1.78-1.32-4.51.05-6.51.26-.38.77-.48,1.15-.22.38.26.48.78.22,1.15-.96,1.4-1,3.37-.09,4.57.53.7,1.6.89,2.55,1.05.95.17,1.78.31,2.16,1,.15.27.27.72,0,1.34-1.94,3.86-.88,5.32.09,6.09,1.32,1.04,3.53.91,4.93-.3.37-.31.88-.38,1.3-.16.44.22.7.7.67,1.2-.15,1.95.96,3.74,2.7,4.34,1.99.69,3.28.15,5.08-2.14.27-.57.64-.86,1.11-.87h.02c.79,0,1.15.78,1.56,1.68.27.58.68,1.47,1.05,1.68,1.04.6,2.48.43,3.35-.41.33-.32.86-.31,1.17.02s.31.86-.02,1.17c-.84.81-1.98,1.23-3.13,1.23Zm-3.56-3.89h0Z"/><path class="cls-19" d="m375.02,1445.69c-1.81-1.03-3.28-.99-5.41-.86-.54,0-.95-.49-1.76-.52-1.48-.04-3.24.05-4.18,1.36-.22.34-.42.71-.59,1.08-.32.36-.6.76-.81,1.18-.37.92-.28,1.95-.49,2.91-.36,1.53.1,3.55,1.77,4.05.85.27,1.76.06,2.62.28.56.14,2.25.8,3.27,1.07,1.17.36,2.4.47,3.61.26.9-.05,1.87-.04,2.65-.56,1.49-.92,2.05-2.68,2.19-4.33.36-2.32-.75-4.81-2.86-5.91Zm1.74,5.23c-.09.79-.08.98-.28,1.56-.03.08-.12.28-.18.37-.01.02-.03.04-.04.05-.84,1.15-1.54,1.32-3.13,1.38-.78.1-1.56.22-2.34.09-1.73-.28-2.03-.48-3.65-.88-.89-.3-1.81-.3-2.74-.19-1.15.1-1.8-.42-2.07-1.23-.05-.27.01-.85.09-1.74.07-.81,0-1.46.12-1.8,0-.02.02-.05.02-.07.03-.13.07-.25.12-.38.02-.04.04-.08.06-.12,0-.02.02-.04.03-.06,0,0,0,0,0,0,0,.01,0,0,0,0,0,0,0,0,0-.01.05-.08.1-.17.16-.25.05-.07.1-.15.15-.23.04-.05.08-.1.12-.14.4-.55.93-1.08,1.55-1.46.17-.06.33-.1.48-.11.9-.11,2.32.11,2.82.26.29.08.52.3.78.45.31.19.66.29,1.02.34,3.48,0,6.23,1.66,6.85,3.54.01.05.02.09.03.12.01.07.02.15.03.22,0,.1,0,.19,0,.29Z"/><path class="cls-19" d="m399.33,1473.15c-.12-.62-.31-1.24-.69-1.75-.39-.48-.89-.86-1.39-1.23-.87-.59-1.81-1.13-2.84-1.38-1.12-.23-2.32-.14-3.4.23-.76.41-1.19.82-1.76,1.48-.37.56-.63,1.18-.87,1.81-.48.65-.79,1.49-.98,2.65-.16.77-.27,1.27-.38,1.81-.11.6-.14,1.25.12,1.81.33.67,1.16.8,1.8,1.02.48.17.97.33,1.39.62.06.04.18.13.23.17,2.1,1.84,1.78,3.08,4.99,1.71.9-.37,1.85-.74,2.47-1.53,1.55-2.09,1.65-4.93,1.31-7.42Zm-1.9,5.26c-.49.71-1.08.92-2.14,1.4-1.16.44-1.27.62-2.04.64-.66-.04-1.09-.99-2.38-1.82-.99-.66-3.01-.7-3.25-1.04-.05-.15-.05-.03-.03-.39.08-.61.16-1.21.25-1.82.03-.27.05-.5.09-.76,0-.06.01-.12.03-.18,0-.03.02-.08.01-.04,0-.02,0-.05.01-.07,0-.03-.02.04,0-.03,0-.03.02-.06.03-.09,0,0,0,0,0,0,0,0,0-.01,0-.02.01-.08.03-.16.05-.23.18-.59.57-1.2.94-1.81.03-.03.06-.06.09-.09.02-.03.04-.06.06-.09,0,.01.04-.05.05-.07.02-.02.04-.05.06-.08.02-.02.02-.02.02-.02,0,0,0,0,0-.01.01-.01.02-.03.03-.04.05-.07.11-.14.16-.2.02-.02.04-.05.06-.06.03-.03.03-.02,0,0,.01-.02.02-.03.04-.04.01-.01.02-.02.03-.03.05-.05.09-.09.14-.14.15-.16.32-.31.49-.4-.01,0-.03.01-.04.02.04-.02.07-.04.09-.05.06-.04.23-.13.39-.2.04-.02.08-.05.13-.06.08-.04.16-.07.2-.09.02,0,.04-.02.06-.03.12-.06.22-.04.34-.05,0,0,0,0,.01,0,.05,0,.11,0,.16,0,.81-.06,1.63.04,2.41.23,1.23.41,3.16,1.69,4.04,2.9.22.51.47,3.48-.61,4.86Z"/><path class="cls-19" d="m390.15,1404.46c-2.29-.74-4.68.22-6.76,1.16-.31.15-.58.35-.82.57-.48.29-.93.63-1.35,1.01-.03.03-.06.06-.1.09-.28.2-.53.43-.73.71-.08.08-.16.17-.24.26-.55.44-.98,1.04-1.18,1.79-.45,1.56-.72,3.34,0,4.86.31.63.77,1.32,1.54,1.34,1.95-.08,3.62-1.3,5.3-2.18,1.58-.74,3.38-1.22,4.6-2.55.84-.99,1.04-2.32,1.13-3.57.14-1.28.07-3.03-1.39-3.49Zm.31,2.95s-.01.08-.02.12c0,.12,0,.25-.02.37,0,.01,0,.03,0,.04,0,.02,0,.04-.02.06,0-.03,0-.03,0,0,0,.06-.01.1-.03.16-.03.1-.05.2-.09.3-.01.03-.03.07-.04.1.02-.06-.01.03-.02.04-.02.03-.02.03,0,0,0,.01-.01.03-.02.04,0,.02-.02.03-.02.05-.02.05-.04.1-.07.15-.2.53-.73,1.13-1.97,1.83-.83.43-1.71.74-2.53,1.18-1.47.87-2.81,1.96-4.4,2.6-.4.16-.87.25-1.18.08-.53-.35-.91-1.12-.95-1.92,0-.89.05-1.92.43-2.83.18-.31.4-.6.64-.87.01-.02.03-.05.04-.07.11-.14.23-.27.36-.39.12-.12.28-.22.41-.33.16-.14.31-.25.5-.36.3-.17.59-.4.92-.52.13-.05.26-.09.4-.14.54-.33.8-.33,1.38-.47.86-.22,1.72-.39,2.6-.47.06,0,.12-.01.18-.02.08-.02.17-.04.26-.06.46-.08.92-.11,1.39-.1.44.01.84.11,1.24.29.17.08.33.2.44.34.02.03.03.06.05.08,0,0,.01.01.02.02.03.02.05.05.05.08,0,.01.01.03.02.05,0,0,0,0,0,0,0,0,0,0,0,0,0,0,0,0,0,0,0,0,0,0,0,0,0,0,0,0,0,0,0,0,.02.02.02.02,0,0,0,.02,0,.02.01.02.02.04.02.06.02.07,0-.04,0,.03,0,.03,0,.05,0,.08,0,.1,0,.21,0,.31Z"/><path class="cls-19" d="m413.74,1428.23c-.97-.65-2.02-1.18-3.09-1.64-1.79-.88-3.77-1.44-5.78-1.43-.86,0-1.69.22-2.52.45-.4.06-.8.13-1.19.24-.27.08-.52.2-.79.3-.21.06-.41.13-.58.26-.28.22-.59.4-.88.62-1.89.83-2.45,3.19-2.8,5.06-.28,2.22-.96,4.21,1.22,5.7,1.17,1.08,2.77,1.26,4.21,1.78.73.25,1.41.63,2.14.87.89.27,1.82.37,2.74.4,2.49.03,4.54-1.02,6.07-2.96,1.09-1.19,2.01-2.56,2.42-4.14.25-.83.6-1.65.59-2.53.03-1.26-.7-2.35-1.76-2.99Zm-.19,4.94c-.07.17-.21.48-.28.59-.04.07-.08.14-.12.21.07-.11.1-.12-.03.06,0,0,0,0,0,.01,0,0,0,.01,0,.02,0,0,0,0,0-.02-.74,1.08-1.61,2.1-2.58,2.98-.41.32-.86.6-1.33.81-.85.34-.97.36-1.68.48-1.19.17-2.42.09-3.58-.18-.69-.22-1.33-.56-2.02-.78-1.17-.41-2.05-.52-2.93-.84-.67-.28-1.27-.69-1.83-1.14-.3-.26-.35-.36-.39-.44-.01-.02-.02-.04-.03-.06,0,0,0,0,0,0,0,0,0,0,0,0,0-.28.03-.84.11-1.75.09-1.06.16-1.59.37-2.35,0,.03,0,.06,0,.08,0-.04,0-.08,0-.11.07-.24.14-.5.24-.8,0-.01.01-.03.02-.04.06-.12.12-.24.18-.36.12-.24.25-.49.39-.72.25-.34.55-.65.91-.87.15-.1.3-.18.46-.24.13-.07.28-.13.41-.17.11-.03.22-.08.33-.12.14-.05.29-.06.44-.09.15-.03.31-.05.46-.08.09-.02.17-.03.25-.04.95-.2,1.9-.4,2.86-.61.33.02.66.05.99.12,1.79.29,3.83,1.25,5.66,2.36,1.32.78,2.57,1.43,3.3,2.3-.18.6-.37,1.19-.57,1.79Z"/><path class="cls-19" d="m413.11,1434.05s.03-.05.04-.07c-.01.02-.03.04-.04.07h0Z"/><path class="cls-19" d="m424.53,1455.78c-.54-2.43-2.3-3.43-4.66-3.56-1.23-.13-2.46.08-3.67.3-.71.12-1.5.21-2.03.72-.05.02-.11.03-.16.06-.08.05-.15.12-.22.18-.05.03-.09.06-.14.1-.14.09-.27.18-.41.28-.44.37-.81.84-1.08,1.35-.3.32-.57.67-.76,1.07-.49,1.04-.71,2.32-.32,3.43.31.7.94,1.17,1.52,1.64.76.55,1.57,1.09,2.5,1.3,1,.26,2.04.2,3.04.38.91.2,1.81.48,2.75.51,1.72.04,3.61-.64,3.98-2.52.36-1.73,0-3.52-.35-5.23Zm-1.39,4.75c-1.06.55-1.64.65-2.97.6-.83-.04-1.64-.27-2.48-.27-.9.03-2.69.09-3.14-.1-1.06-.33-2.3-.94-2.98-1.71-.04-.15-.05-.28-.06-.41.05-1.04.38-1.83.84-2.74.03-.06.06-.12.09-.18.16-.15.31-.31.45-.47.02-.03.03-.05.05-.08.14-.19.28-.36.45-.52.18-.17.38-.33.57-.48,0,0,0,0,0,0,0,0,0,0,.02-.01.02,0,.04-.02.06-.03.04-.02.08-.06.13-.08.05-.03.1-.06.15-.08.02,0,.03-.01.05-.02.15-.1.32-.16.51-.18,1.23-.08,2.47-.02,3.7.06,1.92.18,4.09,1.04,4.55,2.16.27.48.41,1.37.56,2.96.02,1.05.23.97-.57,1.58Z"/><path class="cls-19" d="m447.38,1432.33c-.3-1.06-.58-2.21-1.54-2.87-1.05-.81-2.56-1.19-3.84-.76-1.45.51-2.38,1.87-3.29,3.03-.08.13-.14.27-.2.41-.24.33-.46.68-.68,1.02-1.15,1.78.14,3.7,1.28,5.11.55.6,1,1.28,1.57,1.86.61.55,1.35.94,2.12,1.21,2.4,1.01,4.17-1.85,4.69-3.83.38-1.71.44-3.51-.11-5.18Zm-1.73,5.52c-.41.61-.58.95-1.28,1.36-.92.48-1.87.08-3.03-.45-.73-.39-.95-.82-1.69-1.46-.49-.43-.92-.91-1.3-1.43-.32-.43-.64-.92-.57-1.41.02-.33.14-.64.28-.94,0,0,0,.02,0,.03.02-.03.03-.07.05-.1.05-.11.11-.23.17-.34.06-.11.15-.24.23-.33.05-.06-.02.03.02-.02.02-.03.05-.06.07-.08.45-.74,1.15-1.2,1.74-1.7.88-.66,1.53-.94,2.59-.85.85.1,2.14.73,2.64,1.36.37.43.25.27.41.58,0,.01,0,.02,0,.02.02.07.05.14.07.22.21.85.46,1.94.44,1.91.02.11.03.22.04.33-.09,1.33.03,1.8-.89,3.31Z"/><text class="cls-25" transform="translate(276.01 1192.65)"><tspan class="cls-32" x="0" y="0">L</tspan><tspan x="13.74" y="0">ogo do umies</tspan><tspan class="cls-34" x="185.04" y="0">z</tspan><tspan x="197.67" y="0">c</tspan><tspan class="cls-37" x="211.11" y="0">z</tspan><tspan x="223.74" y="0">enia na s</tspan><tspan class="cls-29" x="332.61" y="0">t</tspan><tspan x="342.36" y="0">op</tspan><tspan class="cls-28" x="375.9" y="0">c</tspan><tspan x="389.16" y="0">e</tspan></text><text class="cls-25" transform="translate(276.13 581.62)"><tspan x="0" y="0">Eleme</tspan><tspan class="cls-33" x="76.92" y="0">n</tspan><tspan class="cls-36" x="93.45" y="0">t</tspan><tspan class="cls-17" x="103.65" y="0">y </tspan><tspan class="cls-29" x="124.14" y="0">g</tspan><tspan class="cls-39" x="140.73" y="0">r</tspan><tspan x="150.39" y="0">aficzne na st</tspan><tspan class="cls-41" x="304.14" y="0">r</tspan><tspan x="313.65" y="0">onie gł</tspan><tspan class="cls-34" x="399.2" y="0">ó</tspan><tspan class="cls-38" x="415.46" y="0">wnej</tspan></text><text class="cls-25" transform="translate(240.55 81.27)"><tspan x="0" y="0">Eleme</tspan><tspan class="cls-33" x="76.92" y="0">n</tspan><tspan class="cls-36" x="93.45" y="0">t</tspan><tspan class="cls-17" x="103.65" y="0">y </tspan><tspan class="cls-29" x="124.14" y="0">g</tspan><tspan class="cls-39" x="140.73" y="0">r</tspan><tspan x="150.39" y="0">aficzne na st</tspan><tspan class="cls-41" x="304.14" y="0">r</tspan><tspan x="313.65" y="0">onie gł</tspan><tspan class="cls-34" x="399.2" y="0">ó</tspan><tspan class="cls-38" x="415.46" y="0">wnej</tspan></text></svg>